<?xml version="1.0" encoding="utf-8"?>
<!-- Generator: Adobe Illustrator 15.0.0, SVG Export Plug-In . SVG Version: 6.00 Build 0)  -->
<!DOCTYPE svg PUBLIC "-//W3C//DTD SVG 1.1//EN" "http://www.w3.org/Graphics/SVG/1.1/DTD/svg11.dtd">
<svg version="1.1" id="Layer_1" xmlns="http://www.w3.org/2000/svg" xmlns:xlink="http://www.w3.org/1999/xlink" x="0px" y="0px"
	 width="240px" height="80px" viewBox="0 0 240 80" enable-background="new 0 0 240 80" xml:space="preserve">
<g id="guides" display="none">
</g>
<g>
	<g>
		<g>
			<g>
				<path fill="#555555" d="M109.77,40.727c-0.261,0-0.501-0.237-0.501-0.521c0-15.167-12.329-27.5-27.473-27.5
					c-0.282,0-0.517-0.213-0.517-0.496s0.235-0.472,0.517-0.472c15.687,0,28.469,12.78,28.469,28.467
					C110.265,40.488,110.074,40.727,109.77,40.727z"/>
			</g>
			<g>
				<path fill="#555555" d="M81.796,68.693c-0.282,0-0.517-0.234-0.517-0.494s0.235-0.473,0.517-0.473
					c15.144,0,27.473-12.355,27.473-27.521c0-0.285,0.24-0.474,0.501-0.474c0.304,0,0.496,0.189,0.496,0.474
					C110.265,55.914,97.482,68.693,81.796,68.693z"/>
			</g>
			<g>
				<path fill="#555555" d="M81.796,68.693c-15.708,0-28.491-12.779-28.491-28.487c0-0.285,0.213-0.474,0.496-0.474
					c0.24,0,0.474,0.189,0.474,0.474c0,15.165,12.331,27.521,27.521,27.521c0.261,0,0.475,0.213,0.475,0.474
					C82.271,68.46,82.057,68.693,81.796,68.693z"/>
			</g>
			<g>
				<path fill="#555555" d="M53.801,40.727L53.801,40.727c-0.283,0-0.496-0.237-0.496-0.521c0-15.687,12.783-28.467,28.491-28.467
					c0.261,0,0.475,0.189,0.475,0.472c0,0.283-0.214,0.496-0.475,0.496c-15.191,0-27.521,12.333-27.521,27.5
					C54.274,40.488,54.041,40.727,53.801,40.727z"/>
			</g>
		</g>
		<g>
			<g>
				<path fill="#555555" d="M68.595,56.24c-0.077,0-0.131,0-0.207-0.026c-0.291-0.13-0.421-0.444-0.32-0.708l13.209-34.359
					c0.076-0.287,0.42-0.394,0.704-0.313c0.267,0.104,0.396,0.42,0.313,0.708L69.068,55.9C69.015,56.084,68.808,56.24,68.595,56.24z
					"/>
			</g>
			<g>
				<path fill="#555555" d="M94.999,56.24c-0.236,0-0.473-0.156-0.521-0.34L81.276,21.541c-0.107-0.287,0.023-0.604,0.313-0.708
					c0.29-0.08,0.604,0.026,0.704,0.313l13.209,34.359c0.13,0.265-0.054,0.578-0.344,0.708C95.106,56.24,95.053,56.24,94.999,56.24z
					"/>
			</g>
			<g>
				<path fill="#555555" d="M81.797,43.799h-8.425c-0.313,0-0.551-0.261-0.551-0.551c0-0.314,0.237-0.523,0.551-0.523h8.425
					c0.29,0,0.527,0.209,0.527,0.523C82.324,43.538,82.087,43.799,81.797,43.799z"/>
			</g>
		</g>
	</g>
</g>
<text transform="matrix(1 0 0 1 124.166 52.5)" fill="#555555" font-family="'Code-Bold'" font-size="38.0936">AIR</text>
</svg>
