<?xml version="1.0" encoding="utf-8"?>
<!-- Generator: Adobe Illustrator 15.0.0, SVG Export Plug-In . SVG Version: 6.00 Build 0)  -->
<!DOCTYPE svg PUBLIC "-//W3C//DTD SVG 1.1//EN" "http://www.w3.org/Graphics/SVG/1.1/DTD/svg11.dtd">
<svg version="1.1" id="Layer_1" xmlns="http://www.w3.org/2000/svg" xmlns:xlink="http://www.w3.org/1999/xlink" x="0px" y="0px"
	 width="240px" height="80px" viewBox="0 0 240 80" enable-background="new 0 0 240 80" xml:space="preserve">
<g id="guides" display="none">
</g>
<g enable-background="new    ">
	<path fill="#555555" d="M94.612,40.186h-3.713V25.764h-4.755v-3.09h13.224v3.09h-4.755L94.612,40.186L94.612,40.186z"/>
	<path fill="#555555" d="M112.148,40.186h-10.085V22.674h10.085v3.042h-6.373v3.846h5.929v3.042h-5.929v4.516h6.373V40.186z"/>
	<path fill="#555555" d="M123.238,25.513c-1.396,0-2.479,0.525-3.245,1.575c-0.767,1.05-1.15,2.514-1.15,4.39
		c0,3.905,1.465,5.857,4.396,5.857c1.229,0,2.722-0.308,4.47-0.923v3.114c-1.438,0.6-3.042,0.898-4.813,0.898
		c-2.547,0-4.498-0.772-5.847-2.317c-1.35-1.545-2.024-3.763-2.024-6.654c0-1.82,0.332-3.415,0.994-4.785
		c0.663-1.369,1.615-2.419,2.857-3.149c1.242-0.731,2.695-1.097,4.366-1.097c1.7,0,3.407,0.412,5.127,1.234l-1.198,3.019
		c-0.652-0.312-1.312-0.583-1.979-0.815C124.529,25.628,123.879,25.513,123.238,25.513z"/>
	<path fill="#555555" d="M145.782,40.186h-3.701v-7.559h-6.937v7.559h-3.713V22.674h3.713v6.863h6.937v-6.863h3.701V40.186z"/>
	<path fill="#555555" d="M155.652,29.885l3.652-7.211h4.002l-5.812,10.696v6.815h-3.688V33.49l-5.811-10.816h4.023L155.652,29.885z"
		/>
</g>
<g id="Vo9kor.tif" display="none">
</g>
<g enable-background="new    ">
	<path fill="#555555" d="M97.349,59.811l-1.27-4.168h-6.384l-1.27,4.168h-4l6.181-17.584h4.54l6.205,17.584H97.349z M95.193,52.527
		c-1.174-3.776-1.834-5.912-1.982-6.407c-0.147-0.495-0.253-0.888-0.317-1.175c-0.263,1.021-1.018,3.55-2.264,7.582H95.193z"/>
	<path fill="#555555" d="M120.609,59.811h-4.229l-2.372-9.199c-0.088-0.325-0.238-1.004-0.449-2.028s-0.333-1.715-0.365-2.065
		c-0.048,0.433-0.167,1.125-0.359,2.078c-0.191,0.954-0.339,1.637-0.443,2.043l-2.36,9.176h-4.216L101.349,42.3h3.653l2.24,9.56
		c0.391,1.766,0.675,3.293,0.851,4.586c0.048-0.453,0.158-1.157,0.33-2.111c0.171-0.954,0.333-1.693,0.485-2.225l2.551-9.81h3.51
		l2.551,9.81c0.112,0.439,0.251,1.111,0.419,2.015s0.295,1.677,0.383,2.321c0.08-0.62,0.208-1.397,0.383-2.327
		c0.176-0.933,0.335-1.685,0.479-2.259l2.227-9.56h3.653L120.609,59.811z"/>
	<path fill="#555555" d="M137.99,59.811l-1.27-4.168h-6.386l-1.271,4.168h-4l6.182-17.584h4.54l6.204,17.584H137.99z
		 M135.834,52.527c-1.174-3.776-1.834-5.912-1.982-6.407c-0.146-0.495-0.252-0.888-0.314-1.175c-0.266,1.021-1.02,3.55-2.266,7.582
		H135.834z"/>
	<path fill="#555555" d="M147.908,53.091v6.72h-3.713V42.299h5.103c2.38,0,4.14,0.434,5.282,1.301
		c1.143,0.865,1.713,2.183,1.713,3.945c0,1.03-0.283,1.946-0.852,2.749c-0.567,0.804-1.369,1.433-2.406,1.888
		c2.635,3.938,4.352,6.479,5.15,7.629h-4.121l-4.182-6.72H147.908z M147.908,50.072h1.197c1.174,0,2.041-0.195,2.6-0.588
		c0.559-0.392,0.839-1.006,0.839-1.844c0-0.83-0.286-1.423-0.856-1.772c-0.569-0.353-1.455-0.527-2.651-0.527h-1.126L147.908,50.072
		L147.908,50.072z"/>
	<path fill="#555555" d="M174.919,50.887c0,2.883-0.821,5.092-2.462,6.624c-1.641,1.533-4.01,2.3-7.107,2.3h-4.959V42.299h5.496
		c2.859,0,5.08,0.756,6.66,2.264C174.129,46.07,174.919,48.18,174.919,50.887z M171.062,50.982c0-3.762-1.662-5.644-4.983-5.644
		h-1.978v11.403h1.594C169.273,56.744,171.062,54.824,171.062,50.982z"/>
	<path fill="#555555" d="M188.885,54.947c0,1.58-0.568,2.826-1.707,3.736c-1.137,0.909-2.721,1.364-4.748,1.364
		c-1.869,0-3.521-0.351-4.959-1.054v-3.45c1.182,0.526,2.182,0.897,3,1.114c0.818,0.216,1.566,0.322,2.246,0.322
		c0.814,0,1.439-0.154,1.875-0.467c0.436-0.312,0.652-0.773,0.652-1.391c0-0.344-0.096-0.648-0.287-0.916s-0.475-0.525-0.846-0.771
		c-0.371-0.248-1.127-0.644-2.271-1.188c-1.068-0.503-1.873-0.984-2.406-1.449c-0.535-0.463-0.961-1.002-1.281-1.615
		c-0.318-0.615-0.479-1.334-0.479-2.156c0-1.551,0.524-2.769,1.575-3.652c1.05-0.887,2.501-1.33,4.354-1.33
		c0.91,0,1.778,0.107,2.604,0.323c0.827,0.216,1.69,0.521,2.593,0.909l-1.197,2.889c-0.934-0.384-1.707-0.65-2.316-0.803
		c-0.61-0.152-1.211-0.229-1.805-0.229c-0.701,0-1.239,0.163-1.614,0.491c-0.378,0.327-0.563,0.754-0.563,1.281
		c0,0.326,0.076,0.613,0.229,0.854c0.149,0.244,0.393,0.479,0.725,0.707c0.33,0.229,1.115,0.638,2.354,1.229
		c1.638,0.781,2.76,1.566,3.365,2.354C188.582,52.842,188.885,53.807,188.885,54.947z"/>
</g>
<path fill="#555555" d="M79.5,60h-23V22.5h23l0.003,2.253l-17.42,2.5v1.648h17.42v1.918l-17.42,2.5v1.648h17.42v2.024l-17.42,2.5
	v1.647h17.42v1.918l-17.42,2.5v1.646h17.42L79.5,60z"/>
</svg>
