<?xml version="1.0" encoding="utf-8"?>
<!-- Generator: Adobe Illustrator 15.0.0, SVG Export Plug-In . SVG Version: 6.00 Build 0)  -->
<!DOCTYPE svg PUBLIC "-//W3C//DTD SVG 1.1//EN" "http://www.w3.org/Graphics/SVG/1.1/DTD/svg11.dtd">
<svg version="1.1" id="Layer_1" xmlns="http://www.w3.org/2000/svg" xmlns:xlink="http://www.w3.org/1999/xlink" x="0px" y="0px"
	 width="240px" height="80px" viewBox="0 0 240 80" enable-background="new 0 0 240 80" xml:space="preserve">
<g id="guides" display="none">
</g>
<g id="Vo9kor.tif" display="none">
</g>
<g>
	<rect x="32" y="25.951" fill="none" width="109.477" height="46.549"/>
	<g enable-background="new    ">
		<path fill="#555555" d="M46.169,30.608c-9.756,0-9.756,15.033,0,15.033c2.138,0,3.827-0.621,4.758-1.104l0.655,5.104
			c-1.517,0.619-3.688,1.033-5.413,1.033c-16.72,0-16.685-25.029,0-25.029c1.724,0,3.378,0.31,4.861,0.965l-0.586,5.068
			C49.513,31.195,48.307,30.608,46.169,30.608z"/>
		<path fill="#555555" d="M54.998,43.848c2.826,2,5.895,2.067,7.033,1.965c1.448-0.104,2.689-1.138,2.551-2.481
			c-0.104-1.413-1.172-2.033-2.551-2.517c-3.861-1.415-7.309-3.379-7.309-7.517c0-4.137,2.861-7.309,6.964-7.515
			c1.275-0.069,2.964-0.069,6.137,1.034l-0.621,4.757c-2.724-1.103-4.275-1.069-5.033-1.034c-1.759,0.103-2.551,1.379-2.447,2.757
			c0.138,1.379,1.345,2,2.758,2.482c3.827,1.414,7.136,3.62,7.136,7.55c0,4.103-2.827,7.239-7.447,7.481
			c-1.379,0.104-4.447-0.069-7.791-1.793L54.998,43.848z"/>
		<path fill="#555555" d="M73.238,43.848c2.827,2,5.896,2.067,7.034,1.965c1.448-0.104,2.688-1.138,2.551-2.481
			c-0.104-1.413-1.172-2.033-2.551-2.517c-3.862-1.415-7.309-3.379-7.309-7.517c0-4.137,2.861-7.309,6.964-7.515
			c1.275-0.069,2.965-0.069,6.137,1.034l-0.621,4.757c-2.724-1.103-4.275-1.069-5.033-1.034c-1.759,0.103-2.551,1.379-2.448,2.757
			c0.138,1.379,1.344,2,2.758,2.482c3.827,1.414,7.136,3.62,7.136,7.55c0,4.103-2.826,7.239-7.447,7.481
			c-1.38,0.104-4.447-0.069-7.791-1.793L73.238,43.848z"/>
	</g>
	<path fill="#555555" d="M118.342,27.711c-3.051-2.801-7.998-2.801-11.049,0l-2.072,1.899l-2.074-1.899
		c-3.051-2.801-7.996-2.801-11.046,0c-3.433,3.15-3.433,8.246,0,11.396l13.12,12.043l13.121-12.043
		C121.773,35.958,121.773,30.86,118.342,27.711z M116.396,37.235l-11.176,10.43l-11.178-10.43c-1.127-1.034-1.562-2.385-1.562-3.821
		s0.252-2.615,1.381-3.648c0.995-0.915,2.332-1.417,3.765-1.417c1.429,0,2.768,0.868,3.763,1.784l3.833,3.331l3.832-3.332
		c0.996-0.917,2.332-1.785,3.765-1.785c1.434,0,2.77,0.504,3.765,1.418c1.128,1.033,1.377,2.212,1.377,3.648
		C117.958,34.848,117.525,36.201,116.396,37.235z"/>
	<g>
		<path fill="#555555" d="M129.752,26.731v19.72h7.826v4.93H124.82v-24.65H129.752z"/>
		<path fill="#555555" d="M153.68,26.317c16.963,0,16.963,25.408,0,25.408C136.718,51.725,136.718,26.317,153.68,26.317z
			 M153.68,31.385c-9.859,0-9.859,15.238,0,15.238C163.54,46.623,163.54,31.385,153.68,31.385z"/>
		<path fill="#555555" d="M178.68,51.896L168.475,26.73h5.688l3.274,8.205l1.793,5.102l1.758-4.93l3.311-8.377h5.688l-10.203,25.167
			H178.68z"/>
		<path fill="#555555" d="M192.988,51.381v-24.65h12.343v4.93h-7.411v4.93h6.48v4.931h-6.48v4.931h7.825v4.93L192.988,51.381
			L192.988,51.381z"/>
	</g>
</g>
</svg>
