<?xml version="1.0" encoding="utf-8"?>
<!-- Generator: Adobe Illustrator 15.0.0, SVG Export Plug-In . SVG Version: 6.00 Build 0)  -->
<!DOCTYPE svg PUBLIC "-//W3C//DTD SVG 1.1//EN" "http://www.w3.org/Graphics/SVG/1.1/DTD/svg11.dtd">
<svg version="1.1" id="Layer_1" xmlns="http://www.w3.org/2000/svg" xmlns:xlink="http://www.w3.org/1999/xlink" x="0px" y="0px"
	 width="240px" height="80px" viewBox="0 0 240 80" enable-background="new 0 0 240 80" xml:space="preserve">
<g id="guides" display="none">
</g>
<g enable-background="new    ">
	<path fill="#CCCCCC" d="M58.286,29.32c-2.165,0-3.841,0.813-5.028,2.44c-1.188,1.626-1.781,3.894-1.781,6.8
		c0,6.049,2.27,9.073,6.81,9.073c1.905,0,4.212-0.476,6.921-1.429v4.823c-2.227,0.929-4.713,1.393-7.459,1.393
		c-3.946,0-6.964-1.197-9.055-3.59c-2.091-2.395-3.136-5.829-3.136-10.308c0-2.82,0.513-5.291,1.54-7.413
		c1.026-2.121,2.501-3.748,4.425-4.879c1.923-1.132,4.178-1.698,6.763-1.698c2.635,0,5.282,0.637,7.941,1.911l-1.855,4.676
		c-1.015-0.482-2.035-0.902-3.062-1.262C60.284,29.5,59.275,29.32,58.286,29.32z"/>
	<path fill="#CCCCCC" d="M86.99,44.518c0,2.448-0.881,4.379-2.644,5.789c-1.763,1.409-4.215,2.114-7.357,2.114
		c-2.895,0-5.455-0.544-7.682-1.633v-5.345c1.831,0.816,3.38,1.393,4.648,1.727s2.427,0.501,3.479,0.501
		c1.262,0,2.229-0.241,2.904-0.724c0.674-0.482,1.011-1.199,1.011-2.152c0-0.531-0.148-1.005-0.445-1.419
		c-0.297-0.415-0.733-0.813-1.308-1.196c-0.575-0.384-1.748-0.996-3.516-1.838c-1.658-0.779-2.901-1.527-3.729-2.245
		c-0.829-0.717-1.491-1.552-1.985-2.505c-0.495-0.952-0.742-2.065-0.742-3.34c0-2.399,0.813-4.286,2.44-5.659
		c1.626-1.373,3.875-2.06,6.745-2.06c1.41,0,2.755,0.167,4.036,0.501c1.281,0.334,2.619,0.804,4.017,1.41l-1.855,4.472
		c-1.447-0.594-2.644-1.008-3.59-1.243c-0.946-0.234-1.877-0.353-2.792-0.353c-1.089,0-1.924,0.254-2.505,0.761
		c-0.582,0.508-0.872,1.169-0.872,1.985c0,0.508,0.117,0.949,0.353,1.327c0.235,0.377,0.609,0.742,1.123,1.094
		c0.513,0.354,1.729,0.987,3.646,1.902c2.536,1.213,4.273,2.428,5.214,3.646C86.52,41.254,86.99,42.748,86.99,44.518z"/>
	<path fill="#CCCCCC" d="M107.92,44.518c0,2.448-0.881,4.379-2.644,5.789c-1.763,1.409-4.215,2.114-7.357,2.114
		c-2.895,0-5.455-0.544-7.682-1.633v-5.345c1.831,0.816,3.38,1.393,4.648,1.727c1.268,0.334,2.427,0.501,3.479,0.501
		c1.262,0,2.229-0.241,2.904-0.724c0.674-0.482,1.011-1.199,1.011-2.152c0-0.531-0.148-1.005-0.445-1.419
		c-0.297-0.415-0.733-0.813-1.308-1.196c-0.575-0.384-1.748-0.996-3.516-1.838c-1.658-0.779-2.901-1.527-3.729-2.245
		c-0.829-0.717-1.491-1.552-1.985-2.505c-0.495-0.952-0.742-2.065-0.742-3.34c0-2.399,0.813-4.286,2.44-5.659
		c1.626-1.373,3.875-2.06,6.745-2.06c1.41,0,2.755,0.167,4.036,0.501c1.281,0.334,2.619,0.804,4.017,1.41l-1.855,4.472
		c-1.447-0.594-2.644-1.008-3.59-1.243c-0.946-0.234-1.877-0.353-2.792-0.353c-1.089,0-1.924,0.254-2.505,0.761
		c-0.582,0.508-0.872,1.169-0.872,1.985c0,0.508,0.117,0.949,0.353,1.327c0.235,0.377,0.609,0.742,1.123,1.094
		c0.513,0.354,1.729,0.987,3.646,1.902c2.536,1.213,4.273,2.428,5.214,3.646C107.45,41.254,107.92,42.748,107.92,44.518z"/>
</g>
<g enable-background="new    ">
	<path fill="#CCCCCC" d="M126.326,42.477h-11.021l-3.785,9.573h-2.097l10.91-27.238h1.206l10.688,27.238h-2.134L126.326,42.477z
		 M115.991,40.77h9.704l-3.692-9.778c-0.31-0.767-0.681-1.83-1.112-3.191c-0.334,1.188-0.7,2.264-1.096,3.229L115.991,40.77z"/>
	<path fill="#CCCCCC" d="M157.684,52.05h-1.559l-5.956-20.93c-0.495-1.719-0.866-3.129-1.112-4.23
		c-0.199,1.076-0.479,2.313-0.846,3.711c-0.365,1.398-2.359,8.548-5.982,21.449h-1.597l-7.459-27.127h1.985l4.75,17.479
		c0.186,0.705,0.357,1.356,0.52,1.957c0.16,0.601,0.307,1.162,0.437,1.688c0.131,0.525,0.247,1.032,0.354,1.521
		c0.104,0.488,0.2,0.98,0.287,1.476c0.298-1.683,0.929-4.235,1.894-7.663l4.639-16.458h2.097l5.437,18.89
		c0.632,2.178,1.082,3.934,1.354,5.27c0.161-0.891,0.368-1.837,0.622-2.839c0.253-1.002,2.161-8.108,5.725-21.319h1.91
		L157.684,52.05z"/>
	<path fill="#CCCCCC" d="M190.562,38.227c0,4.552-1.193,7.994-3.582,10.325c-2.388,2.332-5.895,3.498-10.521,3.498h-6.494V24.923
		h7.329c4.329,0,7.622,1.132,9.88,3.396C189.434,30.583,190.562,33.885,190.562,38.227z M188.503,38.301
		c0-3.884-0.987-6.807-2.96-8.767c-1.973-1.961-4.87-2.941-8.691-2.941h-4.992V50.38h4.49
		C184.451,50.38,188.503,46.354,188.503,38.301z"/>
</g>
</svg>
