<?xml version="1.0" encoding="utf-8"?>
<!-- Generator: Adobe Illustrator 15.0.0, SVG Export Plug-In . SVG Version: 6.00 Build 0)  -->
<!DOCTYPE svg PUBLIC "-//W3C//DTD SVG 1.1//EN" "http://www.w3.org/Graphics/SVG/1.1/DTD/svg11.dtd">
<svg version="1.1" id="Layer_1" xmlns="http://www.w3.org/2000/svg" xmlns:xlink="http://www.w3.org/1999/xlink" x="0px" y="0px"
	 width="240px" height="80px" viewBox="0 0 240 80" enable-background="new 0 0 240 80" xml:space="preserve">
<g id="guides" display="none">
</g>
<g>
	<g>
		<path fill="#555555" d="M72.654,41.961c0,4.466-1.271,7.887-3.813,10.262s-6.213,3.562-11.012,3.562h-7.682V28.657h8.517
			c4.428,0,7.867,1.169,10.316,3.507C71.43,34.502,72.654,37.768,72.654,41.961z M66.681,42.109c0-5.826-2.573-8.739-7.719-8.739
			H55.9v17.664h2.468C63.91,51.034,66.681,48.061,66.681,42.109z"/>
		<path fill="#555555" d="M93.899,55.784H78.276V28.657h15.623v4.713h-9.871v5.956h9.185v4.713h-9.185v6.995h9.871V55.784z"/>
		<path fill="#555555" d="M115.571,48.251c0,2.449-0.881,4.379-2.644,5.789c-1.763,1.41-4.215,2.114-7.357,2.114
			c-2.895,0-5.455-0.543-7.682-1.633v-5.347c1.831,0.816,3.38,1.396,4.648,1.729s2.427,0.5,3.479,0.5
			c1.262,0,2.229-0.24,2.904-0.723c0.674-0.482,1.011-1.199,1.011-2.152c0-0.531-0.148-1.006-0.445-1.42
			c-0.297-0.414-0.733-0.812-1.308-1.196c-0.575-0.384-1.748-0.995-3.516-1.837c-1.658-0.779-2.901-1.527-3.729-2.245
			c-0.829-0.718-1.491-1.552-1.985-2.505c-0.495-0.952-0.742-2.065-0.742-3.34c0-2.399,0.813-4.286,2.44-5.659
			c1.626-1.373,3.875-2.06,6.745-2.06c1.41,0,2.755,0.167,4.036,0.501c1.281,0.334,2.619,0.804,4.017,1.41l-1.855,4.473
			c-1.447-0.594-2.644-1.008-3.59-1.243c-0.946-0.234-1.877-0.353-2.792-0.353c-1.089,0-1.924,0.254-2.505,0.76
			c-0.582,0.509-0.872,1.17-0.872,1.985c0,0.509,0.117,0.949,0.353,1.327c0.235,0.377,0.609,0.742,1.123,1.094
			c0.513,0.354,1.729,0.987,3.646,1.902c2.536,1.213,4.273,2.428,5.214,3.646C115.102,44.988,115.571,46.482,115.571,48.251z"/>
		<path fill="#555555" d="M120.488,55.784V28.657h5.752v27.127H120.488z"/>
		<path fill="#555555" d="M143.367,40.551h10.762v14.064c-1.744,0.568-3.387,0.968-4.926,1.195
			c-1.541,0.229-3.115,0.344-4.723,0.344c-4.1,0-7.225-1.202-9.381-3.608c-2.158-2.405-3.238-5.858-3.238-10.362
			c0-4.375,1.252-7.791,3.758-10.242c2.504-2.448,5.979-3.673,10.418-3.673c2.783,0,5.467,0.557,8.053,1.67l-1.91,4.602
			c-1.979-0.989-4.039-1.483-6.18-1.483c-2.484,0-4.479,0.834-5.975,2.504c-1.498,1.67-2.244,3.916-2.244,6.735
			c0,2.944,0.602,5.192,1.809,6.745c1.205,1.552,2.959,2.328,5.262,2.328c1.197,0,2.418-0.123,3.654-0.371V45.34h-5.141
			L143.367,40.551L143.367,40.551z"/>
		<path fill="#555555" d="M184.65,55.784h-7.312l-11.801-20.521h-0.166c0.232,3.625,0.354,6.209,0.354,7.756v12.765h-5.141V28.657
			h7.254l11.783,20.317h0.129c-0.186-3.525-0.275-6.021-0.275-7.479v-12.84h5.176V55.784L184.65,55.784z"/>
	</g>
</g>
<g>
	<path fill="#555555" d="M187.677,19.235c0.191-0.618,0.48-1.158,0.864-1.62c0.384-0.462,0.866-0.822,1.447-1.08
		c0.582-0.258,1.253-0.387,2.009-0.387c0.576,0,1.125,0.09,1.646,0.27c0.522,0.18,0.981,0.438,1.377,0.774
		c0.396,0.336,0.711,0.75,0.945,1.242c0.234,0.492,0.352,1.044,0.352,1.656c0,0.636-0.103,1.182-0.307,1.638
		c-0.203,0.456-0.475,0.861-0.811,1.215s-0.717,0.675-1.143,0.963c-0.427,0.288-0.855,0.573-1.287,0.854
		c-0.433,0.282-0.853,0.585-1.261,0.909c-0.407,0.324-0.768,0.702-1.079,1.134h5.957V29h-9.252c0-0.732,0.104-1.368,0.315-1.908
		c0.209-0.54,0.493-1.022,0.854-1.449c0.359-0.426,0.782-0.819,1.269-1.179c0.485-0.36,1-0.726,1.538-1.098
		c0.277-0.192,0.57-0.387,0.884-0.585c0.312-0.198,0.597-0.417,0.854-0.657s0.474-0.51,0.647-0.81
		c0.174-0.3,0.261-0.642,0.261-1.026c0-0.612-0.178-1.089-0.531-1.431c-0.354-0.342-0.807-0.513-1.358-0.513
		c-0.371,0-0.687,0.087-0.944,0.261c-0.259,0.174-0.466,0.402-0.621,0.684c-0.154,0.282-0.267,0.594-0.332,0.936
		c-0.066,0.342-0.101,0.681-0.101,1.017h-2.447C187.4,20.522,187.484,19.853,187.677,19.235z"/>
</g>
</svg>
