<?xml version="1.0" encoding="utf-8"?>
<!-- Generator: Adobe Illustrator 15.0.0, SVG Export Plug-In . SVG Version: 6.00 Build 0)  -->
<!DOCTYPE svg PUBLIC "-//W3C//DTD SVG 1.1//EN" "http://www.w3.org/Graphics/SVG/1.1/DTD/svg11.dtd">
<svg version="1.1" id="Layer_1" xmlns="http://www.w3.org/2000/svg" xmlns:xlink="http://www.w3.org/1999/xlink" x="0px" y="0px"
	 width="240px" height="80px" viewBox="0 0 240 80" enable-background="new 0 0 240 80" xml:space="preserve">
<g id="guides" display="none">
</g>
<g enable-background="new    ">
	<path fill="#555555" d="M56.321,40.627c0,4.466-1.271,7.887-3.813,10.262s-6.213,3.562-11.012,3.562h-7.682V27.323h8.517
		c4.428,0,7.867,1.169,10.316,3.507C55.096,33.168,56.321,36.434,56.321,40.627z M50.347,40.775c0-5.826-2.573-8.739-7.719-8.739
		h-3.062V49.7h2.468C47.576,49.7,50.347,46.727,50.347,40.775z"/>
	<path fill="#555555" d="M77.566,54.45H61.943V27.323h15.623v4.713h-9.871v5.956h9.185v4.713h-9.185V49.7h9.871V54.45z"/>
	<path fill="#555555" d="M99.238,46.917c0,2.449-0.881,4.379-2.644,5.789c-1.763,1.41-4.215,2.114-7.357,2.114
		c-2.895,0-5.455-0.543-7.682-1.633v-5.345c1.831,0.816,3.38,1.394,4.648,1.728s2.427,0.5,3.479,0.5c1.262,0,2.229-0.24,2.904-0.723
		c0.674-0.482,1.011-1.199,1.011-2.152c0-0.531-0.148-1.006-0.445-1.42c-0.297-0.414-0.733-0.812-1.308-1.196
		c-0.575-0.384-1.748-0.995-3.516-1.837c-1.658-0.779-2.901-1.527-3.729-2.245c-0.829-0.717-1.491-1.552-1.985-2.505
		c-0.495-0.952-0.742-2.065-0.742-3.34c0-2.399,0.813-4.286,2.44-5.659c1.626-1.373,3.875-2.06,6.745-2.06
		c1.41,0,2.755,0.167,4.036,0.501c1.281,0.334,2.619,0.804,4.017,1.41l-1.855,4.472c-1.447-0.594-2.644-1.008-3.59-1.243
		c-0.946-0.234-1.877-0.353-2.792-0.353c-1.089,0-1.924,0.254-2.505,0.761c-0.582,0.508-0.872,1.169-0.872,1.985
		c0,0.508,0.117,0.949,0.353,1.327c0.235,0.377,0.609,0.742,1.123,1.094c0.513,0.354,1.729,0.987,3.646,1.902
		c2.536,1.213,4.273,2.428,5.214,3.646C98.768,43.654,99.238,45.148,99.238,46.917z"/>
	<path fill="#555555" d="M104.155,54.45V27.323h5.752V54.45H104.155z"/>
	<path fill="#555555" d="M127.033,39.217h10.762v14.064c-1.744,0.568-3.387,0.968-4.926,1.195c-1.541,0.229-3.115,0.344-4.723,0.344
		c-4.097,0-7.223-1.202-9.379-3.608c-2.159-2.405-3.238-5.858-3.238-10.362c0-4.377,1.252-7.792,3.757-10.242
		c2.504-2.449,5.978-3.674,10.418-3.674c2.782,0,5.467,0.557,8.053,1.67l-1.911,4.602c-1.979-0.989-4.039-1.484-6.179-1.484
		c-2.485,0-4.479,0.835-5.976,2.505c-1.498,1.67-2.244,3.915-2.244,6.735c0,2.944,0.603,5.192,1.81,6.745
		c1.205,1.552,2.959,2.328,5.261,2.328c1.198,0,2.418-0.123,3.654-0.371v-5.659h-5.14L127.033,39.217L127.033,39.217z"/>
	<path fill="#555555" d="M168.316,54.45h-7.312l-11.801-20.521h-0.167c0.232,3.625,0.354,6.21,0.354,7.756V54.45h-5.141V27.323
		h7.255l11.782,20.317h0.13c-0.187-3.525-0.276-6.02-0.276-7.479v-12.84h5.176V54.45z"/>
	<path fill="#555555" d="M197.227,27.323v17.553c0,2.004-0.449,3.761-1.347,5.271c-0.896,1.511-2.192,2.666-3.887,3.471
		c-1.695,0.805-3.699,1.206-6.013,1.206c-3.487,0-6.196-0.896-8.127-2.683s-2.896-4.231-2.896-7.339V27.323h5.731V43.93
		c0,2.092,0.42,3.625,1.264,4.604c0.841,0.978,2.23,1.466,4.175,1.466c1.88,0,3.244-0.492,4.093-1.476
		c0.848-0.983,1.271-2.525,1.271-4.631V27.323H197.227z"/>
	<path fill="#555555" d="M219.881,46.917c0,2.449-0.882,4.379-2.645,5.789c-1.764,1.41-4.215,2.114-7.356,2.114
		c-2.896,0-5.455-0.543-7.683-1.633v-5.345c1.83,0.816,3.381,1.394,4.648,1.728c1.266,0.334,2.428,0.5,3.479,0.5
		c1.262,0,2.229-0.24,2.902-0.723c0.674-0.483,1.012-1.199,1.012-2.152c0-0.531-0.147-1.006-0.444-1.42s-0.731-0.812-1.31-1.196
		c-0.574-0.384-1.748-0.995-3.516-1.837c-1.658-0.779-2.902-1.527-3.729-2.245c-0.829-0.717-1.491-1.552-1.985-2.505
		c-0.494-0.952-0.741-2.065-0.741-3.34c0-2.399,0.812-4.286,2.439-5.659c1.626-1.373,3.874-2.06,6.744-2.06
		c1.408,0,2.756,0.167,4.033,0.501c1.281,0.334,2.619,0.804,4.02,1.41l-1.854,4.472c-1.447-0.594-2.646-1.008-3.59-1.243
		c-0.947-0.234-1.88-0.353-2.793-0.353c-1.091,0-1.926,0.254-2.507,0.761c-0.582,0.508-0.871,1.169-0.871,1.985
		c0,0.508,0.116,0.949,0.353,1.327c0.234,0.377,0.609,0.742,1.123,1.094c0.514,0.354,1.729,0.987,3.646,1.902
		c2.535,1.213,4.272,2.428,5.214,3.646C219.41,43.654,219.881,45.148,219.881,46.917z"/>
</g>
<g enable-background="new    ">
	<path fill="#555555" d="M19.1,21.584l4,1.32v-4.2h3.919v4.16l3.959-1.28l1.24,3.72l-3.959,1.319l2.439,3.359l-3.16,2.32
		l-2.479-3.359l-2.439,3.359l-3.199-2.28l2.439-3.399l-3.96-1.279L19.1,21.584z"/>
</g>
</svg>
