<?xml version="1.0" encoding="utf-8"?>
<!-- Generator: Adobe Illustrator 15.0.0, SVG Export Plug-In . SVG Version: 6.00 Build 0)  -->
<!DOCTYPE svg PUBLIC "-//W3C//DTD SVG 1.1//EN" "http://www.w3.org/Graphics/SVG/1.1/DTD/svg11.dtd">
<svg version="1.1" id="Layer_1" xmlns="http://www.w3.org/2000/svg" xmlns:xlink="http://www.w3.org/1999/xlink" x="0px" y="0px"
	 width="240px" height="80px" viewBox="0 0 240 80" enable-background="new 0 0 240 80" xml:space="preserve">
<g id="guides" display="none">
</g>
<polygon fill="#CCCCCC" points="168.064,70.498 156.49,58.924 168.064,58.924 "/>
<path fill="#CCCCCC" d="M174.333,59.408H61V9.25h113.333V59.408L174.333,59.408z M72.535,33.632v-6.667h6.637v-3.982h-6.637V19.49
	h8.83v-4.039H67.629v18.18L72.535,33.632L72.535,33.632z M100.785,15.452h-5.396l-3.665,5.107l-3.665-5.107h-5.743l6.464,8.887
	l-6.983,9.293h5.396l4.155-5.801l4.214,5.801h5.742l-6.984-9.581L100.785,15.452z M116.339,15.452h-4.414l-3.003,11.398h-0.114
	l-2.886-11.398h-4.907l4.762,18.18h5.138l3.029-11.486h0.116l3.029,11.486h5.224l4.764-18.18h-4.733l-2.887,11.398h-0.115
	L116.339,15.452z"/>
<g enable-background="new    ">
	<path fill="#8E8E8E" d="M71.385,43.087l-0.514-1.688h-2.586l-0.514,1.688h-1.62l2.503-7.121h1.838l2.513,7.121H71.385z
		 M70.512,40.138c-0.476-1.53-0.743-2.396-0.803-2.596s-0.103-0.359-0.128-0.476c-0.106,0.414-0.412,1.438-0.917,3.071
		L70.512,40.138L70.512,40.138z"/>
	<path fill="#8E8E8E" d="M80.806,43.087h-1.712l-0.961-3.726c-0.036-0.133-0.096-0.406-0.182-0.822s-0.135-0.694-0.148-0.837
		c-0.02,0.175-0.068,0.455-0.146,0.842c-0.078,0.387-0.138,0.662-0.18,0.827l-0.956,3.716h-1.708l-1.81-7.093h1.479l0.907,3.872
		c0.159,0.714,0.273,1.334,0.344,1.856c0.02-0.185,0.064-0.47,0.134-0.855c0.069-0.386,0.135-0.687,0.196-0.899l1.033-3.974h1.421
		l1.033,3.974c0.045,0.178,0.102,0.449,0.17,0.814c0.068,0.366,0.12,0.68,0.155,0.94c0.032-0.252,0.084-0.565,0.155-0.943
		c0.071-0.376,0.136-0.681,0.194-0.913l0.902-3.872h1.479L80.806,43.087z"/>
	<path fill="#8E8E8E" d="M87.845,43.087l-0.514-1.688h-2.586l-0.514,1.688h-1.62l2.503-7.121h1.838l2.513,7.121H87.845z
		 M86.972,40.138c-0.476-1.53-0.743-2.396-0.803-2.596s-0.103-0.359-0.128-0.476c-0.106,0.414-0.412,1.438-0.917,3.071
		L86.972,40.138L86.972,40.138z"/>
	<path fill="#8E8E8E" d="M91.861,40.365v2.722h-1.504v-7.093h2.066c0.964,0,1.677,0.176,2.14,0.526
		c0.462,0.352,0.694,0.884,0.694,1.599c0,0.417-0.115,0.788-0.345,1.113c-0.23,0.325-0.555,0.58-0.975,0.765
		c1.067,1.594,1.763,2.624,2.086,3.09h-1.668l-1.693-2.722H91.861z M91.861,39.143h0.485c0.476,0,0.827-0.079,1.053-0.237
		c0.227-0.158,0.34-0.407,0.34-0.747c0-0.336-0.116-0.575-0.347-0.718s-0.589-0.214-1.074-0.214h-0.456L91.861,39.143L91.861,39.143
		z"/>
	<path fill="#8E8E8E" d="M102.8,39.473c0,1.167-0.332,2.062-0.997,2.683c-0.665,0.621-1.625,0.932-2.879,0.932h-2.008v-7.093h2.227
		c1.158,0,2.057,0.306,2.697,0.917C102.48,37.522,102.8,38.377,102.8,39.473z M101.238,39.512c0-1.523-0.672-2.285-2.018-2.285h-0.8
		v4.619h0.645C100.514,41.846,101.238,41.066,101.238,39.512z"/>
	<path fill="#8E8E8E" d="M108.457,41.117c0,0.641-0.23,1.146-0.691,1.514c-0.461,0.369-1.102,0.553-1.923,0.553
		c-0.757,0-1.426-0.142-2.008-0.427v-1.397c0.479,0.214,0.884,0.363,1.215,0.451s0.634,0.131,0.909,0.131
		c0.33,0,0.583-0.062,0.759-0.188c0.176-0.126,0.265-0.313,0.265-0.562c0-0.141-0.039-0.264-0.117-0.371
		c-0.078-0.108-0.191-0.213-0.342-0.313c-0.15-0.1-0.457-0.26-0.919-0.48c-0.433-0.203-0.758-0.398-0.975-0.587
		c-0.217-0.188-0.39-0.405-0.519-0.654c-0.129-0.249-0.194-0.54-0.194-0.873c0-0.628,0.212-1.121,0.638-1.479
		c0.425-0.359,1.013-0.539,1.764-0.539c0.369,0,0.72,0.044,1.055,0.131c0.334,0.088,0.685,0.211,1.05,0.369l-0.485,1.169
		c-0.378-0.155-0.691-0.264-0.938-0.325c-0.248-0.062-0.491-0.092-0.73-0.092c-0.285,0-0.503,0.066-0.655,0.198
		c-0.152,0.133-0.228,0.306-0.228,0.52c0,0.133,0.031,0.248,0.092,0.347s0.159,0.194,0.293,0.286
		c0.134,0.093,0.452,0.258,0.953,0.497c0.663,0.317,1.118,0.635,1.363,0.954C108.334,40.265,108.457,40.654,108.457,41.117z"/>
</g>
</svg>
