<?xml version="1.0" encoding="utf-8"?>
<!-- Generator: Adobe Illustrator 15.0.0, SVG Export Plug-In . SVG Version: 6.00 Build 0)  -->
<!DOCTYPE svg PUBLIC "-//W3C//DTD SVG 1.1//EN" "http://www.w3.org/Graphics/SVG/1.1/DTD/svg11.dtd">
<svg version="1.1" id="Layer_1" xmlns="http://www.w3.org/2000/svg" xmlns:xlink="http://www.w3.org/1999/xlink" x="0px" y="0px"
	 width="240px" height="80px" viewBox="0 0 240 80" enable-background="new 0 0 240 80" xml:space="preserve">
<g id="guides" display="none">
</g>
<g>
	<path fill="#555555" d="M73.953,27.54h-9.743v6.719h9.399v3.966h-9.399v13.311h-4.22V23.574h13.963V27.54z"/>
	<path fill="#555555" d="M77.701,33.896h4.074v1.576c0.749-0.785,1.413-1.322,1.992-1.612c0.591-0.302,1.292-0.453,2.101-0.453
		c1.075,0,2.197,0.351,3.369,1.051l-1.865,3.73c-0.773-0.555-1.527-0.833-2.264-0.833c-2.222,0-3.333,1.678-3.333,5.034v9.146
		h-4.074V33.896z"/>
	<path fill="#555555" d="M90.414,42.589c0-2.547,0.912-4.714,2.735-6.501c1.823-1.787,4.044-2.681,6.664-2.681
		c2.632,0,4.865,0.9,6.701,2.699c1.811,1.799,2.716,4.008,2.716,6.627c0,2.645-0.912,4.86-2.734,6.646
		c-1.835,1.775-4.087,2.662-6.755,2.662c-2.644,0-4.859-0.905-6.646-2.716C91.307,47.539,90.414,45.294,90.414,42.589z
		 M94.579,42.661c0,1.763,0.471,3.157,1.413,4.184c0.966,1.038,2.239,1.558,3.821,1.558c1.594,0,2.868-0.513,3.821-1.539
		s1.431-2.396,1.431-4.111c0-1.714-0.477-3.085-1.431-4.111c-0.966-1.038-2.24-1.558-3.821-1.558c-1.557,0-2.819,0.52-3.785,1.558
		C95.062,39.68,94.579,41.02,94.579,42.661z"/>
	<path fill="#555555" d="M112.707,42.589c0-2.547,0.912-4.714,2.735-6.501c1.823-1.787,4.044-2.681,6.665-2.681
		c2.631,0,4.865,0.9,6.699,2.699c1.812,1.799,2.717,4.008,2.717,6.627c0,2.645-0.912,4.86-2.734,6.646
		c-1.836,1.775-4.086,2.662-6.754,2.662c-2.645,0-4.86-0.905-6.647-2.716C113.6,47.539,112.707,45.294,112.707,42.589z
		 M116.872,42.661c0,1.763,0.471,3.157,1.413,4.184c0.966,1.038,2.239,1.558,3.822,1.558c1.594,0,2.867-0.513,3.82-1.539
		s1.432-2.396,1.432-4.111c0-1.714-0.479-3.085-1.432-4.111c-0.967-1.038-2.24-1.558-3.82-1.558c-1.559,0-2.82,0.52-3.786,1.558
		C117.354,39.68,116.872,41.02,116.872,42.661z"/>
	<path fill="#555555" d="M152.893,51.118c0,0.834-0.027,1.567-0.081,2.201c-0.055,0.634-0.13,1.191-0.227,1.675
		c-0.29,1.328-0.857,2.469-1.702,3.423c-1.594,1.835-3.785,2.753-6.574,2.753c-2.354,0-4.292-0.635-5.813-1.902
		c-1.569-1.304-2.475-3.108-2.716-5.414h4.093c0.156,0.869,0.416,1.539,0.778,2.01c0.845,1.099,2.076,1.648,3.694,1.648
		c2.982,0,4.474-1.829,4.474-5.487v-2.463c-1.618,1.654-3.483,2.48-5.597,2.48c-2.402,0-4.37-0.869-5.903-2.607
		c-1.546-1.763-2.318-3.966-2.318-6.61c0-2.571,0.719-4.756,2.155-6.556c1.545-1.907,3.586-2.861,6.121-2.861
		c2.222,0,4.068,0.827,5.542,2.481v-1.992h4.074V51.118z M148.98,42.752c0-1.714-0.459-3.085-1.376-4.111
		c-0.93-1.05-2.119-1.576-3.567-1.576c-1.546,0-2.765,0.574-3.658,1.721c-0.81,1.026-1.214,2.354-1.214,3.984
		c0,1.605,0.404,2.922,1.214,3.947c0.881,1.123,2.101,1.685,3.658,1.685s2.789-0.567,3.694-1.702
		C148.564,45.674,148.98,44.357,148.98,42.752z"/>
	<path fill="#555555" d="M162.11,20.948v30.587h-4.075V20.948H162.11z"/>
	<path fill="#555555" d="M183.334,43.676h-12.641c0.108,1.448,0.58,2.602,1.413,3.459c0.833,0.845,1.901,1.268,3.205,1.268
		c1.014,0,1.854-0.241,2.518-0.725c0.651-0.482,1.394-1.376,2.228-2.68l3.44,1.919c-0.531,0.905-1.093,1.682-1.685,2.327
		c-0.592,0.646-1.226,1.178-1.901,1.594c-0.676,0.417-1.406,0.722-2.191,0.915c-0.784,0.192-1.636,0.289-2.553,0.289
		c-2.633,0-4.745-0.845-6.339-2.535c-1.594-1.702-2.391-3.96-2.391-6.773c0-2.788,0.772-5.046,2.318-6.772
		c1.558-1.702,3.622-2.554,6.193-2.554c2.596,0,4.648,0.827,6.157,2.481c1.497,1.642,2.246,3.918,2.246,6.827L183.334,43.676z
		 M179.15,40.344c-0.567-2.173-1.938-3.26-4.11-3.26c-0.495,0-0.96,0.076-1.395,0.227s-0.83,0.369-1.187,0.652
		c-0.356,0.284-0.661,0.625-0.914,1.023c-0.254,0.398-0.447,0.851-0.58,1.358H179.15z"/>
</g>
</svg>
