<?xml version="1.0" encoding="utf-8"?>
<!-- Generator: Adobe Illustrator 15.0.0, SVG Export Plug-In . SVG Version: 6.00 Build 0)  -->
<!DOCTYPE svg PUBLIC "-//W3C//DTD SVG 1.1//EN" "http://www.w3.org/Graphics/SVG/1.1/DTD/svg11.dtd">
<svg version="1.1" id="Layer_1" xmlns="http://www.w3.org/2000/svg" xmlns:xlink="http://www.w3.org/1999/xlink" x="0px" y="0px"
	 width="240px" height="80px" viewBox="0 0 240 80" enable-background="new 0 0 240 80" xml:space="preserve">
<g id="guides" display="none">
</g>
<g>
	<g>
		<path fill="#555555" d="M102.626,52.507h5.34L97.762,26.533h-4.098L83.422,52.507h5.341l2.377-6.476h9.109L102.626,52.507z
			 M91.981,42.483l3.731-10.499l3.621,10.499H91.981z M112.631,48.501c1.084,1.256,2.377,2.274,3.877,3.055
			c1.5,0.78,3.151,1.171,4.956,1.171c1.024,0,2.062-0.135,3.109-0.403c1.049-0.269,2.049-0.658,3-1.171
			c0.951-0.512,1.798-1.141,2.543-1.884c0.743-0.743,1.311-1.604,1.7-2.578l-4.134-2.379c-0.292,0.709-0.67,1.312-1.134,1.812
			c-0.463,0.5-0.97,0.908-1.517,1.225c-0.549,0.317-1.115,0.549-1.701,0.694s-1.158,0.219-1.719,0.219
			c-1.073,0-2.061-0.243-2.963-0.73c-0.902-0.486-1.677-1.134-2.322-1.937c-0.647-0.806-1.148-1.738-1.5-2.8
			c-0.354-1.061-0.53-2.165-0.53-3.311c0-1.024,0.152-2.055,0.457-3.092c0.305-1.036,0.756-1.963,1.354-2.78
			s1.347-1.482,2.249-1.994c0.901-0.513,1.952-0.769,3.146-0.769c0.536,0,1.098,0.068,1.683,0.202
			c0.586,0.134,1.152,0.348,1.701,0.64c0.549,0.293,1.054,0.689,1.518,1.189c0.463,0.5,0.842,1.115,1.135,1.848l3.877-2.671
			c-0.804-1.682-2.056-3.049-3.75-4.097c-1.693-1.048-3.701-1.574-6.016-1.574c-1.976,0-3.732,0.378-5.268,1.134
			c-1.537,0.756-2.835,1.744-3.896,2.963c-1.061,1.219-1.872,2.603-2.432,4.152c-0.562,1.548-0.842,3.115-0.842,4.7
			c0,1.659,0.299,3.286,0.897,4.884C110.704,45.818,111.545,47.245,112.631,48.501z M142.865,26.533l-10.244,25.974h5.342
			l2.378-6.476h9.108l2.379,6.476h5.34l-10.207-25.974H142.865z M141.183,42.483l3.733-10.499l3.619,10.499H141.183z
			 M190.311,26.533l-7.353,20.193l-3.293-8.304l4.427-11.816h-4.683l-2.927,8.597l-2.926-8.597h-4.646l4.354,11.816l-3.219,8.304
			l-7.391-20.193h-5.449l10.537,25.974h4.242l4.499-10.901l4.499,10.901h4.244l10.572-25.974H190.311z M83.598,52.508L73.026,26.534
			h-4.243l-4.5,10.901l-4.499-10.901h-4.243L45.005,52.508h5.45l7.389-20.194l3.219,8.304L56.71,52.435h4.647l2.925-8.599
			l2.927,8.599h4.682l-4.427-11.817l3.293-8.304l7.352,20.194H83.598z"/>
	</g>
</g>
</svg>
