<?xml version="1.0" encoding="utf-8"?>
<!-- Generator: Adobe Illustrator 15.0.0, SVG Export Plug-In . SVG Version: 6.00 Build 0)  -->
<!DOCTYPE svg PUBLIC "-//W3C//DTD SVG 1.1//EN" "http://www.w3.org/Graphics/SVG/1.1/DTD/svg11.dtd">
<svg version="1.1" id="Layer_1" xmlns="http://www.w3.org/2000/svg" xmlns:xlink="http://www.w3.org/1999/xlink" x="0px" y="0px"
	 width="240px" height="80px" viewBox="0 0 240 80" enable-background="new 0 0 240 80" xml:space="preserve">
<g id="Layer_3">
</g>
<g id="Meat" display="none">
	<text transform="matrix(1 0 0 1 53.5811 110.042)" display="inline" font-family="'MEAT_BOLD'" font-size="58.4884">MEAT</text>
</g>
<g id="Layer_2">
	<g>
		<g>
			<path fill="#555555" d="M101.539,22.62v35.241h5.152v0.412H84.845v-0.412h5.152V23.547L77.683,58.273H77.22
				c-0.688,0-1.451-0.575-2.292-1.727c-0.842-1.15-1.726-2.645-2.654-4.482c-0.927-1.838-1.898-3.906-2.911-6.209
				c-1.014-2.301-2.035-4.592-3.066-6.877c-1.03-2.285-2.061-4.457-3.091-6.519c-1.03-2.062-2.027-3.778-2.988-5.151v28.078
				c0,0.688,0.24,1.271,0.721,1.752c0.481,0.481,1.064,0.723,1.752,0.723h3.503v0.412H53.88v-0.412h3.452
				c0.687,0,1.271-0.24,1.752-0.723c0.48-0.479,0.721-1.063,0.721-1.752V26.742c-0.309-0.377-0.61-0.721-0.902-1.03
				s-0.576-0.567-0.85-0.772c-0.859-0.584-1.657-1.039-2.396-1.365c-0.739-0.326-1.399-0.559-1.984-0.696
				c-0.652-0.137-1.253-0.224-1.803-0.257v-0.412h9.996c0.927,0.035,1.872,0.154,2.833,0.359c0.825,0.173,1.734,0.474,2.731,0.902
				c0.996,0.43,1.975,1.022,2.937,1.777c0.961,0.859,1.855,1.924,2.679,3.193c0.825,1.271,1.597,2.629,2.319,4.07
				c0.721,1.443,1.382,2.903,1.983,4.381c0.601,1.477,1.15,2.858,1.649,4.146c0.498,1.288,0.953,2.421,1.365,3.4
				c0.412,0.979,0.773,1.656,1.082,2.035l8.604-24.268h16.642v0.412L101.539,22.62L101.539,22.62z"/>
			<path fill="#555555" d="M133.02,33.749c1.441,0.927,2.67,2.327,3.685,4.199c1.012,1.872,1.521,4.147,1.521,6.825
				c0,2.681-0.509,4.965-1.521,6.854c-1.015,1.891-2.242,3.28-3.685,4.174c-1.1,0.721-2.035,1.271-2.809,1.648
				s-1.494,0.66-2.164,0.85s-1.34,0.301-2.01,0.335s-1.467,0.052-2.395,0.052h-0.517c-0.928,0-1.744-0.018-2.446-0.052
				c-0.706-0.034-1.417-0.146-2.14-0.335c-0.721-0.188-1.486-0.472-2.292-0.85c-0.808-0.379-1.761-0.928-2.86-1.648
				c-1.442-0.894-2.671-2.283-3.684-4.174c-1.014-1.889-1.52-4.173-1.52-6.854c0-2.678,0.506-4.953,1.52-6.825
				c1.013-1.872,2.241-3.272,3.684-4.199c1.099-0.722,2.043-1.271,2.834-1.649c0.79-0.377,1.52-0.66,2.19-0.85
				c0.669-0.188,1.339-0.3,2.009-0.335c0.67-0.034,1.47-0.051,2.396-0.051h0.824c0.928,0,1.726,0.018,2.396,0.051
				c0.67,0.035,1.34,0.146,2.01,0.335s1.392,0.473,2.164,0.85C130.984,32.479,131.92,33.027,133.02,33.749z M126.115,56.729
				c0.309-0.445,0.566-1.074,0.773-1.881c0.204-0.808,0.366-1.733,0.487-2.783c0.121-1.047,0.197-2.188,0.231-3.426
				c0.033-1.236,0.052-2.523,0.052-3.863s-0.025-2.627-0.076-3.864c-0.054-1.236-0.14-2.378-0.258-3.427
				c-0.121-1.047-0.302-1.965-0.541-2.756c-0.24-0.789-0.552-1.391-0.929-1.803c-0.756-0.824-1.332-1.305-1.727-1.443
				c-0.395-0.137-0.695-0.205-0.9-0.205c-0.207,0-0.516,0.068-0.928,0.205c-0.412,0.139-0.979,0.619-1.701,1.443
				c-0.377,0.412-0.687,1.014-0.927,1.803c-0.241,0.791-0.43,1.709-0.567,2.756c-0.138,1.049-0.224,2.19-0.258,3.427
				c-0.034,1.237-0.051,2.524-0.051,3.864s0.017,2.627,0.051,3.863c0.034,1.236,0.12,2.379,0.258,3.426
				c0.137,1.05,0.326,1.968,0.567,2.758c0.24,0.791,0.549,1.408,0.927,1.854c0.48,0.516,0.971,0.911,1.469,1.186
				c0.498,0.275,0.886,0.412,1.16,0.412h0.412C124.57,58.273,125.395,57.758,126.115,56.729z"/>
			<path fill="#555555" d="M173.723,58.273h-4.535c-1.684,0-3.101-0.197-4.25-0.594c-1.151-0.395-2.088-0.943-2.809-1.647
				c-0.722-0.704-1.236-1.521-1.546-2.447c-0.31-0.928-0.464-1.924-0.464-2.987V36.273c0-0.688-0.077-1.373-0.23-2.062
				c-0.156-0.687-0.423-1.288-0.8-1.804c-0.206-0.24-0.473-0.403-0.799-0.489c-0.327-0.085-0.644-0.129-0.953-0.129
				s-0.603,0.095-0.876,0.284c-0.275,0.189-0.533,0.421-0.771,0.695c-0.311,0.309-0.567,0.738-0.773,1.287
				c-0.206,0.551-0.387,1.144-0.541,1.777c-0.154,0.637-0.268,1.264-0.335,1.881c-0.067,0.618-0.103,1.133-0.103,1.545v18.6h3.863
				v0.412h-18.238v-0.412h3.863V32.049h-3.916v-0.412c0.963,0,2.131-0.017,3.504-0.052c1.373-0.034,2.747-0.094,4.122-0.181
				c1.373-0.084,2.671-0.196,3.89-0.334c1.22-0.137,2.189-0.31,2.912-0.516v3.916c0.273-0.582,0.565-1.063,0.875-1.441
				c0.31-0.379,0.722-0.756,1.236-1.135c0.824-0.687,1.691-1.185,2.602-1.494c0.912-0.309,1.881-0.463,2.912-0.463
				c1.029,0,2.129,0.086,3.297,0.258s2.197,0.55,3.092,1.134c0.894,0.584,1.58,1.392,2.062,2.421
				c0.17,0.378,0.316,0.766,0.438,1.159c0.119,0.396,0.181,0.799,0.181,1.211v15.147c0,2.025,0.231,3.631,0.695,4.816
				s1.263,1.777,2.396,1.777V58.273L173.723,58.273z"/>
			<path fill="#555555" d="M187.734,54.1c0.344,0.928,0.791,1.676,1.341,2.242c0.549,0.566,1.134,0.963,1.752,1.186
				c0.618,0.224,1.219,0.334,1.803,0.334v0.412h-5.771c-1.684,0-3.108-0.119-4.276-0.359s-2.112-0.652-2.833-1.237
				c-0.723-0.583-1.236-1.364-1.546-2.344s-0.464-2.224-0.464-3.735v-1.082V32.049h-3.864v-0.412h1.647
				c1.442,0,2.843-0.361,4.199-1.082s2.551-1.613,3.582-2.679c1.029-1.063,1.861-2.19,2.498-3.375
				c0.635-1.185,0.953-2.224,0.953-3.117h0.465v10.253h4.532v0.412h-4.532v18.496C187.221,51.986,187.393,53.173,187.734,54.1z"/>
		</g>
		<rect x="114.187" y="24.6" fill="#555555" width="18.208" height="2.654"/>
	</g>
</g>
<g id="Layer_4" display="none">
	<g display="inline">
		<g>
			<path fill="#333333" d="M93.163,98.85c0,0.773-0.5,6.28-6.372,6.28h-2.14c-5.872,0-6.372-5.507-6.372-6.28V78.913
				c0-0.774,0.5-6.282,6.372-6.282h2.14c5.872,0,6.372,5.508,6.372,6.282V98.85z M88.884,79.003
				c-0.046-0.364-0.137-0.729-0.273-1.047c-0.318-0.546-0.773-1.092-1.82-1.092h-2.14c-1.092,0-1.547,0.546-1.866,1.092
				c-0.136,0.317-0.228,0.683-0.273,1.047v19.754c0.045,0.409,0.137,0.772,0.273,1.093c0.319,0.547,0.774,1.047,1.866,1.047h2.14
				c1.047,0,1.502-0.5,1.82-1.047c0.137-0.318,0.228-0.684,0.273-1.093V79.003z"/>
			<path fill="#333333" d="M96.349,73.086c0-0.091,0.045-0.137,0.136-0.137h9.695c2.776,0.137,4.188,1.593,4.87,3.05
				c0.41,0.865,0.637,1.819,0.683,2.867v6.827c0,0.455-0.046,0.91-0.182,1.412c-0.182,0.865-0.501,1.82-1.184,2.73
				c-0.045,0.045-0.045,0.137,0,0.229c0.683,0.91,1.001,1.912,1.184,2.64c0.136,0.409,0.182,0.819,0.182,1.229v9.285
				c0,0.092,0.045,0.137,0.136,0.182l0.319,0.273c0.045,0.045,0.091,0.137,0.091,0.182v0.819c0,0.091-0.045,0.138-0.136,0.138
				h-4.506c-0.091,0-0.137-0.047-0.137-0.138V93.934c-0.045-0.365-0.136-0.729-0.273-1.048c-0.319-0.546-0.819-1.092-1.866-1.092
				h-2.094h-2.003c-0.091,0-0.136,0.045-0.136,0.138v11.287c0,0.045,0.045,0.137,0.091,0.182l0.319,0.273
				c0.091,0.045,0.136,0.137,0.136,0.182v0.819c0,0.091-0.045,0.138-0.136,0.138h-5.053c-0.091,0-0.136-0.047-0.136-0.138v-0.819
				c0-0.045,0.045-0.137,0.091-0.182l0.319-0.273c0.091-0.045,0.136-0.09,0.136-0.182v-28.63c0-0.091-0.045-0.182-0.136-0.228
				l-0.319-0.229c-0.045-0.046-0.091-0.137-0.091-0.228V73.086z M105.361,87.833c1.047,0,1.547-0.5,1.866-1.047
				c0.137-0.318,0.228-0.683,0.273-1.093v-7.282c-0.045-0.228-0.091-0.41-0.228-0.593c-0.228-0.317-0.546-0.637-1.411-0.637h-4.597
				c-0.091,0-0.136,0.045-0.136,0.137v10.379c0,0.091,0.045,0.136,0.136,0.136h2.003H105.361z"/>
			<path fill="#333333" d="M115.01,78.775c0.136-1.137,0.728-6.145,6.373-6.145h2.094c5.963,0,6.373,5.508,6.373,6.282v4.87
				c0,0.091-0.047,0.137-0.138,0.137h-4.097h-0.409c-0.091,0-0.138-0.046-0.138-0.137v-0.819c0-0.091,0.047-0.182,0.138-0.228
				l0.317-0.229c0.047-0.045,0.092-0.137,0.092-0.228v-3.277c-0.045-0.364-0.137-0.729-0.272-1.047
				c-0.319-0.546-0.819-1.092-1.866-1.092h-2.094c-1.093,0-1.548,0.546-1.867,1.092c-0.136,0.317-0.228,0.683-0.273,1.047v19.754
				c0.045,0.409,0.137,0.773,0.273,1.093c0.319,0.547,0.774,1.047,1.867,1.047h2.094c1.047,0,1.547-0.5,1.866-1.047
				c0.136-0.318,0.228-0.684,0.272-1.093V92.34c0-0.091-0.045-0.182-0.092-0.229l-0.363-0.637c-0.045-0.137-0.092-0.229-0.092-0.272
				v-1.048c0-0.137,0.047-0.182,0.138-0.09l0.409,0.182l4.097,2.048c0.091,0.046,0.138,0.138,0.138,0.228v6.373v0.272
				c-0.138,1.457-1.048,5.963-6.373,5.963h-2.094c-5.645,0-6.236-5.007-6.373-6.146V78.775z"/>
			<path fill="#333333" d="M143.867,73.086c0-0.091,0.046-0.137,0.137-0.137h5.053c0.092,0,0.137,0.045,0.137,0.137v0.818
				c0,0.092-0.045,0.183-0.092,0.229l-0.317,0.229c-0.091,0.045-0.138,0.136-0.138,0.228v28.584c0,0.138,0.047,0.183,0.138,0.228
				l0.317,0.229c0.047,0.046,0.092,0.137,0.092,0.229v0.818c0,0.092-0.045,0.137-0.137,0.137h-5.053
				c-0.091,0-0.137-0.045-0.137-0.137v-0.818c0-0.092,0.046-0.183,0.137-0.229l0.318-0.229c0.046-0.045,0.092-0.137,0.092-0.228
				V89.791c0-0.091-0.046-0.137-0.137-0.137h-6.101c-0.091,0-0.137,0.045-0.137,0.137v13.382c0,0.091,0.046,0.183,0.092,0.228
				l0.318,0.229c0.091,0.046,0.137,0.137,0.137,0.229v0.818c0,0.092-0.046,0.137-0.137,0.137h-5.054
				c-0.09,0-0.137-0.045-0.137-0.137v-0.818c0-0.092,0.047-0.183,0.092-0.229l0.318-0.229c0.091-0.045,0.137-0.09,0.137-0.228
				V74.588c0-0.091-0.046-0.182-0.137-0.229l-0.318-0.228c-0.045-0.046-0.092-0.137-0.092-0.228v-0.819
				c0-0.091,0.047-0.137,0.137-0.137h5.054c0.091,0,0.137,0.045,0.137,0.137v0.819c0,0.137-0.046,0.182-0.137,0.228l-0.318,0.228
				c-0.046,0.045-0.092,0.137-0.092,0.229v10.969c0,0.092,0.046,0.137,0.137,0.137h6.101c0.091,0,0.137-0.045,0.137-0.137V74.588
				c0-0.091-0.046-0.182-0.092-0.229l-0.318-0.228c-0.091-0.046-0.137-0.091-0.137-0.228V73.086z"/>
			<path fill="#333333" d="M169.13,104.675c0,0.091-0.046,0.138-0.137,0.138h-5.599c-0.092,0-0.138-0.047-0.138-0.138v-0.819
				c0-0.09,0.046-0.182,0.093-0.228l0.545-0.501c0.045-0.045,0.092-0.091,0.092-0.229l-0.592-2.912c0-0.092-0.045-0.137-0.138-0.137
				h-6.28c-0.092,0-0.138,0.045-0.138,0.137l-0.592,2.912c0,0.093,0.046,0.184,0.092,0.229l0.546,0.501
				c0.047,0.046,0.092,0.138,0.092,0.228v0.819c0,0.091-0.045,0.138-0.138,0.138h-5.599c-0.092,0-0.137-0.047-0.137-0.138v-0.819
				c0-0.045,0.045-0.09,0.092-0.228l0.683-0.501c0.046-0.045,0.091-0.091,0.138-0.229l5.963-29.812c0-0.091,0.045-0.137,0.136-0.137
				h4.006c0.091,0,0.137,0.045,0.137,0.137l5.964,29.812c0,0.047,0.045,0.093,0.137,0.184l0.683,0.546
				c0.045,0.138,0.091,0.183,0.091,0.228L169.13,104.675L169.13,104.675z M157.568,96.254c0,0.046,0.045,0.092,0.137,0.092h4.824
				c0.092,0,0.137-0.046,0.137-0.092l-2.503-12.562c-0.046-0.045-0.046-0.045-0.091,0L157.568,96.254z"/>
		</g>
		<rect x="61.512" y="64.223" fill="none" stroke="#333333" stroke-miterlimit="10" width="123.277" height="49.312"/>
	</g>
</g>
<g id="Layer_5" display="none">
	<g display="inline">
		<path fill="#333333" d="M71.708,87.672c5.052,1.73,4.871,6.646,4.871,6.646c0,8.877-9.104,9.285-11.244,9.285H54.958
			c-0.272,0-0.454-0.185-0.454-0.365V72.105c0-0.182,0.182-0.363,0.454-0.363h10.377c0,0,10.787-0.227,10.787,9.104
			C76.122,84.578,74.121,86.672,71.708,87.672z M60.557,84.713h4.778c0,0,4.689,0,4.689-3.504c0-3.823-4.689-3.777-4.689-3.777
			h-4.778V84.713z M70.479,94.18c0-3.775-5.144-3.502-5.144-3.502h-4.778v7.1h4.778C67.339,97.777,70.479,97.23,70.479,94.18z"/>
		<path fill="#333333" d="M79.265,103.604c-0.364,0-0.546-0.229-0.41-0.502L91.28,71.059c0.138-0.318,0.683-0.318,0.82,0
			l12.427,32.043c0.136,0.272-0.047,0.502-0.365,0.502H79.265L79.265,103.604z"/>
		<path fill="#333333" d="M132.275,111.949c-0.137,0-0.364-0.094-0.41-0.184L116.268,90.63h-2.229v12.606
			c0,0.183-0.182,0.365-0.455,0.365h-5.19c-0.272,0-0.455-0.184-0.455-0.365V85.077c0-0.183,0.182-0.365,0.455-0.365h4.233
			c-1.548-2.412-3.141-4.96-4.688-7.372v-5.234c0-0.183,0.182-0.364,0.455-0.364h10.379c0,0,10.833,0,10.833,9.422
			c0,5.598-3.597,7.829-6.692,8.784l15.782,21.455c0.18,0.271,0,0.546-0.32,0.546L132.275,111.949L132.275,111.949z M119.365,84.668
			c1.729-0.045,4.141-0.773,4.141-3.503c0-3.506-3.687-3.506-4.732-3.506h-3.824L119.365,84.668z"/>
		<path fill="#333333" d="M134.75,83.212c0-6.508,5.418-11.925,12.018-11.925c6.599,0,12.017,5.417,12.017,11.925
			c0,6.556-5.418,11.927-12.017,11.927C140.168,95.139,134.75,89.768,134.75,83.212z M157.371,103.238
			c0,0.182-0.182,0.365-0.455,0.365h-20.527c-0.271,0-0.455-0.185-0.455-0.365v-5.143c0-0.184,0.185-0.363,0.455-0.363h20.527
			c0.273,0,0.455,0.181,0.455,0.363V103.238L157.371,103.238z M140.805,83.212c0,3.415,2.686,6.054,5.963,6.054
			c3.32,0,5.961-2.639,5.961-6.054c0-3.366-2.641-6.052-5.961-6.052C143.488,77.16,140.805,79.846,140.805,83.212z"/>
		<path fill="#333333" d="M191.646,103.238c0,0.182-0.183,0.365-0.457,0.365h-5.232c-0.091,0-0.318-0.045-0.364-0.138
			l-14.655-20.983v20.754c0,0.183-0.183,0.365-0.453,0.365h-5.236c-0.227,0-0.408-0.184-0.408-0.365V72.105
			c0-0.182,0.182-0.363,0.408-0.363h5.279c0.092,0,0.32,0.045,0.363,0.137l14.702,20.982V72.105c0-0.182,0.183-0.363,0.455-0.363
			h5.144c0.273,0,0.455,0.182,0.455,0.363V103.238L191.646,103.238z"/>
	</g>
</g>
<g id="Layer_6" display="none">
	<text transform="matrix(1 0 0 1 86.5029 104.2178)" display="inline" font-family="'BebasNeue'" font-size="37.5">MVMO</text>
	<g display="inline">
		<path fill="#333333" d="M89.599,97.627c-1.715,2.673-5.189,5.768-7.873,4.373c-2.004-1.04,0.731-6.166,1.769-8.242
			c1.037-2.074,4.958-7.497,7.724-6.39c2.766,1.106-1.151,9.149-10.222,8.429c-0.312,0.258-0.004,0.688-0.004,0.688
			s6.518,0.931,10.309-3.812c3.792-4.743,0.922-6.123,0.182-6.521c-0.741-0.398-8.216-0.512-11.991,6.8
			c-2.228,4.319-0.593,8.953,1.871,9.718c1.847,0.576,5.342,0.557,8.732-4.719c0,0,0.149-0.295-0.071-0.445
			C89.803,97.357,89.599,97.627,89.599,97.627z"/>
		<path fill="#333333" d="M100.238,90.837c-0.259,1.59-13.57,27.604-13.57,27.604c-0.113,0.229-0.297,0.279-0.548,0.172
			c-0.25-0.108-2.267-2.834-2.385-3.235c-0.118-0.397,0.025-0.672,0.07-0.755c0.047-0.086,12.711-25.703,12.903-26.223
			c0.38-1.017,0.28-1.967-0.237-2.89c0,0-0.092-0.403,0.315-0.399C97.191,85.116,100.728,87.839,100.238,90.837z"/>
		<path fill="#333333" d="M95.714,98.512c0,0,8.086-11.375,11.897-12.41c3.66-0.994,3.931,1.955,3.982,2.418
			c0.051,0.447,0.553,3.187-1.809,7.571c-2.359,4.384-7.628,9.017-10.847,7.765c-2.993-1.16,0.84-5.016,2.596-6.408
			c1.478-1.178,4.351-2.249,6.994-2.744c4.05-0.762,9.465-2.208,12.269-3.969c2.104-1.317,3.056-4.045,1.959-4.387
			c-0.944-0.293-3.787,2.227-5.355,4.985c-2.589,4.553-3.482,7.763-2.086,7.841c1.395,0.081,7.911-5.015,8.404-5.771l0.204,0.668
			c0,0-6.54,5.718-8.783,6.179c-2.245,0.463-2.973-2.174-3.089-4.032c-0.116-1.859,1.39-5.968,3.767-8.183
			c2.957-2.757,5.924-3.001,6.966-2.675c2.308,0.72,0.93,4.277-1.523,5.781c-2.096,1.286-6.147,2.94-12.763,4.172
			c-2.171,0.403-4.94,1.308-6.624,2.645c-1.583,1.256-3.83,4.22-2.667,4.6c1.163,0.377,12.122-14.31,8.624-15.146
			c-3.206-0.768-12.671,13.328-12.671,13.328L95.714,98.512z"/>
		<path fill="#333333" d="M92.275,78.829c0,0-1.406-1.079,0.396-1.747c0,0,12.592-4.242,29.665-3.762
			c17.071,0.481,20.244,3.959,31.352,3.593c11.107-0.365,16.356-2.013,18.799-2.868c0,0,1.013-0.309,0.459,0.146
			c0,0-7.778,4.127-19.32,4.637c-11.542,0.509-20.665-1.696-32.27-1.395c-11.604,0.299-19.548,2.781-23.783,4.485
			c0,0-1.049,0.481-1.604,0.125C95.313,81.624,92.275,78.829,92.275,78.829z"/>
		<path fill="#333333" d="M138.445,61.068c0,0,3.521,3.14,3.213,5.769c-0.455,3.845-19.154,33.778-17.926,34.817
			c1.229,1.041,12.054-9.737,12.054-9.737l0.164,0.774c0,0-9.921,10.824-12.873,9.838c-2.953-0.981-0.464-7.535,1.039-10.612
			c1.499-3.077,14.04-26.585,14.249-27.994c0.212-1.422-0.094-2.136-0.234-2.481C137.992,61.094,138.301,60.959,138.445,61.068z"/>
		<path fill="#333333" d="M155.335,61.434c0,0,3.522,3.139,3.213,5.769c-0.454,3.844-19.153,33.776-17.925,34.817
			c1.23,1.041,12.054-9.738,12.054-9.738l0.165,0.775c0,0-9.922,10.82-12.873,9.838c-2.951-0.981-0.462-7.537,1.037-10.613
			c1.502-3.077,14.042-26.586,14.252-27.994c0.21-1.422-0.095-2.137-0.234-2.482C154.883,61.459,155.191,61.324,155.335,61.434z"/>
		<path fill="#333333" d="M138.295,79.288c-0.055-0.099-0.016-0.543,0.447-0.278c0.46,0.266,3.488,3.283,2.957,5.612
			c-0.529,2.33-1.793,3.226-2.383,3.043c-0.588-0.183-0.868-0.968-1.426-1.388c-0.559-0.418-1.521-0.627-1.731-1.199
			c-0.207-0.573,0.419-1.727,1.437-2.902C138.661,80.941,138.295,79.288,138.295,79.288z"/>
		<path fill="#333333" d="M135.354,87.689c0,0,2.838,2.504,2.793,4.127c-0.041,1.449-1.404,3.209-2.528,4.617
			c-0.89,1.117-2.152,3.596-1.562,3.896c0.946,0.482,7.439-6.737,7.439-6.737l0.18,0.423c0,0-6.508,8.408-8.963,7.744
			c-1.811-0.486-1.986-2.164-1.964-3.898c0.026-1.736,3.946-6.799,4.21-7.922c0.264-1.121,0.13-1.804,0.064-1.914
			C134.959,87.917,135.023,87.615,135.354,87.689z"/>
		<path fill="#333333" d="M155.988,80.605c0,0-0.402-1.217,0.678-0.621c1.077,0.598,3.209,3.636,3.209,5.404
			c0,1.771-0.818,3.5-1.703,3.486c-0.88-0.016-1.705-1.491-2.186-1.802c-0.48-0.312-2.103-0.845-2.153-1.56
			C153.689,83.584,156.525,82.422,155.988,80.605z"/>
		<path fill="#333333" d="M152.439,88.068c0,0,5.272,2.388,4.146,5.227c-1.127,2.84-5.594,8.863-5.005,9.299
			c0.588,0.436,5.335-3.529,7.673-6.685l0.262,0.405c0,0-6.406,8.152-9.42,7.121c-3.012-1.035-1.754-4.59-0.988-6.164
			c0.897-1.859,3.379-5.06,3.42-7.041c0.018-0.638-0.447-1.623-0.447-1.623S151.676,88.158,152.439,88.068z"/>
		<path fill="#333333" d="M170.402,91.598c0,0,0.361-3.412-2.207-3.529c-2.571-0.117-6.24,1.519-8.471,5.011
			c-2.231,3.491-3.115,8.637-0.209,9.879c2.905,1.241,7.516-3.365,8.729-5.015c1.21-1.648,2.175-4.393,0.967-5.19
			c-1.079-0.716-1.891,0.001-2.085,0.39c-0.194,0.387-0.476,1.549,0.485,1.939c1.074,0.438,2.225-0.288,4.496-1.823
			c2.219-1.499,2.875-2.431,3.521-2.077c0.455,0.252-5.232,9.883-5.175,10.616c0.101,1.205,1.575,4.017,2.06,3.79
			c0.481-0.223,5.43-9.438,5.864-10.458c0.438-1.019,0.435-4.612-1.345-5.266c-1.17-0.431-4.616,2.638-5.2,3.007
			c-0.583,0.369-2.849,2.163-3.688,1.771c-0.668-0.313-0.541-0.965-0.355-1.209c0.15-0.201,0.574-0.412,0.96-0.252
			c0.468,0.195,0.899,2.142-0.992,4.42c-1.891,2.279-5.141,4.949-6.502,3.98c-1.354-0.973,3.718-11.008,6.931-10.9
			c1.453,0.049,1.772,1.02,1.772,1.02S170.159,91.992,170.402,91.598z"/>
		<path fill="#333333" d="M176.092,98.146c0,0,7.461-9.543,9.372-8.08c0.427,0.326,2.231,2.506,1.325,4.397
			c-0.727,1.517-6.943,10.122-5.727,11.07c1.217,0.944,5.83-0.991,9.916-7.616c0,0,0.701-0.785,0.602,0.293
			c0,0-6.643,9.949-11.455,8.42c-2.68-0.852-2.63-5.296-0.602-8.596c1.822-2.962,4.688-6.791,4.235-6.993
			c-0.45-0.199-6.667,6.401-7.519,7.655L176.092,98.146z"/>
		<path fill="#333333" d="M82.152,80.33c6.613-0.93,7.895-4.54,7.903-6.869c0.012-2.902-2.57-4.6-5.678-5.404
			c-3.295-0.854-26.427-0.793-27.794-2.345c-1.196-1.354-0.621-2.53-0.621-2.53c0.183-0.449-0.276-0.199-0.276-0.199
			c-0.776,0.834-0.744,3.385,0.433,4.904c2.69,3.475,13.24,2.844,13.24,2.844c0.147,0.834-0.147,1.668-0.54,2.451
			c-0.392,0.785-12.771,24.59-12.771,24.59c-0.331,0.992-0.036,1.375-0.036,1.375s2.065,3.279,2.346,3.625
			c0.281,0.346,0.446-0.027,0.446-0.027l11.102-22.036c1.653,1.756,2.121,4.634,2.328,6.287C72.44,88.648,71.923,99.6,71.923,99.6
			s-0.188,7.938,5.424,10.021c4.77,1.771,9.253-4.554,9.253-4.554c0.307-1.14-0.876-0.623-0.876-0.623
			c-2.142,2.613-5.278,5.691-7.706,4.041c-2.428-1.652-1.033-16.271-1.499-21.264c-0.464-4.994-5.63-6.89-5.63-6.89
			S75.541,81.26,82.152,80.33z M70.389,79.508c0,0,2.011-3.917,2.522-5.438c0.511-1.521-0.298-3.487-0.298-3.487
			s7.387,0.194,10.085,0.49c2.696,0.294,6.178,0.882,5.787,4.124c-0.393,3.242-4.657,3.904-8.533,4.311
			C75.99,79.921,70.389,79.508,70.389,79.508z"/>
	</g>
</g>
<g id="Layer_8" display="none">
	<g id="Layer_6_1_" display="inline">
		<path d="M159.854,89.67c0,21.195-17.181,38.374-38.375,38.374S83.104,110.865,83.104,89.67c0-21.193,17.18-38.375,38.375-38.375
			S159.854,68.477,159.854,89.67z M121.479,57.052c-18.015,0-32.62,14.604-32.62,32.618c0,18.016,14.605,32.618,32.62,32.618
			s32.619-14.603,32.619-32.618C154.098,71.656,139.492,57.052,121.479,57.052z"/>
		<text transform="matrix(1 0 0 1 98.1191 105.8066)" font-family="'BebasNeue'" font-size="41.712">OST</text>
	</g>
</g>
<g id="Layer_9" display="none">
	<g display="inline">
		<g>
			<path fill="#333333" d="M76.631,81.359c1.867,0.77,3.358,1.896,4.475,3.377c1.116,1.482,1.674,2.992,1.674,4.529
				c0,1.393-0.219,2.69-0.659,3.898c-0.439,1.208-1.272,2.279-2.498,3.213c-1.227,0.934-2.929,1.666-5.106,2.196
				c-2.178,0.528-4.988,0.796-8.428,0.796c-3.514,0-6.369-0.268-8.565-0.796c-2.196-0.53-3.917-1.265-5.161-2.196
				c-1.245-0.934-2.086-2.005-2.526-3.213c-0.439-1.208-0.659-2.507-0.659-3.898c0-0.769,0.146-1.545,0.439-2.332
				c0.292-0.787,0.714-1.537,1.263-2.252c0.549-0.714,1.216-1.363,2.004-1.949c0.787-0.584,1.675-1.043,2.663-1.373
				c-1.428-0.549-2.553-1.455-3.377-2.717c-0.824-1.264-1.235-2.554-1.235-3.871c0-1.244,0.256-2.416,0.769-3.515
				c0.512-1.098,1.354-2.059,2.526-2.883c1.171-0.824,2.727-1.463,4.667-1.922c1.94-0.457,4.338-0.687,7.193-0.687
				s5.252,0.229,7.193,0.687c1.939,0.458,3.495,1.098,4.667,1.922c1.171,0.824,2.013,1.785,2.526,2.883
				c0.512,1.099,0.769,2.271,0.769,3.515c0,1.317-0.412,2.607-1.235,3.871C79.187,79.904,78.059,80.812,76.631,81.359z
				 M66.528,66.865H65.43v12.738h1.098V66.865z M66.528,82.239H65.43v16.032h1.098V82.239z"/>
			<path fill="#333333" d="M119.595,80.564c-1.007,0.933-2.772,1.564-5.298,1.894c2.086,0.549,3.742,1.392,4.969,2.526
				c1.226,1.135,1.839,2.854,1.839,5.16c0,1.537-0.258,2.883-0.77,4.037c-0.513,1.151-1.4,2.112-2.663,2.881
				c-1.263,0.771-2.965,1.347-5.106,1.729c-2.142,0.385-4.859,0.577-8.154,0.577s-6.021-0.258-8.181-0.77
				c-2.16-0.513-3.871-1.188-5.134-2.031c-1.263-0.842-2.141-1.82-2.635-2.938c-0.494-1.116-0.741-2.278-0.741-3.485
				c0-1.024,0.21-1.959,0.631-2.801c0.42-0.842,0.961-1.564,1.62-2.169c0.659-0.604,1.391-1.062,2.196-1.373
				c0.805-0.311,1.592-0.466,2.361-0.466c0.769,0,1.556,0.146,2.361,0.438c0.805,0.293,1.537,0.732,2.196,1.317
				c0.659,0.586,1.198,1.3,1.62,2.142c0.42,0.844,0.631,1.812,0.631,2.91c0,1.172-0.192,2.188-0.577,3.049
				c-0.385,0.859-0.888,1.592-1.51,2.195c-0.623,0.604-1.345,1.053-2.169,1.346c-0.824,0.293-1.674,0.438-2.553,0.438
				c0.146,0.037,0.366,0.073,0.659,0.108c0.255,0.037,0.594,0.064,1.016,0.084c0.42,0.019,0.961,0.027,1.62,0.027
				c0.805,0,1.628-0.184,2.471-0.551c0.842-0.365,1.601-0.867,2.279-1.51c0.677-0.641,1.226-1.398,1.647-2.278
				c0.42-0.879,0.631-1.848,0.631-2.909c0-1.244-0.22-2.297-0.659-3.158c-0.439-0.858-1.016-1.563-1.729-2.112
				c-0.714-0.55-1.529-0.97-2.443-1.265c-0.916-0.291-1.867-0.528-2.855-0.713V81.8h7.907c3.624,0,6.424-0.155,8.4-0.467
				c1.977-0.312,3.432-0.704,4.365-1.181c0.934-0.476,1.491-0.979,1.675-1.51c0.183-0.531,0.274-1.017,0.274-1.455
				c0,0.33-0.147,0.713-0.439,1.152c-0.293,0.439-0.943,0.852-1.949,1.235c-1.007,0.384-2.471,0.704-4.393,0.961
				c-1.921,0.256-4.494,0.384-7.714,0.384h-8.126c-2.05,0-3.679,0.119-4.887,0.357s-2.142,0.521-2.8,0.851
				c-0.659,0.329-1.107,0.668-1.345,1.015c-0.238,0.35-0.376,0.633-0.412,0.853V73.016c0-0.916,0.155-1.812,0.466-2.69
				s0.769-1.656,1.373-2.333c0.604-0.678,1.317-1.217,2.141-1.62c0.824-0.401,1.766-0.604,2.828-0.604
				c2.086,0,4.063,0.303,5.93,0.906s3.669,1.264,5.408,1.977c1.738,0.715,3.44,1.365,5.106,1.949
				c1.665,0.586,3.358,0.879,5.079,0.879c1.208,0,2.169-0.484,2.883-1.455c0.714-0.969,1.071-2.389,1.071-4.254h1.099v10.762
				C121.105,78.286,120.602,79.631,119.595,80.564z"/>
			<path fill="#333333" d="M143.727,80.702c-3.697,0-6.625-0.119-8.785-0.356c-2.159-0.238-3.814-0.541-4.969-0.906
				c-1.152-0.366-1.895-0.75-2.224-1.153c-0.33-0.402-0.494-0.769-0.494-1.099v4.394h14.935c2.416,0,4.677,0.073,6.781,0.22
				s3.943,0.514,5.519,1.098c1.573,0.586,2.809,1.447,3.706,2.582c0.896,1.135,1.346,2.689,1.346,4.666
				c0,1.537-0.257,2.883-0.77,4.037c-0.514,1.151-1.399,2.112-2.662,2.881c-1.264,0.771-2.965,1.347-5.106,1.729
				c-2.142,0.386-4.858,0.577-8.153,0.577s-6.021-0.257-8.182-0.77s-3.871-1.188-5.134-2.031c-1.263-0.842-2.142-1.82-2.636-2.938
				c-0.494-1.116-0.741-2.278-0.741-3.485c0-1.024,0.211-1.959,0.632-2.801c0.42-0.842,0.961-1.564,1.62-2.169
				c0.657-0.604,1.391-1.062,2.196-1.372c0.805-0.312,1.592-0.467,2.359-0.467s1.557,0.146,2.361,0.438
				c0.805,0.293,1.537,0.732,2.195,1.317c0.658,0.587,1.199,1.3,1.619,2.142c0.422,0.844,0.633,1.812,0.633,2.91
				c0,1.172-0.192,2.188-0.576,3.049c-0.385,0.859-0.889,1.592-1.512,2.195c-0.621,0.604-1.345,1.053-2.168,1.346
				c-0.824,0.293-1.675,0.438-2.554,0.438c0.146,0.037,0.365,0.073,0.659,0.109c0.256,0.036,0.595,0.063,1.016,0.083
				c0.42,0.019,0.961,0.027,1.62,0.027c0.806,0,1.628-0.184,2.472-0.551c0.842-0.365,1.601-0.867,2.277-1.51
				c0.678-0.641,1.227-1.398,1.646-2.277c0.421-0.88,0.632-1.849,0.632-2.91c0-1.135-0.283-2.17-0.851-3.104
				c-0.568-0.934-1.318-1.721-2.252-2.359c-0.934-0.642-2.031-1.135-3.295-1.483c-1.263-0.347-2.572-0.521-3.926-0.521h-6.809
				V65.768h1.099c0,1.866,0.394,3.285,1.181,4.254c0.787,0.971,1.784,1.455,2.992,1.455c1.684,0,3.357-0.293,5.023-0.879
				c1.666-0.584,3.35-1.234,5.052-1.949c1.702-0.713,3.478-1.373,5.326-1.977c1.848-0.604,3.815-0.906,5.901-0.906
				c1.024,0,1.959,0.202,2.801,0.604c0.842,0.403,1.564,0.942,2.169,1.62c0.604,0.678,1.062,1.455,1.372,2.333
				c0.312,0.878,0.468,1.776,0.468,2.69v10.98c-0.11-0.221-0.366-0.512-0.769-0.879c-0.403-0.365-1.164-0.731-2.279-1.098
				c-1.116-0.367-2.69-0.678-4.723-0.935C149.738,80.831,147.059,80.702,143.727,80.702z"/>
			<path fill="#333333" d="M181.173,65.768c3.185,0,5.856,0.438,8.017,1.317c2.16,0.878,3.898,2.067,5.217,3.569
				c1.318,1.5,2.26,3.267,2.828,5.298c0.565,2.032,0.851,4.2,0.851,6.506c0,2.38-0.22,4.594-0.658,6.644
				c-0.438,2.051-1.282,3.836-2.526,5.354c-1.243,1.521-2.965,2.718-5.16,3.596c-2.196,0.88-5.053,1.318-8.565,1.318
				c-3.478,0-6.296-0.438-8.454-1.318c-2.162-0.878-3.854-2.075-5.08-3.596c-1.227-1.519-2.06-3.304-2.498-5.354
				c-0.438-2.05-0.658-4.264-0.658-6.644c0-2.306,0.283-4.476,0.851-6.506c0.567-2.031,1.501-3.798,2.802-5.298
				c1.299-1.5,3.01-2.69,5.133-3.569C175.389,66.206,178.023,65.768,181.173,65.768z M181.832,66.865h-1.1v31.406h1.1V66.865z"/>
		</g>
		<g>
			<path fill="#333333" d="M80.46,107.779c0-0.539,0.083-1.021,0.25-1.444s0.392-0.782,0.675-1.075
				c0.284-0.293,0.613-0.516,0.99-0.67c0.376-0.152,0.775-0.23,1.195-0.23c0.407,0,0.775,0.086,1.105,0.257
				c0.33,0.17,0.605,0.368,0.825,0.595l-0.81,0.91c-0.167-0.153-0.335-0.273-0.505-0.36c-0.17-0.086-0.369-0.13-0.595-0.13
				s-0.438,0.049-0.635,0.146c-0.197,0.096-0.369,0.234-0.515,0.414c-0.146,0.181-0.262,0.399-0.345,0.66
				c-0.083,0.26-0.125,0.554-0.125,0.881c0,0.672,0.143,1.193,0.43,1.563s0.67,0.556,1.15,0.556c0.267,0,0.5-0.054,0.7-0.16
				c0.2-0.105,0.38-0.246,0.54-0.42l0.81,0.891c-0.273,0.32-0.585,0.561-0.935,0.72c-0.35,0.16-0.729,0.24-1.135,0.24
				c-0.42,0-0.816-0.071-1.19-0.216c-0.373-0.143-0.7-0.354-0.98-0.635c-0.28-0.279-0.5-0.629-0.66-1.045
				C80.54,108.809,80.46,108.326,80.46,107.779z"/>
			<path fill="#333333" d="M91.59,104.48h1.47v5.278h2.58V111h-4.05V104.48z"/>
			<path fill="#333333" d="M104.06,111.12c-0.44,0-0.842-0.079-1.205-0.235s-0.675-0.381-0.935-0.675
				c-0.26-0.294-0.461-0.649-0.605-1.069c-0.143-0.42-0.215-0.896-0.215-1.431c0-0.533,0.072-1.009,0.215-1.425
				c0.144-0.416,0.345-0.768,0.605-1.051c0.26-0.283,0.572-0.5,0.935-0.649s0.765-0.226,1.205-0.226s0.842,0.076,1.205,0.226
				c0.363,0.149,0.675,0.368,0.935,0.655c0.26,0.287,0.462,0.639,0.605,1.055c0.144,0.417,0.215,0.889,0.215,1.415
				c0,0.534-0.071,1.011-0.215,1.431s-0.346,0.775-0.605,1.069c-0.259,0.294-0.571,0.519-0.935,0.675
				C104.901,111.041,104.5,111.12,104.06,111.12z M104.06,109.85c0.447,0,0.8-0.19,1.06-0.574c0.26-0.383,0.39-0.904,0.39-1.564
				c0-0.652-0.13-1.163-0.39-1.529c-0.26-0.367-0.613-0.551-1.06-0.551c-0.447,0-0.8,0.184-1.06,0.551
				c-0.26,0.366-0.39,0.877-0.39,1.529c0,0.66,0.13,1.182,0.39,1.564S103.613,109.85,104.06,109.85z"/>
			<path fill="#333333" d="M114.32,105.721h-1.79v-1.24h5.06v1.24h-1.79V111h-1.479L114.32,105.721L114.32,105.721z"/>
			<path fill="#333333" d="M123.609,104.48h1.471v2.51h2.25v-2.51h1.479V111h-1.479v-2.721h-2.25V111h-1.471V104.48z"/>
			<path fill="#333333" d="M135.35,104.48h1.471V111h-1.471V104.48z"/>
			<path fill="#333333" d="M143.359,104.48h1.511l1.7,3.24l0.64,1.438h0.04c-0.033-0.347-0.072-0.733-0.115-1.16
				s-0.064-0.834-0.064-1.222v-2.299h1.4V111h-1.511l-1.7-3.25l-0.64-1.42h-0.04c0.033,0.359,0.07,0.746,0.115,1.16
				c0.043,0.412,0.063,0.812,0.063,1.199V111h-1.399V104.48L143.359,104.48z"/>
			<path fill="#333333" d="M154.699,107.779c0-0.539,0.085-1.021,0.255-1.444s0.399-0.782,0.69-1.075
				c0.289-0.293,0.629-0.516,1.02-0.67c0.391-0.152,0.807-0.23,1.245-0.23c0.46,0,0.858,0.089,1.194,0.262s0.611,0.37,0.826,0.59
				l-0.812,0.91c-0.16-0.153-0.328-0.273-0.505-0.36c-0.178-0.086-0.405-0.13-0.686-0.13c-0.254,0-0.484,0.049-0.695,0.146
				c-0.209,0.096-0.392,0.234-0.545,0.414c-0.152,0.181-0.271,0.399-0.354,0.66c-0.083,0.26-0.125,0.554-0.125,0.881
				c0,0.672,0.151,1.193,0.455,1.563s0.762,0.556,1.375,0.556c0.134,0,0.265-0.017,0.392-0.051c0.125-0.033,0.229-0.083,0.31-0.148
				v-1.121h-1.08v-1.199h2.38v3c-0.232,0.22-0.54,0.406-0.92,0.561c-0.38,0.152-0.801,0.229-1.26,0.229
				c-0.44,0-0.853-0.071-1.235-0.216c-0.383-0.143-0.718-0.354-1.005-0.635c-0.286-0.279-0.512-0.629-0.676-1.045
				C154.781,108.809,154.699,108.326,154.699,107.779z"/>
		</g>
	</g>
</g>
<g id="Layer_11" display="none">
	<g display="inline">
		<g>
			<path fill="#333333" d="M44.239,103.189c2.041,0,3.976-0.881,5.318-2.418l1.121-1.188c0,0,0.901,1.142,1.852,1.903
				c1.378,1.107,2.897,1.703,4.596,1.703c3.893,0,7.06-3.168,7.06-7.061c0-3.895-3.167-7.059-7.06-7.059
				c-2.061,0-4.008,0.895-5.352,2.457l-1.087,1.148l-1.208-1.277c-0.071-0.08-0.145-0.156-0.219-0.231l-0.45-0.417
				c-1.267-1.079-2.88-1.68-4.571-1.68c-3.892,0-7.059,3.164-7.059,7.059C37.18,100.021,40.347,103.189,44.239,103.189z
				 M44.196,93.585c0.652,0,1.27,0.243,1.742,0.688l1.755,1.857l-1.722,1.821c-0.479,0.467-1.107,0.722-1.775,0.722
				c-1.403,0-2.546-1.142-2.546-2.544C41.65,94.727,42.793,93.585,44.196,93.585z M55.429,94.273c0.473-0.445,1.09-0.688,1.74-0.688
				c1.404,0,2.547,1.142,2.547,2.546c0,1.402-1.143,2.544-2.547,2.544c-0.667,0-1.297-0.255-1.775-0.722l-1.72-1.82L55.429,94.273z"
				/>
		</g>
		<g>
			<path fill="#333333" d="M73.371,73.625h7.108v23.018h13.286v6.602H73.371V73.625z"/>
			<path fill="#333333" d="M103.797,73.625h7.108v29.619h-7.108V73.625z"/>
			<path fill="#333333" d="M144.716,96.009c0-7.024,0.085-10.493,0.085-10.536h-0.085c-0.042,0.043-1.479,2.709-2.92,5.248
				l-2.877,5.203h-3.978l-2.877-5.119c-1.481-2.623-2.877-5.289-2.92-5.332h-0.127c0,0.043,0.084,3.512,0.084,10.536v7.235h-7.107
				V73.625h7.531l7.447,13.244h0.127l7.488-13.244h7.235v29.619h-7.108L144.716,96.009L144.716,96.009z"/>
			<path fill="#333333" d="M162.916,73.625h7.109v29.619h-7.109V73.625z"/>
			<path fill="#333333" d="M196.219,80.227v23.018h-7.109V80.227h-9.055v-6.602h25.219v6.602H196.219z"/>
		</g>
		<g>
			<path fill="#333333" d="M40.276,79.212h-0.05c0,0.017,0.034,1.46,0.034,2.988v4.028h-2.82v-11.75h2.854l5.001,6.881h0.051
				c0-0.017-0.017-1.526-0.017-2.803v-4.078h2.82v11.75h-2.87L40.276,79.212z"/>
			<path fill="#333333" d="M58.272,74.244c3.592,0,6.193,2.518,6.193,6.109s-2.602,6.109-6.193,6.109s-6.194-2.518-6.194-6.109
				C52.078,76.764,54.68,74.244,58.272,74.244z M58.272,83.794c1.947,0,3.357-1.343,3.357-3.44c0-2.115-1.41-3.459-3.357-3.459
				s-3.357,1.344-3.357,3.459C54.915,82.452,56.325,83.794,58.272,83.794z"/>
		</g>
	</g>
</g>
<g id="Layer_12" display="none">
	<g display="inline">
		<path fill="#333333" d="M63.236,110.527l-16.32-0.027V65.83l22.669,10.591l22.517-10.682l0.152,44.67l-16.19,0.032l-1.3-0.032
			l-4.673-4.638c0-3.549,0-19.973,0-23.433h-0.577v23.433l-4.703,4.771L63.236,110.527z"/>
		<path fill="#333333" d="M148.395,66.014c0,13.199,0,26.278,0,39.418l-5.188,5.01h-34.354l-5.159-5.01c0-13.14,0-26.219,0-39.418
			c4.886,0,12.442,0,17.329,0l4.672,4.701c0,3.553,0,31.283,0,34.743h0.578V70.715l4.703-4.701
			C135.98,66.014,143.387,66.014,148.395,66.014z"/>
		<g>
			<path fill="#333333" d="M158.262,110.964c0-4.885,0-12.241,0-17.128l4.702-4.673c3.55,0,26.531,0,29.991,0v-0.577h-29.991
				l-4.702-4.703c0-5.008,0-12.412,0-17.419c0,0-0.003,14.739-0.003-0.13h34.582l5.302,5.21v34.492l-5.302,4.995h-34.582"/>
		</g>
	</g>
</g>
<g id="Layer_7" display="none">
	<g display="inline">
		<path fill="#333333" d="M79.594,83.104c0,1.386-2.559,3.623-4.901,6.394c-1.812,2.132-3.092,3.94-3.624,5.008
			c-0.532,0.96-0.532,1.705-0.107,2.024c0.427,0.32,1.172,0.212,2.346-0.426c1.172-0.64,3.09-1.812,4.795-3.195
			c2.344-1.812,3.624-2.879,5.007-4.157c0.747-0.746,1.387-1.063,1.601-0.853c0.318,0.319-0.428,0.959-1.278,1.812
			c-1.28,1.172-3.41,3.09-6.074,5.114c-2.24,1.704-5.969,4.264-9.485,4.264c-2.237,0-3.409-1.174-3.303-2.772
			c0.106-2.344,2.77-5.326,5.114-7.564c2.558-2.45,6.606-5.328,6.927-6.072c0.426-1.174-1.599-0.854-4.262-0.854
			c-1.065,0-1.92,0-2.452-0.212c-0.852,0.958-2.345,2.45-4.05,4.047c-1.812,1.707-3.089,2.878-4.262,3.944
			c-0.959,0.853-1.386,1.064-1.6,0.853c-0.213-0.214,0.108-0.746,1.173-1.706c1.278-1.173,2.238-2.023,4.156-3.836
			c1.491-1.385,2.877-2.771,3.73-3.729c-0.959-0.64-1.066-2.133,0-3.41c0.852-1.065,2.344-1.812,4.049-1.812
			c0.854,0,1.812,0.425,1.918,1.063c-0.746,0.533-1.173,0.854-1.811,1.492c-1.386,1.492-1.067,2.237,0.319,2.346
			c2.983,0.105,6.074,0.213,6.074,2.132C79.594,82.999,79.594,83.104,79.594,83.104z"/>
		<path fill="#333333" d="M88.332,98.342c2.343,0,6.606-2.878,9.909-6.501c0.107-1.063,0.532-2.664,1.918-4.475
			c1.173-1.599,2.664-2.452,3.41-2.771c0.318-0.746,0.318-1.919,0.318-2.451c0-1.172-0.424-1.492-0.104-1.705
			c0.427-0.213,1.064,0.213,1.491,0.64c0.854,0.853,1.492,2.13,1.278,3.729c-0.319,2.559-2.77,5.647-6.074,8.629
			c0.427,0.213,1.6,0.107,2.025,0c0.96-0.209,2.132-0.744,3.624-1.81c1.384-0.959,2.237-1.705,3.409-2.771
			c0.96-0.854,1.492-1.387,1.812-1.066c0.318,0.32-0.319,0.959-1.386,1.919c-0.959,0.853-2.024,1.812-3.41,2.769
			c-1.705,1.172-2.983,1.707-4.049,1.92c-0.959,0.213-2.237,0.213-2.877-0.213c-2.771,2.131-7.779,5.221-12.148,5.221
			c-3.303,0-5.328-1.598-5.221-4.688c0.105-2.132,1.384-4.688,3.41-6.819l-0.107-0.106c-0.746,0.642-1.173,1.065-1.919,1.705
			c-0.745,0.642-1.172,0.854-1.384,0.642c-0.214-0.32,0.318-0.854,0.745-1.279c0.746-0.746,2.238-1.918,3.303-2.664
			c1.387-0.959,2.878-1.918,5.115-3.092c3.091-1.599,6.396-2.77,8.846-2.877c0.746,0,1.599,0,1.599,0.428"/>
		<path fill="#333333" d="M127.225,93.865c2.986-1.812,5.225-3.729,7.035-5.328c0.532-0.426,1.066-0.96,1.385-0.639
			c0.215,0.213-0.213,0.852-1.172,1.705c-1.063,0.959-3.09,2.664-5.434,4.262c-2.346,1.599-4.689,2.771-6.715,3.624
			c-1.919,0.853-5.753,1.915-8.951,1.915c-5.648,0-6.82-3.408-6.394-6.393c0.427-3.09,2.878-5.646,5.435-5.541
			c1.492,0.105,2.239,1.174,2.025,2.346c-0.213,1.064-0.959,1.916-2.346,2.662c-0.958,0.533-2.343,1.707-2.45,3.197
			c-0.106,1.706,1.173,2.665,3.091,2.665c2.133,0,4.797-1.705,7.139-5.756c1.919-3.09,3.837-9.483,5.011-10.868v-0.105
			c-1.067,1.064-3.305,2.77-5.116,4.048c-1.491,1.067-3.196,2.132-4.05,2.559c-0.427,0.214-0.851,0.427-1.064,0.105
			c-0.107-0.319,0-0.532,0.532-0.853c1.065-0.64,2.77-1.703,4.475-2.982c1.919-1.387,3.836-2.984,6.289-5.114
			c0.211-0.427,0.959-1.28,1.704-1.813c1.172-0.852,2.345-1.172,3.09-1.172c2.451,0,0.852,1.387-0.532,2.239
			c-0.958,0.638-2.024,1.065-2.558,1.599c-0.854,0.853-0.745,1.705-0.745,2.877c0.104,2.983,0.315,5.754-0.959,8.737
			c-0.642,1.49-2.134,3.517-3.411,4.368C123.71,95.784,125.521,94.934,127.225,93.865z"/>
		<path fill="#333333" d="M138.416,99.404c-3.943,0-5.861-1.598-5.646-4.473c0.213-2.133,1.385-4.369,3.09-6.396l-0.106-0.104
			c-0.319,0.317-1.174,1.063-1.812,1.596c-0.641,0.535-1.172,0.854-1.387,0.642c-0.212-0.319,0.215-0.746,0.641-1.173
			c1.385-1.278,2.345-2.023,3.943-3.196c1.172-0.853,3.303-2.237,5.114-3.196c3.623-1.918,7.034-3.306,9.804-2.877
			c2.45,0.426,3.305,2.023,2.879,4.049c-0.429,2.024-2.238,3.623-3.625,3.623c-1.811,0-1.811-1.49-0.853-3.09
			c1.172-2.024,1.599-3.305,0.319-3.517c-1.172-0.214-3.623,1.385-6.605,4.476c-2.878,2.877-5.648,6.926-5.968,9.482
			c-0.215,1.6,0.744,2.45,2.45,2.45c1.385,0,5.113-0.64,9.804-3.835c2.024-1.387,4.688-3.623,6.394-5.115
			c0.641-0.532,0.959-0.639,1.174-0.427c0.211,0.321-0.215,0.745-0.854,1.387c-1.385,1.278-4.369,3.835-6.288,5.114
			c-3.729,2.559-8.735,4.58-12.36,4.58H138.416z"/>
		<path fill="#333333" d="M157.385,89.496c-0.746,0.641-1.171,0.854-1.385,0.641c-0.214-0.32,0.318-0.854,0.745-1.279
			c0.746-0.744,2.237-1.918,3.303-2.662c1.386-0.961,2.878-1.92,5.116-3.092c3.09-1.6,6.395-2.771,8.845-2.877
			c0.746,0,1.599,0,1.599,0.426c0,0.214-14.707,17.689-13.532,17.689c2.344,0,6.604-2.878,9.907-6.501
			c0.109-1.063,0.535-2.664,1.92-4.475c1.172-1.599,2.664-2.452,3.41-2.771c0.318-0.746,0.318-1.919,0.318-2.451
			c0-1.172-0.425-1.492-0.105-1.705c0.428-0.213,1.065,0.213,1.492,0.64c0.854,0.853,1.49,2.13,1.278,3.729
			c-0.319,2.559-2.771,5.647-6.075,8.629c0.428,0.213,1.6,0.107,2.026,0c0.959-0.209,2.129-0.744,3.623-1.81
			c1.385-0.959,2.237-1.705,3.409-2.771c0.96-0.854,1.49-1.387,1.812-1.066c0.319,0.32-0.319,0.959-1.386,1.919
			c-0.959,0.853-2.023,1.812-3.409,2.769c-1.705,1.172-2.983,1.707-4.049,1.92c-0.96,0.213-2.238,0.213-2.879-0.213
			c-2.769,2.131-7.779,5.221-12.147,5.221c-3.306,0-5.328-1.598-5.221-4.688c0.105-2.132,1.385-4.688,3.41-6.819l-0.107-0.106
			C158.557,88.432,158.13,88.857,157.385,89.496z"/>
	</g>
</g>
</svg>
