<?xml version="1.0" encoding="utf-8"?>
<!-- Generator: Adobe Illustrator 15.0.0, SVG Export Plug-In . SVG Version: 6.00 Build 0)  -->
<!DOCTYPE svg PUBLIC "-//W3C//DTD SVG 1.1//EN" "http://www.w3.org/Graphics/SVG/1.1/DTD/svg11.dtd">
<svg version="1.1" id="Layer_1" xmlns="http://www.w3.org/2000/svg" xmlns:xlink="http://www.w3.org/1999/xlink" x="0px" y="0px"
	 width="240px" height="80px" viewBox="0 0 240 80" enable-background="new 0 0 240 80" xml:space="preserve">
<g id="guides" display="none">
</g>
<g display="none">
	<path display="inline" fill="#555555" d="M13.357,27.736c1.167-0.902,2.593-1.354,4.277-1.354h0.181c0.938,0,1.828,0.06,2.671,0.18
		c0.842,0.121,1.648,0.253,2.418,0.397c0.505,0.097,1.011,0.193,1.516,0.289s0.998,0.168,1.48,0.216
		c0.264,0.049,0.535,0.079,0.812,0.09c0.276,0.012,0.56,0.018,0.848,0.018c0.024,0,0.054,0,0.09,0s0.066-0.012,0.09-0.036h0.036
		c0.023,0,0.054,0,0.09,0s0.066,0,0.09,0s0.048,0,0.072,0s0.048,0,0.072,0c0.024,0.024,0.048,0.036,0.072,0.036
		c0.024,0,0.048,0,0.072,0c0.336,0,0.734-0.042,1.191-0.126c0.457-0.084,0.926-0.282,1.408-0.595
		c-0.216,0.698-0.602,1.335-1.155,1.913c-0.554,0.577-1.155,0.999-1.805,1.263v14.131c0.24-0.167,0.463-0.353,0.667-0.557
		c0.204-0.203,0.403-0.425,0.596-0.664c0.145-0.167,0.283-0.342,0.415-0.521c0.132-0.18,0.271-0.364,0.415-0.557v0.072
		c0,2.419-0.962,4.374-2.888,5.854c-1.925,1.48-4.031,2.293-6.317,2.437c-0.121,0-0.229,0-0.325,0c-0.096,0-0.193,0-0.289,0
		c-2.407,0-4.5-0.836-6.281-2.509c-1.781-1.672-2.671-3.758-2.671-6.248c0-0.023,0-0.048,0-0.072c0-0.023,0.012-0.048,0.036-0.072
		c0-0.023,0-0.047,0-0.071c0-0.023,0-0.048,0-0.071c0-0.407,0.024-0.815,0.072-1.225c0.048-0.409,0.12-0.818,0.217-1.227
		c0.433-1.805,1.227-3.471,2.382-5c1.155-1.528,2.442-2.376,3.862-2.545c-0.818,0.915-1.504,1.896-2.058,2.942
		c-0.554,1.047-0.891,2.112-1.011,3.195c-0.024,0.168-0.042,0.337-0.054,0.505c-0.012,0.168-0.018,0.337-0.018,0.505
		c0,2.07,0.655,3.943,1.967,5.632c1.312,1.695,3.098,2.543,5.36,2.543c0.048,0,0.09,0,0.126,0s0.078-0.012,0.126-0.036
		c0.048,0,0.096,0,0.145,0c0.048,0,0.084,0,0.108,0c0.77,0,1.516-0.126,2.238-0.379c0.722-0.253,1.42-0.607,2.094-1.064V30.425
		c-0.145,0.072-0.295,0.126-0.451,0.163c-0.157,0.036-0.319,0.066-0.487,0.09c-0.265,0.048-0.523,0.078-0.776,0.09
		c-0.252,0.013-0.451,0.018-0.595,0.018c-0.024,0-0.042,0-0.054,0c-0.013,0-0.031,0-0.054,0h-0.036h-0.036
		c-0.024,0.024-0.048,0.036-0.072,0.036s-0.048,0-0.072,0c-0.866,0-1.696-0.054-2.49-0.162c-0.794-0.108-1.565-0.235-2.311-0.379
		c-0.746-0.144-1.474-0.271-2.184-0.379c-0.71-0.108-1.39-0.162-2.04-0.162c-0.241,0-0.505,0.006-0.794,0.018
		c-0.289,0.013-0.578,0.054-0.866,0.126c-0.385,0.072-0.764,0.211-1.137,0.415c-0.374,0.205-0.716,0.5-1.029,0.884
		C11.51,29.788,12.19,28.638,13.357,27.736z M23.843,31.508v9.706c-0.024,0.743-0.331,1.443-0.92,2.102
		c-0.59,0.659-1.233,1.132-1.931,1.421c-0.217,0.097-0.428,0.169-0.632,0.217c-0.205,0.049-0.403,0.072-0.595,0.072
		c-0.024,0-0.049,0-0.072,0c-0.024,0-0.036-0.012-0.036-0.036c-0.024,0-0.049,0-0.072,0c-0.024,0-0.048,0-0.072,0
		c0.072-0.096,0.126-0.181,0.163-0.253s0.078-0.132,0.126-0.18c0.024-0.072,0.054-0.145,0.09-0.217s0.066-0.145,0.09-0.217
		c0.024-0.047,0.042-0.089,0.054-0.125c0.012-0.036,0.018-0.078,0.018-0.126v-9.224l-1.083,0.542v-1.191l4.259-2.491H23.843z"/>
	<path display="inline" fill="#555555" d="M38.805,27.212c-0.132,0.385-0.234,0.782-0.307,1.191
		c-0.049,0.265-0.09,0.523-0.126,0.776c-0.036,0.252-0.054,0.487-0.054,0.704v6.822l4.692-3.538c0.192,0.313,0.391,0.59,0.596,0.831
		c0.204,0.241,0.403,0.433,0.596,0.577c0.192,0.169,0.391,0.289,0.596,0.361c0.204,0.072,0.402,0.108,0.595,0.108
		c0.289,0,0.578-0.066,0.867-0.198c0.289-0.132,0.565-0.307,0.83-0.523c0,0.169-0.013,0.35-0.036,0.543
		c-0.024,0.193-0.061,0.386-0.108,0.579c-0.096,0.362-0.247,0.712-0.451,1.05c-0.205,0.338-0.476,0.603-0.812,0.796v9.318
		c0,0.049,0.005,0.104,0.018,0.163c0.012,0.061,0.03,0.127,0.054,0.199c0.072,0.241,0.18,0.488,0.325,0.741
		c0.145,0.254,0.301,0.489,0.469,0.706c0.023,0.024,0.042,0.049,0.054,0.072c0.012,0.024,0.03,0.049,0.054,0.072
		c-0.217-0.072-0.487-0.138-0.812-0.198c-0.325-0.06-0.656-0.103-0.992-0.127c-0.049,0-0.09,0-0.126,0s-0.079,0-0.126,0
		c-0.53,0-1.005,0.072-1.426,0.217c-0.421,0.145-0.632,0.385-0.632,0.722l0.036,0.072h-0.036c0,0.167,0.138,0.359,0.415,0.574
		c0.276,0.216,0.572,0.479,0.885,0.79c0.312,0.287,0.595,0.628,0.848,1.023c0.252,0.394,0.403,0.854,0.451,1.381
		c-0.024,0.622-0.229,1.143-0.614,1.562c-0.385,0.418-0.818,0.688-1.299,0.808c-0.097,0.023-0.187,0.041-0.271,0.053
		c-0.084,0.013-0.175,0.019-0.271,0.019c-0.265,0-0.518-0.066-0.758-0.198c-0.241-0.133-0.421-0.331-0.542-0.596
		c0.336-0.12,0.613-0.299,0.83-0.538s0.325-0.514,0.325-0.823c-0.024-0.192-0.072-0.377-0.144-0.556
		c-0.072-0.181-0.145-0.365-0.217-0.556c-0.048-0.048-0.09-0.107-0.126-0.179c-0.036-0.072-0.066-0.145-0.09-0.216
		c-0.169-0.286-0.313-0.591-0.434-0.913c-0.121-0.323-0.18-0.699-0.18-1.129l-0.036-0.072c0-0.265,0.036-0.481,0.108-0.649
		c0.072-0.169,0.156-0.325,0.252-0.47c0.024,0,0.042-0.006,0.054-0.018c0.012-0.012,0.018-0.03,0.018-0.055
		c0.072-0.12,0.15-0.258,0.234-0.415c0.084-0.156,0.138-0.33,0.163-0.523v-9.547c-0.121-0.023-0.265-0.066-0.433-0.126
		c-0.168-0.06-0.337-0.138-0.505-0.235c-0.145-0.072-0.289-0.163-0.433-0.271c-0.145-0.108-0.277-0.21-0.397-0.307
		c-0.072-0.048-0.126-0.09-0.163-0.126c-0.036-0.036-0.078-0.078-0.126-0.126l-1.769,1.408v7.706c0.12,0.024,0.253,0.054,0.397,0.09
		c0.145,0.036,0.289,0.079,0.433,0.127c0.289,0.12,0.578,0.276,0.867,0.469c0.289,0.193,0.541,0.422,0.758,0.686l-3.212,2.996
		c-0.674-0.698-1.324-1.209-1.949-1.534c-0.626-0.324-1.204-0.487-1.733-0.487c-0.121,0-0.241,0.007-0.361,0.019
		c-0.121,0.013-0.241,0.042-0.361,0.09c-0.121,0.024-0.241,0.061-0.361,0.108c-0.121,0.049-0.241,0.108-0.361,0.181
		c0.145-0.554,0.416-1.061,0.812-1.519s0.896-0.807,1.498-1.048V30.829c0-0.289-0.054-0.626-0.163-1.012s-0.259-0.771-0.451-1.157
		c0.601,0,1.173-0.108,1.714-0.326c0.542-0.216,1.077-0.494,1.606-0.831c0.289-0.169,0.578-0.362,0.866-0.579
		c0.289-0.217,0.578-0.434,0.866-0.651C39.063,26.515,38.937,26.828,38.805,27.212z"/>
	<path display="inline" fill="#555555" d="M50.048,35.636c0.048,0.012,0.096,0.018,0.145,0.018c0.048,0,0.09,0.006,0.126,0.018
		c0.036,0.012,0.078,0.018,0.126,0.018c0.048,0.024,0.108,0.036,0.181,0.036s0.132,0,0.18,0c0.722,0,1.486-0.119,2.292-0.359
		c0.806-0.241,1.63-0.577,2.473-1.009c0.264-0.144,0.535-0.3,0.812-0.468c0.276-0.168,0.547-0.336,0.812-0.504
		c0.096,0.336,0.217,0.678,0.361,1.026c0.145,0.348,0.301,0.69,0.469,1.025c0.265,0.552,0.554,1.098,0.867,1.638
		c0.312,0.541,0.625,1.05,0.938,1.53c0.048,0.096,0.102,0.186,0.162,0.27s0.126,0.174,0.199,0.27
		c-0.168,0.096-0.41,0.222-0.722,0.378c-0.313,0.156-0.638,0.342-0.975,0.558l-4.439,2.689v2.907
		c0.289,0.024,0.613,0.066,0.975,0.126c0.361,0.061,0.733,0.151,1.119,0.271c0.361,0.096,0.722,0.216,1.083,0.36
		s0.686,0.289,0.975,0.434l0.83-0.794l0.722,0.613l-3.177,3.573c-0.409-0.265-0.83-0.499-1.263-0.703
		c-0.433-0.205-0.879-0.38-1.335-0.523c-0.65-0.241-1.294-0.415-1.931-0.523c-0.638-0.108-1.258-0.163-1.859-0.163
		c-0.241,0-0.487,0.007-0.74,0.019c-0.252,0.013-0.5,0.042-0.74,0.09c0.216-0.407,0.463-0.78,0.74-1.116
		c0.276-0.336,0.632-0.636,1.065-0.899v-8.805c0-0.191-0.03-0.408-0.09-0.648s-0.139-0.48-0.234-0.72
		c-0.049-0.12-0.097-0.233-0.145-0.342c-0.048-0.108-0.096-0.21-0.145-0.306C49.952,35.618,50,35.624,50.048,35.636z M54.055,41.43
		l2.418-1.512c-0.169-0.24-0.331-0.499-0.487-0.776c-0.157-0.276-0.307-0.56-0.451-0.848c-0.217-0.385-0.403-0.764-0.56-1.137
		c-0.157-0.373-0.283-0.704-0.379-0.993l-0.542,0.217V41.43z"/>
	<path display="inline" fill="#555555" d="M69.703,46.668c0.084-0.013,0.174-0.03,0.271-0.055c0.289-0.096,0.553-0.253,0.794-0.469
		c0.24-0.217,0.361-0.481,0.361-0.795V29.811l-1.011,0.542c-0.072,0.024-0.133,0.072-0.181,0.145
		c-0.048,0.072-0.084,0.145-0.108,0.216c-0.049,0.072-0.079,0.145-0.09,0.217c-0.013,0.072-0.018,0.121-0.018,0.145v10.678
		c-0.145,0.742-0.505,1.389-1.083,1.939c-0.578,0.552-1.204,0.948-1.877,1.188c-0.241,0.097-0.481,0.169-0.722,0.217
		s-0.469,0.072-0.686,0.072c-0.024,0-0.042,0-0.054,0c-0.012,0-0.03,0-0.054,0c-0.024,0-0.036-0.012-0.036-0.036
		c-0.024,0-0.06,0-0.108,0c0.024-0.024,0.042-0.042,0.054-0.055c0.012-0.012,0.03-0.018,0.054-0.018
		c0.072-0.096,0.145-0.199,0.217-0.307c0.072-0.108,0.144-0.211,0.216-0.308c0.072-0.119,0.126-0.234,0.163-0.342
		s0.054-0.209,0.054-0.306v-4.026c-0.049-0.072-0.108-0.132-0.181-0.181c-0.072-0.048-0.145-0.096-0.216-0.145
		c-0.072-0.023-0.133-0.042-0.181-0.054c-0.048-0.012-0.096-0.018-0.145-0.018c-0.193,0-0.373,0.072-0.542,0.217
		s-0.252,0.337-0.252,0.578c0,0.072,0.018,0.15,0.054,0.234c0.036,0.085,0.066,0.175,0.09,0.271h-0.072
		c-0.024,0.023-0.061,0.035-0.108,0.035c-0.458,0-0.836-0.173-1.137-0.522c-0.301-0.349-0.511-0.728-0.631-1.137
		c-0.024-0.12-0.042-0.234-0.054-0.343c-0.013-0.108-0.018-0.21-0.018-0.307c0-0.072,0.005-0.144,0.018-0.216
		c0.012-0.072,0.03-0.156,0.054-0.253c0.072-0.384,0.271-0.758,0.596-1.119c0.325-0.361,0.728-0.614,1.209-0.758h1.516v-3.682
		c0.023-0.433,0.186-0.824,0.487-1.173c0.3-0.348,0.655-0.631,1.065-0.848l8.627-4.332c0.481,0.746,1.028,1.378,1.642,1.895
		c0.614,0.518,1.257,0.776,1.931,0.776v-2.527h1.047v2.491h0.036c0.361,0,0.896-0.217,1.606-0.65
		c0.709-0.433,1.485-1.131,2.328-2.094c0.577,0.674,1.059,1.186,1.444,1.534c0.384,0.349,0.758,0.56,1.119,0.632
		c0.048,0.024,0.09,0.036,0.126,0.036s0.078,0,0.126,0c0.072,0,0.156-0.006,0.252-0.018c0.096-0.012,0.192-0.042,0.289-0.09
		c0.072,0,0.138-0.018,0.198-0.054s0.126-0.066,0.199-0.09v0.181c0,0.072-0.006,0.15-0.018,0.235
		c-0.013,0.084-0.03,0.162-0.054,0.234c-0.072,0.385-0.241,0.74-0.505,1.065c-0.265,0.325-0.578,0.56-0.938,0.704v14.709
		c0.048,0.385,0.222,0.722,0.523,1.011c0.301,0.288,0.619,0.457,0.957,0.505l0.325-0.396l0.794,0.577l-2.599,3.573h-0.072
		c-1.348-0.023-2.31-0.571-2.888-1.642c-0.578-1.071-0.878-2.257-0.902-3.556c0-0.048,0-0.091,0-0.127s0-0.065,0-0.09v-5.251h-2.346
		v6.839l0.181,0.108l0.397-0.36l0.649,0.758l-4.151,3.32c-0.674-0.771-1.281-1.294-1.823-1.57s-1.053-0.415-1.534-0.415
		c-0.313,0-0.644,0.043-0.993,0.127c-0.349,0.084-0.692,0.211-1.029,0.379c0.024-0.072,0.048-0.15,0.072-0.234
		c0.024-0.084,0.06-0.163,0.108-0.235c0.192-0.48,0.469-0.932,0.83-1.354c0.361-0.421,0.758-0.764,1.191-1.028v-6.334h-2.346v6.515
		c-0.193,1.083-0.662,2.021-1.408,2.815c-0.747,0.794-1.625,1.19-2.635,1.19c-0.481-0.023-0.902-0.09-1.263-0.198
		c-0.361-0.108-0.722-0.223-1.083-0.343c-0.048,0-0.072-0.013-0.072-0.036c-0.289-0.097-0.59-0.192-0.902-0.289
		c-0.313-0.096-0.65-0.168-1.011-0.216c-0.121,0-0.252,0.012-0.397,0.036c-0.145,0.023-0.289,0.048-0.433,0.072
		c-0.241,0.071-0.476,0.174-0.704,0.307c-0.229,0.132-0.427,0.294-0.596,0.487c0-1.035,0.294-1.991,0.885-2.87
		c0.589-0.878,1.594-1.329,3.014-1.354c0.481,0.049,0.885,0.108,1.209,0.181s0.607,0.156,0.848,0.253
		c0.217,0.072,0.409,0.144,0.578,0.216c0.168,0.072,0.325,0.133,0.469,0.181c0.12,0.049,0.24,0.085,0.361,0.108
		c0.12,0.024,0.253,0.036,0.397,0.036C69.54,46.686,69.618,46.68,69.703,46.668z M72.211,36.02h2.346V30.1
		c-0.072-0.024-0.139-0.048-0.199-0.072c-0.06-0.024-0.114-0.048-0.163-0.072c-0.193-0.096-0.367-0.186-0.523-0.271
		c-0.157-0.084-0.307-0.174-0.452-0.271c-0.096-0.072-0.187-0.138-0.271-0.198c-0.084-0.06-0.175-0.126-0.271-0.199l-0.469,0.217
		V36.02z M78.203,45.53c0.072,0,0.174,0.013,0.307,0.036c0.132,0.024,0.271,0.061,0.416,0.108c0.048,0.024,0.102,0.042,0.162,0.055
		c0.06,0.012,0.114,0.03,0.163,0.054c0.072,0.024,0.132,0.042,0.181,0.054c0.048,0.013,0.096,0.031,0.144,0.055V30.208
		c-0.096,0.048-0.205,0.09-0.325,0.126c-0.121,0.036-0.241,0.067-0.361,0.09c-0.121,0.024-0.235,0.048-0.343,0.072
		c-0.108,0.024-0.223,0.036-0.343,0.036V45.53z M80.658,36.02h2.346v-5.631c-0.41-0.12-0.752-0.265-1.029-0.433
		c-0.277-0.168-0.511-0.373-0.704-0.614c0,0.024-0.006,0.042-0.018,0.054c-0.013,0.013-0.031,0.018-0.054,0.018
		c-0.024,0.049-0.061,0.084-0.108,0.108c-0.048,0.024-0.084,0.048-0.108,0.072c-0.072,0.048-0.139,0.084-0.198,0.108
		c-0.061,0.024-0.103,0.036-0.126,0.036V36.02z"/>
	<path display="inline" fill="#555555" d="M96.034,35.28c0.361,0.277,0.71,0.415,1.047,0.415c0.145,0,0.289-0.018,0.433-0.054
		c0.145-0.036,0.289-0.078,0.433-0.126c0.072-0.048,0.145-0.09,0.217-0.126s0.145-0.066,0.217-0.09c0,0.096-0.006,0.199-0.018,0.307
		c-0.013,0.108-0.042,0.223-0.09,0.343c-0.097,0.433-0.307,0.842-0.632,1.227c-0.325,0.385-0.704,0.662-1.137,0.83v7.959
		c0.096,0.481,0.301,0.818,0.614,1.011c0.312,0.192,0.65,0.301,1.011,0.324c0.024,0,0.048,0,0.072,0c0.023,0,0.048,0,0.072,0
		c0.048,0,0.102,0,0.162,0s0.114,0,0.163,0c0.145-0.023,0.276-0.048,0.397-0.071c0.12-0.024,0.229-0.061,0.325-0.108l-3.104,3.14
		c-0.818-0.048-1.552-0.343-2.202-0.884c-0.65-0.542-0.999-1.222-1.047-2.04v-9.258c-0.193-0.072-0.367-0.18-0.523-0.325
		c-0.157-0.145-0.295-0.301-0.415-0.469l-0.542,0.397l-0.433-0.578c0.072-0.048,0.138-0.096,0.198-0.145
		c0.06-0.048,0.114-0.096,0.163-0.144c0.217-0.168,0.433-0.343,0.65-0.523c0.216-0.181,0.42-0.355,0.613-0.523
		c0.385-0.337,0.758-0.662,1.119-0.975c0.361-0.312,0.686-0.601,0.975-0.866C95.252,34.552,95.673,35.003,96.034,35.28z
		 M92.407,31.111c0.181-0.12,0.355-0.229,0.523-0.325c0.072-0.048,0.138-0.09,0.199-0.126c0.06-0.036,0.126-0.078,0.198-0.126
		c0.24-0.168,0.487-0.349,0.74-0.542c0.252-0.192,0.535-0.409,0.848-0.65c0.385,0.505,0.734,0.854,1.047,1.047
		c0.312,0.193,0.601,0.289,0.866,0.289c0.12,0,0.24-0.018,0.361-0.054c0.12-0.036,0.24-0.078,0.361-0.126
		c0.024,0,0.054-0.006,0.09-0.018c0.036-0.012,0.066-0.03,0.09-0.054c0.023,0,0.054-0.012,0.09-0.036
		c0.036-0.023,0.066-0.036,0.09-0.036v0.253c0,0.554-0.223,1.035-0.668,1.444c-0.446,0.409-0.933,0.686-1.462,0.83
		c-0.097,0.024-0.205,0.042-0.325,0.054c-0.121,0.012-0.229,0.018-0.325,0.018c-0.024,0-0.036-0.012-0.036-0.036
		c-0.024,0-0.048,0-0.072,0c-0.097,0-0.193-0.006-0.289-0.018c-0.096-0.012-0.193-0.018-0.289-0.018
		c-0.337-0.048-0.656-0.163-0.957-0.343c-0.301-0.181-0.512-0.463-0.632-0.849l-0.65,0.397l-0.361-0.614
		C92.04,31.352,92.226,31.231,92.407,31.111z"/>
	<path display="inline" fill="#555555" d="M103.127,29.107c0.349-0.108,0.691-0.247,1.029-0.415
		c0.361-0.192,0.733-0.427,1.119-0.704c0.385-0.276,0.794-0.583,1.228-0.92c-0.097,0.217-0.181,0.451-0.253,0.704
		c-0.072,0.252-0.145,0.523-0.216,0.812c-0.072,0.313-0.133,0.626-0.181,0.938c-0.048,0.313-0.072,0.59-0.072,0.83V46
		c0.337,0.097,0.644,0.229,0.92,0.396c0.276,0.169,0.547,0.422,0.812,0.759l0.577-0.434l0.578,0.722l-3.501,2.815
		c-0.144-0.145-0.301-0.288-0.469-0.433s-0.361-0.289-0.577-0.434c-0.458-0.312-0.981-0.602-1.57-0.866
		c-0.59-0.265-1.197-0.469-1.823-0.613c0.168-0.312,0.402-0.614,0.704-0.902c0.301-0.289,0.644-0.529,1.029-0.723V31.472
		c0-0.145-0.012-0.301-0.036-0.469c-0.024-0.168-0.06-0.349-0.108-0.542c-0.024-0.12-0.048-0.235-0.072-0.343
		c-0.024-0.108-0.049-0.222-0.072-0.343c-0.049-0.096-0.085-0.186-0.108-0.271c-0.024-0.084-0.048-0.163-0.072-0.235
		C102.398,29.27,102.778,29.216,103.127,29.107z"/>
	<path display="inline" fill="#555555" d="M112.729,29.107c0.349-0.108,0.691-0.247,1.029-0.415
		c0.361-0.192,0.733-0.427,1.119-0.704c0.385-0.276,0.794-0.583,1.228-0.92c-0.097,0.217-0.181,0.451-0.253,0.704
		c-0.072,0.252-0.145,0.523-0.216,0.812c-0.072,0.313-0.133,0.626-0.181,0.938c-0.048,0.313-0.072,0.59-0.072,0.83V46
		c0.337,0.097,0.644,0.229,0.92,0.396c0.276,0.169,0.547,0.422,0.812,0.759l0.577-0.434l0.578,0.722l-3.501,2.815
		c-0.144-0.145-0.301-0.288-0.469-0.433s-0.361-0.289-0.577-0.434c-0.458-0.312-0.981-0.602-1.57-0.866
		c-0.59-0.265-1.197-0.469-1.823-0.613c0.168-0.312,0.402-0.614,0.704-0.902c0.301-0.289,0.644-0.529,1.029-0.723V31.472
		c0-0.145-0.012-0.301-0.036-0.469c-0.024-0.168-0.06-0.349-0.108-0.542c-0.024-0.12-0.048-0.235-0.072-0.343
		c-0.024-0.108-0.049-0.222-0.072-0.343c-0.049-0.096-0.085-0.186-0.108-0.271c-0.024-0.084-0.048-0.163-0.072-0.235
		C112,29.27,112.379,29.216,112.729,29.107z"/>
	<path display="inline" fill="#555555" d="M121.193,35.636c0.047,0.012,0.096,0.018,0.143,0.018c0.049,0,0.092,0.006,0.127,0.018
		c0.037,0.012,0.078,0.018,0.127,0.018c0.047,0.024,0.107,0.036,0.18,0.036s0.133,0,0.182,0c0.721,0,1.484-0.119,2.291-0.359
		c0.807-0.241,1.631-0.577,2.473-1.009c0.266-0.144,0.535-0.3,0.812-0.468c0.275-0.168,0.547-0.336,0.812-0.504
		c0.096,0.336,0.217,0.678,0.361,1.026s0.301,0.69,0.469,1.025c0.264,0.552,0.553,1.098,0.865,1.638
		c0.312,0.541,0.627,1.05,0.939,1.53c0.047,0.096,0.102,0.186,0.162,0.27s0.127,0.174,0.199,0.27
		c-0.17,0.096-0.41,0.222-0.723,0.378c-0.312,0.156-0.637,0.342-0.975,0.558l-4.439,2.689v2.907
		c0.289,0.024,0.613,0.066,0.975,0.126c0.361,0.061,0.734,0.151,1.119,0.271c0.361,0.096,0.721,0.216,1.082,0.36
		s0.686,0.289,0.975,0.434l0.83-0.794l0.723,0.613l-3.176,3.573c-0.41-0.265-0.83-0.499-1.264-0.703
		c-0.434-0.205-0.879-0.38-1.336-0.523c-0.65-0.241-1.293-0.415-1.932-0.523c-0.637-0.108-1.258-0.163-1.859-0.163
		c-0.24,0-0.486,0.007-0.739,0.019c-0.252,0.013-0.5,0.042-0.74,0.09c0.216-0.407,0.463-0.78,0.74-1.116
		c0.276-0.336,0.632-0.636,1.065-0.899v-8.805c0-0.191-0.031-0.408-0.09-0.648c-0.061-0.24-0.139-0.48-0.236-0.72
		c-0.047-0.12-0.096-0.233-0.143-0.342c-0.049-0.108-0.098-0.21-0.145-0.306C121.096,35.618,121.145,35.624,121.193,35.636z
		 M125.199,41.43l2.418-1.512c-0.168-0.24-0.33-0.499-0.486-0.776c-0.158-0.276-0.307-0.56-0.451-0.848
		c-0.217-0.385-0.404-0.764-0.561-1.137c-0.156-0.373-0.283-0.704-0.379-0.993l-0.541,0.217V41.43z"/>
	<path display="inline" fill="#555555" d="M142.309,34.964c0.337,0.367,0.697,0.55,1.083,0.55c0.12,0,0.246-0.019,0.379-0.058
		c0.132-0.039,0.271-0.097,0.415-0.175c0.048-0.051,0.108-0.096,0.181-0.135s0.145-0.084,0.217-0.136v0.583
		c0,0.924-0.283,1.659-0.849,2.207c-0.565,0.547-1.197,0.82-1.896,0.82c-0.096,0-0.192-0.006-0.288-0.018
		c-0.097-0.012-0.193-0.03-0.289-0.054c-0.289-0.072-0.572-0.186-0.849-0.343c-0.276-0.156-0.535-0.355-0.775-0.596l-1.155,1.228
		v6.767c0.145,0,0.294,0.019,0.451,0.055c0.156,0.036,0.307,0.09,0.451,0.162c0.24,0.097,0.475,0.217,0.704,0.361
		c0.229,0.144,0.427,0.301,0.596,0.469l0.649-0.577l0.613,0.649l-3.609,3.537c-0.722-0.722-1.408-1.239-2.058-1.552
		s-1.251-0.47-1.805-0.47c-0.289,0-0.565,0.036-0.83,0.108c-0.266,0.072-0.518,0.181-0.758,0.325c0.023-0.507,0.21-0.982,0.56-1.429
		c0.349-0.446,0.716-0.79,1.101-1.031c0.072-0.049,0.138-0.085,0.198-0.109c0.06-0.023,0.114-0.048,0.163-0.072v-7.688
		c-0.121-0.265-0.308-0.5-0.56-0.706c-0.253-0.206-0.523-0.368-0.812-0.488c-0.121-0.049-0.241-0.091-0.361-0.127
		s-0.24-0.066-0.36-0.09c0.842-0.482,1.51-1.013,2.003-1.592s0.933-1.23,1.317-1.954c0.578,0.289,1.065,0.692,1.462,1.209
		c0.397,0.518,0.716,1.306,0.957,2.364c0.168-0.168,0.349-0.354,0.541-0.559s0.373-0.427,0.542-0.668
		c0.145-0.145,0.282-0.294,0.415-0.451c0.132-0.156,0.258-0.319,0.379-0.487c0.192-0.24,0.373-0.481,0.541-0.722
		c0.168-0.24,0.325-0.469,0.47-0.686C141.683,34.07,141.972,34.597,142.309,34.964z"/>
	<path display="inline" fill="#555555" d="M148.606,27.736c1.167-0.902,2.593-1.354,4.277-1.354h0.181
		c0.938,0,1.828,0.06,2.671,0.18c0.842,0.121,1.648,0.253,2.419,0.397c0.505,0.097,1.01,0.193,1.516,0.289
		c0.505,0.096,0.998,0.168,1.479,0.216c0.265,0.049,0.535,0.079,0.812,0.09c0.276,0.012,0.56,0.018,0.849,0.018
		c0.023,0,0.054,0,0.09,0s0.066-0.012,0.09-0.036h0.036c0.024,0,0.055,0,0.091,0s0.065,0,0.09,0c0.023,0,0.048,0,0.072,0
		c0.023,0,0.048,0,0.072,0c0.023,0.024,0.048,0.036,0.072,0.036c0.023,0,0.048,0,0.072,0c0.337,0,0.733-0.042,1.191-0.126
		c0.457-0.084,0.926-0.282,1.407-0.595c-0.217,0.698-0.602,1.335-1.155,1.913c-0.554,0.577-1.154,0.999-1.805,1.263v14.131
		c0.24-0.167,0.463-0.353,0.668-0.557c0.204-0.203,0.402-0.425,0.596-0.664c0.145-0.167,0.282-0.342,0.415-0.521
		c0.132-0.18,0.271-0.364,0.415-0.557v0.072c0,2.419-0.963,4.374-2.888,5.854c-1.926,1.48-4.031,2.293-6.316,2.437
		c-0.121,0-0.229,0-0.325,0c-0.097,0-0.192,0-0.289,0c-2.406,0-4.5-0.836-6.28-2.509c-1.781-1.672-2.671-3.758-2.671-6.248
		c0-0.023,0-0.048,0-0.072c0-0.023,0.012-0.048,0.036-0.072c0-0.023,0-0.047,0-0.071c0-0.023,0-0.048,0-0.071
		c0-0.407,0.023-0.815,0.072-1.225c0.048-0.409,0.12-0.818,0.216-1.227c0.434-1.805,1.228-3.471,2.383-5
		c1.155-1.528,2.442-2.376,3.862-2.545c-0.818,0.915-1.504,1.896-2.058,2.942c-0.554,1.047-0.891,2.112-1.011,3.195
		c-0.024,0.168-0.042,0.337-0.054,0.505c-0.013,0.168-0.019,0.337-0.019,0.505c0,2.07,0.655,3.943,1.968,5.632
		c1.311,1.695,3.098,2.543,5.359,2.543c0.049,0,0.091,0,0.127,0s0.078-0.012,0.126-0.036c0.048,0,0.096,0,0.145,0
		c0.048,0,0.084,0,0.108,0c0.77,0,1.516-0.126,2.238-0.379c0.722-0.253,1.419-0.607,2.093-1.064V30.425
		c-0.144,0.072-0.295,0.126-0.451,0.163s-0.318,0.066-0.487,0.09c-0.265,0.048-0.523,0.078-0.775,0.09
		c-0.253,0.013-0.451,0.018-0.596,0.018c-0.024,0-0.042,0-0.055,0c-0.012,0-0.03,0-0.054,0h-0.036h-0.036
		c-0.024,0.024-0.049,0.036-0.072,0.036c-0.024,0-0.049,0-0.072,0c-0.866,0-1.696-0.054-2.49-0.162
		c-0.794-0.108-1.564-0.235-2.311-0.379c-0.746-0.144-1.474-0.271-2.184-0.379s-1.39-0.162-2.039-0.162
		c-0.241,0-0.506,0.006-0.795,0.018c-0.288,0.013-0.577,0.054-0.866,0.126c-0.385,0.072-0.764,0.211-1.137,0.415
		c-0.373,0.205-0.716,0.5-1.028,0.884C146.76,29.788,147.438,28.638,148.606,27.736z M159.093,31.508v9.706
		c-0.024,0.743-0.331,1.443-0.921,2.102c-0.59,0.659-1.233,1.132-1.931,1.421c-0.217,0.097-0.428,0.169-0.632,0.217
		c-0.205,0.049-0.403,0.072-0.596,0.072c-0.024,0-0.049,0-0.072,0c-0.024,0-0.036-0.012-0.036-0.036c-0.024,0-0.049,0-0.072,0
		c-0.024,0-0.049,0-0.072,0c0.072-0.096,0.126-0.181,0.162-0.253s0.078-0.132,0.127-0.18c0.023-0.072,0.054-0.145,0.09-0.217
		s0.066-0.145,0.091-0.217c0.023-0.047,0.041-0.089,0.054-0.125c0.012-0.036,0.018-0.078,0.018-0.126v-9.224l-1.082,0.542v-1.191
		l4.259-2.491H159.093z"/>
	<path display="inline" fill="#555555" d="M172.448,35.28c0.36,0.277,0.709,0.415,1.047,0.415c0.144,0,0.288-0.018,0.433-0.054
		s0.289-0.078,0.434-0.126c0.072-0.048,0.145-0.09,0.217-0.126c0.071-0.036,0.144-0.066,0.216-0.09c0,0.096-0.006,0.199-0.018,0.307
		c-0.013,0.108-0.043,0.223-0.091,0.343c-0.096,0.433-0.307,0.842-0.631,1.227c-0.325,0.385-0.704,0.662-1.138,0.83v7.959
		c0.096,0.481,0.301,0.818,0.614,1.011c0.312,0.192,0.649,0.301,1.011,0.324c0.023,0,0.048,0,0.071,0c0.024,0,0.049,0,0.072,0
		c0.048,0,0.103,0,0.163,0c0.06,0,0.113,0,0.162,0c0.145-0.023,0.276-0.048,0.397-0.071c0.12-0.024,0.229-0.061,0.324-0.108
		l-3.104,3.14c-0.818-0.048-1.553-0.343-2.202-0.884c-0.649-0.542-0.999-1.222-1.047-2.04v-9.258
		c-0.193-0.072-0.367-0.18-0.523-0.325c-0.157-0.145-0.295-0.301-0.415-0.469l-0.542,0.397l-0.433-0.578
		c0.072-0.048,0.138-0.096,0.198-0.145c0.06-0.048,0.114-0.096,0.163-0.144c0.216-0.168,0.433-0.343,0.649-0.523
		c0.217-0.181,0.421-0.355,0.613-0.523c0.385-0.337,0.758-0.662,1.119-0.975c0.361-0.312,0.686-0.601,0.975-0.866
		C171.666,34.552,172.087,35.003,172.448,35.28z M168.82,31.111c0.181-0.12,0.354-0.229,0.523-0.325
		c0.072-0.048,0.138-0.09,0.198-0.126c0.06-0.036,0.127-0.078,0.199-0.126c0.24-0.168,0.487-0.349,0.739-0.542
		c0.253-0.192,0.535-0.409,0.849-0.65c0.385,0.505,0.733,0.854,1.047,1.047c0.312,0.193,0.601,0.289,0.866,0.289
		c0.12,0,0.24-0.018,0.361-0.054c0.12-0.036,0.24-0.078,0.36-0.126c0.023,0,0.055-0.006,0.091-0.018
		c0.036-0.012,0.065-0.03,0.09-0.054c0.023,0,0.054-0.012,0.09-0.036c0.036-0.023,0.066-0.036,0.091-0.036v0.253
		c0,0.554-0.223,1.035-0.668,1.444s-0.933,0.686-1.462,0.83c-0.097,0.024-0.205,0.042-0.325,0.054
		c-0.12,0.012-0.229,0.018-0.324,0.018c-0.024,0-0.036-0.012-0.036-0.036c-0.024,0-0.049,0-0.072,0
		c-0.097,0-0.193-0.006-0.289-0.018c-0.097-0.012-0.192-0.018-0.289-0.018c-0.337-0.048-0.655-0.163-0.956-0.343
		c-0.302-0.181-0.512-0.463-0.632-0.849l-0.649,0.397l-0.361-0.614C168.453,31.352,168.64,31.231,168.82,31.111z"/>
	<path display="inline" fill="#555555" d="M180.533,33.493c0.698,0.216,1.281,0.662,1.751,1.335
		c0.469,0.674,0.776,1.396,0.921,2.166l4.512-3.537c0.625,0.313,1.173,0.764,1.643,1.354c0.469,0.59,0.764,1.233,0.884,1.931
		l4.007-3.068c0.505,0.602,0.944,1.053,1.317,1.354c0.373,0.301,0.74,0.476,1.101,0.523c0.024,0,0.055,0,0.091,0s0.065,0,0.09,0
		c0.217,0,0.463-0.048,0.74-0.144c0.276-0.096,0.56-0.229,0.849-0.397v0.144c0,0.145-0.013,0.307-0.036,0.487
		c-0.024,0.181-0.061,0.355-0.108,0.523c-0.097,0.265-0.217,0.518-0.361,0.758s-0.337,0.457-0.577,0.649v8.573
		c0.12,0.312,0.276,0.565,0.469,0.758s0.445,0.289,0.758,0.289c0.097,0,0.199-0.013,0.308-0.036
		c0.108-0.024,0.222-0.049,0.343-0.072c0.048-0.024,0.102-0.048,0.162-0.072c0.06-0.024,0.114-0.048,0.162-0.072l-3.501,3.682
		h-0.145c-0.602-0.024-1.119-0.277-1.552-0.758c-0.434-0.481-0.674-0.999-0.722-1.553V38.33c-0.097-0.024-0.193-0.054-0.289-0.09
		c-0.097-0.036-0.193-0.078-0.289-0.126c-0.265-0.12-0.518-0.271-0.758-0.451c-0.241-0.181-0.445-0.367-0.613-0.56l-1.589,1.228
		v8.03c0.409,0.097,0.8,0.259,1.174,0.487c0.372,0.229,0.716,0.5,1.028,0.812l-2.924,2.96c-0.698-0.698-1.359-1.197-1.985-1.498
		s-1.179-0.451-1.66-0.451c-0.193,0-0.386,0.023-0.578,0.072c-0.192,0.048-0.349,0.12-0.469,0.217
		c0.072-0.529,0.294-0.999,0.668-1.408c0.373-0.409,0.775-0.758,1.209-1.047v-7.669c0-0.434-0.097-0.831-0.289-1.191
		s-0.493-0.662-0.902-0.902l-2.526,1.985v7.633c0.12,0.024,0.24,0.055,0.361,0.091c0.12,0.036,0.252,0.078,0.396,0.126
		c0.217,0.121,0.438,0.259,0.668,0.415c0.229,0.157,0.415,0.319,0.56,0.487l-3.068,3.141c-0.217-0.337-0.439-0.62-0.668-0.849
		s-0.464-0.415-0.704-0.56c-0.312-0.216-0.626-0.36-0.938-0.433s-0.602-0.108-0.866-0.108c-0.216,0-0.427,0.018-0.631,0.054
		c-0.205,0.036-0.392,0.103-0.56,0.199c0.12-0.506,0.349-0.957,0.686-1.354c0.337-0.397,0.745-0.704,1.228-0.921v-7.995
		c-0.097-0.505-0.355-0.878-0.776-1.119c-0.422-0.24-0.885-0.409-1.39-0.505L180.533,33.493z"/>
	<path display="inline" fill="#555555" d="M202.48,35.636c0.048,0.012,0.096,0.018,0.144,0.018s0.091,0.006,0.127,0.018
		s0.077,0.018,0.126,0.018c0.048,0.024,0.108,0.036,0.181,0.036s0.132,0,0.181,0c0.722,0,1.485-0.119,2.292-0.359
		c0.806-0.241,1.63-0.577,2.473-1.009c0.265-0.144,0.535-0.3,0.812-0.468c0.276-0.168,0.548-0.336,0.812-0.504
		c0.096,0.336,0.217,0.678,0.361,1.026s0.301,0.69,0.469,1.025c0.265,0.552,0.554,1.098,0.866,1.638
		c0.312,0.541,0.626,1.05,0.938,1.53c0.048,0.096,0.103,0.186,0.163,0.27c0.06,0.084,0.126,0.174,0.198,0.27
		c-0.169,0.096-0.409,0.222-0.722,0.378c-0.313,0.156-0.638,0.342-0.975,0.558l-4.44,2.689v2.907
		c0.289,0.024,0.614,0.066,0.975,0.126c0.361,0.061,0.734,0.151,1.119,0.271c0.361,0.096,0.722,0.216,1.083,0.36
		s0.686,0.289,0.975,0.434l0.83-0.794l0.722,0.613l-3.176,3.573c-0.41-0.265-0.83-0.499-1.264-0.703
		c-0.434-0.205-0.879-0.38-1.336-0.523c-0.649-0.241-1.293-0.415-1.931-0.523s-1.258-0.163-1.859-0.163
		c-0.24,0-0.487,0.007-0.739,0.019c-0.253,0.013-0.5,0.042-0.74,0.09c0.217-0.407,0.463-0.78,0.74-1.116
		c0.276-0.336,0.631-0.636,1.064-0.899v-8.805c0-0.191-0.03-0.408-0.09-0.648c-0.061-0.24-0.139-0.48-0.235-0.72
		c-0.048-0.12-0.096-0.233-0.144-0.342c-0.049-0.108-0.097-0.21-0.145-0.306C202.384,35.618,202.432,35.624,202.48,35.636z
		 M206.486,41.43l2.419-1.512c-0.169-0.24-0.331-0.499-0.487-0.776c-0.157-0.276-0.307-0.56-0.451-0.848
		c-0.217-0.385-0.403-0.764-0.56-1.137c-0.157-0.373-0.283-0.704-0.379-0.993l-0.542,0.217V41.43z"/>
	<path display="inline" fill="#555555" d="M216.088,35.641c0.145,0.013,0.301,0.031,0.469,0.054
		c0.145,0.024,0.295,0.048,0.451,0.072c0.156,0.024,0.319,0.036,0.487,0.036c0.096,0.024,0.199,0.036,0.307,0.036
		c0.108,0,0.211,0,0.308,0c0.433,0,0.884-0.048,1.354-0.145c0.469-0.096,0.932-0.265,1.39-0.505c0.312-0.168,0.619-0.379,0.92-0.632
		c0.301-0.252,0.607-0.547,0.921-0.884c0.457,0.458,0.866,0.782,1.228,0.975c0.36,0.193,0.697,0.289,1.01,0.289
		c0.289,0,0.542-0.054,0.759-0.163c0.216-0.108,0.408-0.234,0.577-0.379c0.145-0.12,0.301-0.289,0.47-0.505h0.902
		c-0.338,1.035-0.843,2.04-1.517,3.014s-1.384,1.835-2.13,2.581c-0.096,0.121-0.198,0.229-0.307,0.325s-0.211,0.193-0.307,0.289
		h3.682c-0.024,0.024-0.042,0.061-0.054,0.108c-0.013,0.048-0.03,0.096-0.055,0.144c-0.023,0.049-0.048,0.103-0.072,0.163
		c-0.023,0.061-0.036,0.114-0.036,0.162c-0.048,0.12-0.084,0.239-0.107,0.358c-0.024,0.12-0.036,0.204-0.036,0.252v6.049
		c0,0.072,0.012,0.169,0.036,0.289c0.023,0.121,0.06,0.253,0.107,0.397c0.024,0.096,0.061,0.187,0.108,0.271
		c0.048,0.085,0.097,0.162,0.145,0.234c-0.192-0.048-0.392-0.084-0.596-0.108c-0.204-0.023-0.403-0.048-0.596-0.072
		c-0.192-0.023-0.391-0.041-0.595-0.054c-0.205-0.012-0.403-0.019-0.596-0.019c-0.241,0-0.476,0.013-0.704,0.036
		c-0.229,0.024-0.464,0.061-0.704,0.108c-0.554,0.121-1.107,0.319-1.66,0.596c-0.554,0.276-1.071,0.68-1.552,1.209
		c-0.266-0.288-0.512-0.547-0.74-0.775c-0.229-0.229-0.451-0.415-0.668-0.56c-0.241-0.145-0.476-0.247-0.704-0.307
		c-0.229-0.061-0.476-0.091-0.739-0.091c-0.506,0-0.975,0.139-1.408,0.415s-0.782,0.716-1.047,1.317l-0.794,0.036
		c0.217-1.011,0.589-1.961,1.119-2.852c0.528-0.89,1.095-1.684,1.696-2.382c0.192-0.24,0.391-0.469,0.596-0.686
		c0.204-0.217,0.402-0.407,0.596-0.575h-2.491c0.072-0.096,0.139-0.197,0.199-0.306c0.06-0.107,0.102-0.221,0.126-0.341
		c0.023-0.096,0.048-0.186,0.072-0.27c0.023-0.084,0.036-0.162,0.036-0.233v-6.09c0-0.072-0.013-0.156-0.036-0.252
		c-0.024-0.096-0.049-0.192-0.072-0.289c-0.024-0.072-0.049-0.144-0.072-0.216c-0.024-0.072-0.061-0.132-0.108-0.181
		C215.799,35.611,215.943,35.629,216.088,35.641z M219.77,43.567c-0.409,0.395-0.818,0.808-1.228,1.241
		c-0.217,0.217-0.421,0.439-0.613,0.668c-0.193,0.229-0.397,0.464-0.614,0.704c0.024-0.024,0.055-0.042,0.091-0.055
		c0.036-0.012,0.078-0.018,0.126-0.018c0.192-0.072,0.421-0.132,0.686-0.181c0.265-0.048,0.542-0.072,0.831-0.072
		c0.312,0,0.649,0.049,1.011,0.145c0.36,0.097,0.733,0.265,1.118,0.505c0.192,0.145,0.385,0.302,0.578,0.47
		c0.192,0.168,0.373,0.36,0.541,0.577c0.048-0.048,0.108-0.084,0.181-0.108c0.072-0.023,0.145-0.048,0.217-0.072
		c0.12-0.023,0.229-0.041,0.324-0.054c0.097-0.012,0.156-0.019,0.181-0.019v-4.756l-0.181-0.144h-2.021
		C220.587,42.783,220.179,43.172,219.77,43.567z M219.661,41.646h0.613c0.192-0.191,0.392-0.378,0.596-0.557
		c0.204-0.181,0.403-0.354,0.596-0.521c0.457-0.457,0.908-0.914,1.354-1.371c0.445-0.457,0.885-0.951,1.317-1.48
		c0.096-0.096,0.187-0.199,0.271-0.307c0.084-0.108,0.174-0.223,0.271-0.343c-0.241,0.121-0.512,0.235-0.812,0.343
		c-0.301,0.108-0.607,0.162-0.92,0.162c-0.338,0-0.704-0.09-1.102-0.271c-0.396-0.181-0.836-0.475-1.317-0.884
		c-0.049,0.024-0.108,0.054-0.181,0.09s-0.145,0.054-0.217,0.054c-0.096,0.049-0.192,0.079-0.288,0.09
		c-0.097,0.013-0.157,0.018-0.181,0.018V41.646z"/>
</g>
<g>
	<path fill="#555555" d="M23.656,29.959c1.016-0.786,2.257-1.178,3.724-1.178h0.157c0.817,0,1.591,0.052,2.325,0.157
		c0.733,0.105,1.435,0.22,2.105,0.346c0.44,0.084,0.88,0.168,1.32,0.251c0.44,0.084,0.869,0.147,1.289,0.188
		c0.23,0.042,0.466,0.068,0.707,0.079c0.24,0.011,0.487,0.016,0.738,0.016c0.021,0,0.047,0,0.079,0s0.058-0.01,0.079-0.031h0.031
		c0.021,0,0.047,0,0.079,0s0.058,0,0.079,0c0.021,0,0.042,0,0.063,0c0.021,0,0.042,0,0.062,0c0.021,0.021,0.042,0.031,0.063,0.031
		c0.021,0,0.042,0,0.063,0c0.293,0,0.639-0.036,1.037-0.11c0.398-0.073,0.806-0.246,1.226-0.519
		c-0.188,0.608-0.524,1.163-1.005,1.666c-0.482,0.503-1.005,0.87-1.571,1.1v12.318c0.209-0.146,0.403-0.309,0.582-0.487
		c0.178-0.178,0.351-0.371,0.519-0.581c0.125-0.146,0.246-0.299,0.361-0.456c0.115-0.157,0.235-0.318,0.361-0.486v0.062
		c0,2.116-0.838,3.817-2.514,5.106c-1.676,1.288-3.509,1.995-5.499,2.121c-0.105,0-0.2,0-0.283,0c-0.084,0-0.168,0-0.251,0
		c-2.095,0-3.918-0.729-5.468-2.185c-1.55-1.455-2.325-3.272-2.325-5.451c0-0.021,0-0.042,0-0.062c0-0.021,0.01-0.043,0.031-0.063
		c0-0.021,0-0.042,0-0.062s0-0.042,0-0.063c0-0.355,0.021-0.712,0.063-1.068c0.042-0.356,0.104-0.712,0.188-1.068
		c0.377-1.571,1.068-3.021,2.074-4.352c1.006-1.33,2.126-2.068,3.362-2.215c-0.712,0.796-1.31,1.649-1.791,2.561
		c-0.482,0.912-0.775,1.838-0.88,2.781c-0.021,0.146-0.037,0.293-0.047,0.44c-0.011,0.146-0.016,0.293-0.016,0.44
		c0,1.802,0.571,3.441,1.713,4.917c1.142,1.477,2.697,2.215,4.666,2.215c0.042,0,0.079,0,0.11,0c0.032,0,0.068-0.01,0.11-0.031
		c0.042,0,0.083,0,0.125,0s0.073,0,0.094,0c0.67,0,1.32-0.109,1.948-0.33c0.628-0.22,1.236-0.528,1.823-0.927V32.3
		c-0.126,0.063-0.257,0.11-0.393,0.142c-0.136,0.031-0.278,0.058-0.424,0.079c-0.23,0.042-0.456,0.068-0.675,0.078
		c-0.22,0.011-0.393,0.016-0.519,0.016c-0.021,0-0.037,0-0.047,0s-0.026,0-0.047,0h-0.031h-0.032
		c-0.021,0.021-0.042,0.031-0.063,0.031s-0.042,0-0.062,0c-0.754,0-1.477-0.047-2.168-0.142c-0.691-0.094-1.362-0.204-2.011-0.33
		c-0.65-0.126-1.284-0.236-1.901-0.33c-0.618-0.094-1.209-0.142-1.775-0.142c-0.209,0-0.44,0.005-0.691,0.016
		c-0.251,0.011-0.503,0.047-0.754,0.11c-0.335,0.063-0.665,0.184-0.99,0.361c-0.325,0.178-0.624,0.435-0.896,0.77
		C22.048,31.746,22.639,30.745,23.656,29.959z M32.784,33.243v8.453c-0.021,0.649-0.289,1.262-0.801,1.838
		c-0.514,0.576-1.074,0.989-1.681,1.241c-0.188,0.084-0.373,0.146-0.55,0.188c-0.178,0.042-0.351,0.062-0.518,0.062
		c-0.021,0-0.042,0-0.063,0c-0.021,0-0.031-0.01-0.031-0.031c-0.021,0-0.042,0-0.063,0c-0.021,0-0.042,0-0.063,0
		c0.063-0.083,0.11-0.157,0.142-0.22c0.031-0.063,0.067-0.115,0.11-0.157c0.021-0.063,0.047-0.126,0.079-0.188
		c0.031-0.063,0.057-0.126,0.079-0.188c0.021-0.042,0.036-0.079,0.047-0.11c0.01-0.031,0.016-0.067,0.016-0.11v-8.044l-0.942,0.472
		v-1.037l3.708-2.168H32.784z"/>
	<path fill="#555555" d="M45.809,29.504c-0.115,0.335-0.204,0.681-0.267,1.037c-0.042,0.231-0.079,0.456-0.11,0.676
		c-0.031,0.22-0.047,0.424-0.047,0.613v5.939l4.085-3.08c0.167,0.272,0.34,0.514,0.519,0.723c0.178,0.209,0.351,0.377,0.519,0.503
		c0.167,0.146,0.34,0.251,0.519,0.314c0.178,0.063,0.351,0.094,0.519,0.094c0.251,0,0.502-0.057,0.754-0.173
		c0.251-0.115,0.492-0.267,0.723-0.456c0,0.147-0.011,0.305-0.031,0.473c-0.021,0.168-0.053,0.335-0.094,0.503
		c-0.084,0.315-0.215,0.62-0.393,0.914c-0.178,0.294-0.414,0.524-0.707,0.692v8.127c0,0.043,0.005,0.09,0.016,0.143
		c0.01,0.052,0.026,0.11,0.047,0.173c0.063,0.21,0.157,0.426,0.283,0.646c0.126,0.222,0.262,0.426,0.409,0.614
		c0.021,0.021,0.036,0.043,0.047,0.063c0.01,0.021,0.026,0.042,0.047,0.062c-0.188-0.062-0.424-0.12-0.707-0.173
		c-0.283-0.052-0.571-0.089-0.864-0.109c-0.042,0-0.078,0-0.11,0c-0.031,0-0.068,0-0.11,0c-0.461,0-0.875,0.062-1.241,0.188
		c-0.367,0.126-0.55,0.335-0.55,0.628l0.031,0.063h-0.031c0,0.146,0.12,0.312,0.361,0.5c0.241,0.188,0.497,0.416,0.77,0.688
		c0.272,0.249,0.518,0.546,0.738,0.891c0.22,0.343,0.351,0.743,0.393,1.202c-0.021,0.541-0.199,0.994-0.534,1.359
		c-0.335,0.363-0.712,0.599-1.131,0.702c-0.084,0.021-0.163,0.036-0.236,0.047c-0.074,0.011-0.152,0.016-0.236,0.016
		c-0.23,0-0.451-0.058-0.66-0.173c-0.21-0.115-0.367-0.288-0.471-0.519c0.293-0.104,0.534-0.26,0.723-0.468s0.283-0.447,0.283-0.717
		c-0.021-0.167-0.063-0.328-0.126-0.484c-0.062-0.156-0.125-0.317-0.188-0.483c-0.042-0.042-0.079-0.094-0.11-0.155
		c-0.031-0.062-0.058-0.125-0.079-0.188c-0.146-0.25-0.272-0.515-0.377-0.795c-0.105-0.281-0.157-0.609-0.157-0.983l-0.031-0.062
		c0-0.23,0.031-0.419,0.094-0.565c0.063-0.147,0.136-0.283,0.22-0.409c0.021,0,0.037-0.005,0.047-0.016
		c0.01-0.01,0.016-0.025,0.016-0.047c0.063-0.104,0.131-0.225,0.204-0.361c0.073-0.136,0.121-0.288,0.142-0.455v-8.328
		c-0.105-0.021-0.231-0.057-0.377-0.11c-0.147-0.052-0.294-0.12-0.44-0.204c-0.126-0.063-0.251-0.142-0.377-0.236
		c-0.125-0.094-0.241-0.183-0.345-0.267c-0.063-0.042-0.11-0.079-0.142-0.11s-0.068-0.068-0.11-0.11l-1.54,1.225v6.725
		c0.105,0.021,0.22,0.047,0.346,0.078c0.126,0.031,0.251,0.068,0.377,0.11c0.251,0.104,0.502,0.24,0.754,0.408
		s0.471,0.366,0.66,0.597l-2.796,2.608c-0.587-0.607-1.152-1.053-1.697-1.336c-0.545-0.282-1.048-0.424-1.508-0.424
		c-0.105,0-0.209,0.006-0.314,0.016c-0.105,0.011-0.209,0.037-0.314,0.079c-0.105,0.021-0.209,0.052-0.314,0.094
		s-0.209,0.095-0.314,0.157c0.125-0.482,0.361-0.923,0.707-1.321c0.346-0.399,0.78-0.703,1.304-0.913V32.652
		c0-0.251-0.047-0.545-0.141-0.881s-0.226-0.671-0.393-1.007c0.523,0,1.021-0.094,1.493-0.283c0.472-0.188,0.938-0.43,1.398-0.724
		c0.251-0.147,0.503-0.315,0.754-0.504c0.251-0.188,0.503-0.377,0.754-0.567C46.034,28.896,45.924,29.169,45.809,29.504z"/>
	<path fill="#555555" d="M55.596,36.836c0.042,0.01,0.083,0.015,0.125,0.015s0.079,0.005,0.11,0.016
		c0.032,0.011,0.068,0.016,0.11,0.016c0.042,0.021,0.094,0.031,0.157,0.031c0.063,0,0.115,0,0.157,0
		c0.628,0,1.293-0.104,1.996-0.313c0.702-0.209,1.419-0.502,2.152-0.878c0.23-0.125,0.466-0.261,0.707-0.408
		c0.241-0.146,0.476-0.292,0.707-0.439c0.083,0.292,0.188,0.59,0.314,0.893c0.126,0.303,0.262,0.601,0.409,0.893
		c0.23,0.481,0.481,0.956,0.754,1.426c0.272,0.471,0.545,0.915,0.817,1.332c0.042,0.083,0.089,0.162,0.141,0.235
		s0.11,0.151,0.173,0.235c-0.147,0.083-0.356,0.193-0.628,0.329c-0.272,0.136-0.555,0.299-0.848,0.486l-3.865,2.35v2.537
		c0.251,0.021,0.534,0.059,0.849,0.11c0.314,0.053,0.639,0.131,0.974,0.235c0.314,0.084,0.628,0.188,0.942,0.314
		c0.314,0.126,0.597,0.251,0.849,0.377l0.723-0.691l0.628,0.534l-2.765,3.111c-0.356-0.231-0.723-0.436-1.1-0.613
		c-0.377-0.178-0.765-0.33-1.163-0.455c-0.565-0.21-1.126-0.361-1.681-0.456c-0.555-0.094-1.095-0.142-1.618-0.142
		c-0.209,0-0.424,0.006-0.644,0.016c-0.22,0.012-0.435,0.037-0.644,0.079c0.188-0.355,0.403-0.679,0.644-0.972
		c0.241-0.293,0.55-0.554,0.927-0.783v-7.681c0-0.167-0.026-0.355-0.079-0.564c-0.052-0.209-0.121-0.417-0.204-0.627
		c-0.042-0.104-0.084-0.203-0.125-0.297c-0.042-0.094-0.084-0.183-0.126-0.267C55.512,36.821,55.554,36.826,55.596,36.836z
		 M59.084,41.885l2.105-1.32c-0.147-0.209-0.289-0.435-0.424-0.676c-0.137-0.24-0.267-0.487-0.393-0.738
		c-0.189-0.335-0.351-0.665-0.487-0.99c-0.136-0.325-0.247-0.613-0.33-0.864l-0.471,0.188V41.885z"/>
	<path fill="#555555" d="M78.975,29.645c0.335,0.346,0.67,0.603,1.006,0.77c0.125,0.084,0.256,0.141,0.393,0.173
		c0.136,0.031,0.267,0.047,0.393,0.047c0.105,0,0.209-0.016,0.314-0.047c0.104-0.032,0.209-0.068,0.314-0.11
		c0.042-0.021,0.094-0.047,0.157-0.079c0.063-0.032,0.115-0.058,0.157-0.079c0,0.105-0.005,0.209-0.016,0.314
		c-0.011,0.105-0.026,0.21-0.047,0.314c-0.062,0.231-0.162,0.445-0.298,0.644c-0.137,0.199-0.33,0.372-0.582,0.519v13.701
		c-0.105,0.963-0.523,1.718-1.257,2.262c-0.733,0.545-1.529,0.9-2.388,1.068c-0.125,0.042-0.256,0.073-0.393,0.095
		c-0.137,0.021-0.267,0.031-0.393,0.031c-0.147,0-0.299,0-0.456,0c-0.157,0-0.309,0.011-0.456,0.031
		c-0.922,0.042-1.775,0.199-2.561,0.472c-0.786,0.271-1.231,0.732-1.335,1.383c0,0.021,0,0.041,0,0.062c0,0.021,0,0.042,0,0.062
		c0.021,0.146,0.083,0.277,0.188,0.394c0.104,0.114,0.24,0.173,0.408,0.173l0.188,0.031c0.251-0.021,0.477-0.074,0.676-0.157
		c0.199-0.084,0.393-0.179,0.582-0.283c0.146-0.104,0.288-0.209,0.424-0.314c0.136-0.104,0.288-0.209,0.456-0.313
		c0.335-0.231,0.739-0.451,1.21-0.66c0.471-0.21,1.063-0.325,1.775-0.346c0.063,0,0.13,0,0.204,0c0.073,0,0.142,0.011,0.205,0.031
		c0.628,0.063,1.209,0.299,1.744,0.707s0.822,0.99,0.864,1.744c0,0.649-0.231,1.163-0.691,1.54
		c-0.461,0.377-0.964,0.607-1.508,0.691c-0.084,0-0.163,0.005-0.235,0.016c-0.074,0.01-0.142,0.016-0.205,0.016
		c-0.188,0-0.372-0.021-0.55-0.063c-0.178-0.042-0.351-0.104-0.519-0.188v-0.659c0.146,0.021,0.309,0.052,0.487,0.094
		c0.178,0.042,0.361,0.062,0.55,0.062c0.021,0,0.047,0,0.079,0c0.031,0,0.057,0,0.079,0c0.272-0.021,0.523-0.104,0.754-0.251
		s0.356-0.388,0.377-0.723c-0.021-0.21-0.089-0.372-0.204-0.487c-0.115-0.115-0.278-0.193-0.487-0.235
		c-0.482,0.021-0.927,0.146-1.335,0.377c-0.409,0.23-0.812,0.481-1.21,0.754c-0.021,0.021-0.042,0.042-0.063,0.063
		c-0.021,0.021-0.042,0.031-0.062,0.031c-0.44,0.314-0.885,0.602-1.335,0.864c-0.451,0.262-0.958,0.393-1.524,0.393
		c-0.084,0-0.162-0.006-0.235-0.016c-0.074-0.011-0.142-0.016-0.205-0.016c-0.691-0.105-1.314-0.398-1.87-0.88
		c-0.555-0.482-0.833-1.079-0.833-1.791c0.021-0.691,0.283-1.272,0.786-1.744s1.068-0.812,1.697-1.021
		c-0.901-0.146-1.687-0.534-2.357-1.162c-0.67-0.629-1.005-1.394-1.005-2.294v-5.279c-0.021-0.167-0.089-0.303-0.204-0.409
		c-0.115-0.104-0.257-0.167-0.424-0.188h-0.125c-0.272,0-0.503,0.094-0.691,0.283c-0.188,0.189-0.304,0.388-0.346,0.598
		c-0.021,0.042-0.031,0.078-0.031,0.109c0,0.032,0,0.068,0,0.11c-0.251-0.104-0.44-0.271-0.566-0.503
		c-0.125-0.23-0.209-0.481-0.251-0.754c-0.021-0.125-0.037-0.256-0.047-0.393c-0.011-0.136-0.016-0.256-0.016-0.361
		c0-0.628,0.225-1.178,0.675-1.65c0.45-0.471,1.011-0.707,1.681-0.707h0.346v-4.273c-0.084-0.209-0.209-0.382-0.377-0.518
		c-0.168-0.136-0.346-0.225-0.534-0.267c-0.042-0.021-0.084-0.032-0.126-0.032s-0.083,0-0.125,0c-0.021,0-0.047,0-0.079,0
		c-0.031,0-0.058,0-0.079,0c-0.335,0.063-0.644,0.236-0.927,0.519s-0.435,0.624-0.456,1.021c-0.147-0.167-0.251-0.351-0.314-0.55
		c-0.063-0.199-0.094-0.413-0.094-0.644c0-0.125,0.01-0.251,0.031-0.377c0.021-0.126,0.052-0.251,0.095-0.377
		c0.188-0.628,0.57-1.205,1.146-1.729c0.576-0.523,1.273-0.786,2.09-0.786c0.984,0,1.744,0.351,2.278,1.053
		c0.534,0.702,0.801,1.671,0.801,2.907v0.283c0.042-0.021,0.083-0.047,0.125-0.079c0.042-0.031,0.083-0.057,0.125-0.079
		c0.042-0.021,0.083-0.047,0.126-0.079c0.042-0.031,0.083-0.057,0.125-0.078c0.126-0.083,0.241-0.167,0.346-0.251
		c0.104-0.083,0.188-0.157,0.251-0.22v-3.394h0.911v2.734c0.628-0.377,1.257-0.817,1.885-1.32c0.629-0.503,1.246-1.016,1.854-1.54
		C78.284,28.896,78.64,29.299,78.975,29.645z M72.989,33.306c-0.094,0.063-0.204,0.137-0.33,0.22
		c-0.062,0.042-0.136,0.089-0.22,0.141c-0.084,0.053-0.168,0.1-0.251,0.142v12.978c0,0.042,0.005,0.09,0.016,0.142
		c0.01,0.053,0.026,0.109,0.047,0.173c0.062,0.209,0.173,0.408,0.33,0.597c0.157,0.188,0.33,0.325,0.519,0.408
		c0.021,0,0.047,0.006,0.079,0.017s0.058,0.016,0.079,0.016V33.117C73.172,33.18,73.083,33.243,72.989,33.306z M75.267,31.656
		c-0.126,0.094-0.251,0.194-0.377,0.298c-0.125,0.084-0.246,0.173-0.361,0.267s-0.235,0.173-0.361,0.236v3.708
		c0.083,0.062,0.199,0.11,0.346,0.141c0.146,0.032,0.293,0.058,0.44,0.079c0.209,0.021,0.398,0.031,0.565,0.031s0.283,0,0.346,0
		c0.042,0,0.073,0,0.094,0v0.032h0.032h0.062c0.105,0,0.225-0.005,0.361-0.016s0.278-0.026,0.424-0.047
		c0.126-0.021,0.251-0.052,0.377-0.094c0.125-0.042,0.24-0.094,0.345-0.157v-3.739c-0.146-0.021-0.283-0.047-0.408-0.079
		c-0.126-0.031-0.241-0.079-0.346-0.141c-0.188-0.083-0.382-0.188-0.582-0.314c-0.199-0.125-0.414-0.283-0.644-0.471
		C75.497,31.473,75.393,31.562,75.267,31.656z M74.167,41.444c0.083-0.021,0.188-0.047,0.314-0.078
		c0.125-0.031,0.251-0.058,0.377-0.079c0.188-0.021,0.372-0.041,0.55-0.062c0.178-0.021,0.288-0.031,0.33-0.031
		c0.104,0,0.319,0.016,0.644,0.047c0.325,0.031,0.676,0.09,1.053,0.173c0.021,0,0.042,0.006,0.063,0.016
		c0.021,0.011,0.042,0.016,0.062,0.016V37.14c-0.293,0.084-0.576,0.146-0.848,0.188c-0.272,0.042-0.482,0.062-0.628,0.062h-0.063
		H75.99v-0.031c-0.021,0-0.053,0-0.094,0c-0.042,0-0.074,0-0.094,0v0.031H75.77c-0.021,0-0.042,0-0.062,0
		c-0.105,0-0.251-0.01-0.44-0.031c-0.189-0.021-0.388-0.052-0.597-0.094c-0.084-0.021-0.168-0.042-0.251-0.063
		c-0.084-0.021-0.168-0.042-0.251-0.062V41.444z M74.167,48.357c0.083,0.021,0.193,0.036,0.33,0.047
		c0.136,0.011,0.288,0.016,0.456,0.016c0.146,0,0.293-0.011,0.44-0.031c0.146-0.021,0.303-0.053,0.471-0.094
		c0.377-0.063,0.733-0.221,1.068-0.472c0.335-0.252,0.544-0.618,0.628-1.1v-4.368c-0.377-0.104-0.712-0.173-1.005-0.204
		c-0.293-0.031-0.514-0.048-0.66-0.048h-0.314c-0.105,0-0.283,0.017-0.534,0.048s-0.545,0.1-0.88,0.204V48.357z"/>
	<path fill="#555555" d="M84.96,36.81c0.262,0.031,0.529,0.047,0.801,0.047c0.083,0,0.162,0,0.235,0s0.152,0,0.236,0
		c1.026-0.062,2.037-0.267,3.032-0.613c0.995-0.345,1.912-0.864,2.75-1.555c0.398,0.524,0.806,0.985,1.226,1.383
		c0.419,0.398,0.859,0.597,1.32,0.597c0.083,0,0.167-0.005,0.251-0.016c0.083-0.01,0.167-0.036,0.251-0.079
		c0.083-0.021,0.167-0.052,0.251-0.094c0.083-0.042,0.167-0.083,0.251-0.125c0,0.084-0.005,0.163-0.016,0.235
		c-0.011,0.074-0.026,0.152-0.047,0.236c-0.084,0.335-0.235,0.649-0.456,0.943c-0.22,0.293-0.456,0.492-0.707,0.597v7.259
		c0,0.125,0.01,0.267,0.032,0.424c0.021,0.157,0.052,0.319,0.094,0.487c0.042,0.188,0.099,0.361,0.173,0.519
		c0.073,0.156,0.162,0.298,0.267,0.424c-0.188-0.042-0.393-0.073-0.613-0.095c-0.22-0.021-0.445-0.041-0.676-0.062
		c-0.063,0-0.121,0-0.173,0s-0.11,0-0.173,0c-0.398,0-0.807,0.026-1.226,0.078c-0.419,0.053-0.848,0.142-1.288,0.268
		c-0.608,0.188-1.2,0.43-1.775,0.723c-0.576,0.293-1.116,0.681-1.618,1.163c-0.671-0.713-1.252-1.194-1.744-1.446
		c-0.492-0.251-0.948-0.377-1.367-0.377c-0.188,0-0.377,0.021-0.566,0.063c-0.188,0.042-0.388,0.084-0.597,0.125
		c0.042-0.418,0.214-0.785,0.519-1.1c0.303-0.314,0.644-0.555,1.021-0.723v-8.327c-0.021-0.063-0.047-0.136-0.079-0.22
		c-0.031-0.083-0.068-0.178-0.11-0.283c0-0.021-0.005-0.047-0.016-0.079c-0.011-0.031-0.027-0.058-0.047-0.079
		c-0.042-0.083-0.079-0.157-0.11-0.22c-0.031-0.063-0.058-0.115-0.079-0.157C84.442,36.752,84.698,36.778,84.96,36.81z
		 M87.804,45.624c0.146,0.021,0.298,0.052,0.456,0.094s0.309,0.095,0.456,0.157c0.272,0.105,0.534,0.23,0.786,0.377
		s0.45,0.335,0.597,0.565c0.062-0.042,0.136-0.078,0.22-0.109c0.083-0.032,0.167-0.058,0.251-0.079
		c0.104-0.021,0.204-0.042,0.298-0.062s0.183-0.031,0.267-0.031v-7.919c-0.398-0.063-0.775-0.214-1.131-0.456
		c-0.356-0.241-0.628-0.529-0.817-0.864c-0.062,0.042-0.157,0.084-0.283,0.126c-0.125,0.042-0.251,0.074-0.377,0.094
		c-0.147,0.042-0.288,0.074-0.424,0.094c-0.136,0.021-0.236,0.031-0.298,0.031V45.624z"/>
	<path fill="#555555" d="M105.18,36.252c0.293,0.319,0.607,0.479,0.943,0.479c0.104,0,0.214-0.017,0.33-0.051
		c0.115-0.034,0.236-0.085,0.361-0.152c0.042-0.045,0.095-0.084,0.157-0.118c0.063-0.034,0.126-0.073,0.188-0.119v0.508
		c0,0.804-0.246,1.444-0.738,1.92c-0.492,0.477-1.042,0.714-1.649,0.714c-0.084,0-0.168-0.005-0.251-0.016
		c-0.084-0.01-0.168-0.026-0.251-0.047c-0.251-0.063-0.498-0.162-0.738-0.299c-0.241-0.136-0.467-0.309-0.676-0.519l-1.005,1.068
		v5.908c0.125,0,0.256,0.016,0.393,0.047s0.267,0.079,0.393,0.142c0.209,0.084,0.414,0.188,0.613,0.314s0.372,0.262,0.519,0.408
		l0.566-0.503l0.534,0.565l-3.143,3.08c-0.628-0.629-1.226-1.079-1.791-1.352c-0.565-0.271-1.089-0.408-1.571-0.408
		c-0.251,0-0.492,0.031-0.723,0.094c-0.23,0.063-0.451,0.157-0.66,0.283c0.021-0.44,0.183-0.855,0.487-1.244
		s0.623-0.688,0.958-0.897c0.063-0.042,0.12-0.073,0.173-0.095c0.052-0.021,0.099-0.042,0.142-0.062v-6.709
		c-0.105-0.231-0.267-0.436-0.487-0.614c-0.22-0.179-0.456-0.32-0.707-0.425c-0.105-0.042-0.209-0.079-0.314-0.11
		c-0.105-0.032-0.21-0.058-0.314-0.079c0.733-0.42,1.314-0.882,1.744-1.386c0.429-0.503,0.812-1.071,1.147-1.701
		c0.502,0.251,0.927,0.603,1.272,1.053c0.346,0.451,0.623,1.137,0.833,2.058c0.146-0.146,0.304-0.309,0.472-0.487
		c0.167-0.178,0.324-0.372,0.471-0.582c0.125-0.125,0.246-0.256,0.361-0.393c0.115-0.136,0.225-0.277,0.33-0.424
		c0.167-0.209,0.324-0.419,0.471-0.628c0.146-0.209,0.283-0.409,0.409-0.597C104.635,35.474,104.887,35.932,105.18,36.252z"/>
	<path fill="#555555" d="M109.328,31.279c0.042,0.011,0.083,0.016,0.125,0.016c0.021,0,0.042,0.005,0.063,0.016
		c0.021,0.011,0.042,0.016,0.063,0.016c0.042,0,0.073,0,0.094,0c0.021,0,0.042,0,0.062,0c0.503,0,1.089-0.173,1.76-0.519
		s1.424-0.853,2.263-1.524c-0.021,0.042-0.047,0.1-0.079,0.173c-0.032,0.074-0.058,0.142-0.079,0.204
		c-0.042,0.105-0.084,0.215-0.125,0.33c-0.042,0.115-0.084,0.236-0.126,0.361c-0.042,0.188-0.084,0.377-0.125,0.566
		c-0.042,0.188-0.063,0.345-0.063,0.471v6.599l3.928-2.828c0.126,0.251,0.272,0.529,0.44,0.833c0.167,0.304,0.335,0.613,0.503,0.927
		c0.062,0.084,0.125,0.178,0.188,0.283c0.063,0.105,0.125,0.21,0.188,0.314c0.209,0.356,0.419,0.691,0.628,1.005
		c0.209,0.314,0.398,0.577,0.565,0.786l-3.048,2.012c0.482,0.796,0.859,1.555,1.131,2.277c0.272,0.723,0.534,1.347,0.786,1.87
		c0.209,0.481,0.435,0.863,0.675,1.146s0.55,0.424,0.927,0.424c0.083,0,0.178-0.01,0.283-0.031c0.104-0.021,0.209-0.041,0.314-0.062
		c0.042,0,0.078-0.005,0.11-0.016c0.031-0.011,0.067-0.026,0.109-0.047l-2.985,2.891c-0.796-0.294-1.351-0.691-1.665-1.194
		c-0.314-0.503-0.587-1.12-0.817-1.854c-0.146-0.545-0.319-1.137-0.518-1.775c-0.2-0.639-0.477-1.325-0.833-2.059l-0.911,0.66v2.451
		c0.063,0.021,0.13,0.042,0.204,0.062c0.073,0.021,0.142,0.042,0.205,0.062c0.272,0.105,0.534,0.263,0.785,0.472
		c0.251,0.21,0.429,0.43,0.534,0.66l-2.451,2.419c-0.293-0.397-0.649-0.743-1.068-1.037c-0.419-0.293-0.838-0.502-1.257-0.628
		c-0.188-0.062-0.373-0.11-0.55-0.142c-0.178-0.031-0.351-0.047-0.518-0.047c-0.042,0-0.079,0-0.11,0c-0.031,0-0.068,0-0.11,0
		s-0.079,0.005-0.11,0.016s-0.068,0.016-0.11,0.016c0.021-0.355,0.151-0.67,0.393-0.942c0.241-0.272,0.55-0.514,0.927-0.723V32.615
		c-0.021-0.251-0.079-0.472-0.173-0.66s-0.205-0.346-0.33-0.471c-0.042-0.042-0.079-0.083-0.11-0.125
		c-0.032-0.042-0.068-0.073-0.11-0.095C109.244,31.263,109.286,31.269,109.328,31.279z M113.162,39.15v3.331l3.394-2.231
		c-0.105-0.105-0.22-0.246-0.346-0.424c-0.125-0.178-0.262-0.372-0.408-0.582c-0.063-0.104-0.126-0.209-0.188-0.314
		c-0.063-0.104-0.126-0.209-0.189-0.314c-0.062-0.125-0.125-0.251-0.188-0.377c-0.062-0.125-0.125-0.241-0.188-0.346L113.162,39.15z
		"/>
	<path fill="#555555" d="M123.5,36.836c0.041,0.01,0.083,0.015,0.125,0.015s0.079,0.005,0.11,0.016
		c0.031,0.011,0.067,0.016,0.11,0.016c0.041,0.021,0.094,0.031,0.156,0.031c0.063,0,0.115,0,0.157,0
		c0.629,0,1.294-0.104,1.996-0.313c0.701-0.209,1.419-0.502,2.152-0.878c0.23-0.125,0.466-0.261,0.707-0.408
		c0.24-0.146,0.477-0.292,0.707-0.439c0.083,0.292,0.188,0.59,0.314,0.893c0.125,0.303,0.262,0.601,0.408,0.893
		c0.23,0.481,0.481,0.956,0.754,1.426c0.272,0.471,0.545,0.915,0.817,1.332c0.042,0.083,0.089,0.162,0.142,0.235
		c0.052,0.073,0.109,0.151,0.173,0.235c-0.147,0.083-0.356,0.193-0.629,0.329c-0.272,0.136-0.556,0.299-0.849,0.486l-3.864,2.35
		v2.537c0.251,0.021,0.534,0.059,0.848,0.11c0.314,0.053,0.639,0.131,0.975,0.235c0.314,0.084,0.628,0.188,0.942,0.314
		s0.597,0.251,0.849,0.377l0.723-0.691l0.628,0.534l-2.765,3.111c-0.356-0.231-0.723-0.436-1.1-0.613s-0.766-0.33-1.163-0.455
		c-0.565-0.21-1.126-0.361-1.681-0.456c-0.556-0.094-1.096-0.142-1.619-0.142c-0.209,0-0.424,0.006-0.644,0.016
		c-0.221,0.012-0.436,0.037-0.645,0.079c0.188-0.355,0.403-0.679,0.645-0.972c0.24-0.293,0.55-0.554,0.927-0.783v-7.681
		c0-0.167-0.026-0.355-0.079-0.564c-0.052-0.209-0.12-0.417-0.204-0.627c-0.042-0.104-0.084-0.203-0.125-0.297
		c-0.043-0.094-0.084-0.183-0.126-0.267C123.416,36.821,123.457,36.826,123.5,36.836z M126.988,41.885l2.104-1.32
		c-0.146-0.209-0.288-0.435-0.424-0.676c-0.137-0.24-0.268-0.487-0.393-0.738c-0.188-0.335-0.352-0.665-0.487-0.99
		c-0.137-0.325-0.246-0.613-0.33-0.864l-0.471,0.188V41.885z"/>
	<path fill="#555555" d="M141.883,36.252c0.293,0.319,0.606,0.479,0.942,0.479c0.104,0,0.215-0.017,0.33-0.051
		c0.114-0.034,0.235-0.085,0.361-0.152c0.041-0.045,0.094-0.084,0.157-0.118c0.062-0.034,0.125-0.073,0.188-0.119v0.508
		c0,0.804-0.247,1.444-0.738,1.92c-0.493,0.477-1.043,0.714-1.65,0.714c-0.084,0-0.168-0.005-0.251-0.016
		c-0.084-0.01-0.168-0.026-0.252-0.047c-0.251-0.063-0.497-0.162-0.738-0.299c-0.241-0.136-0.466-0.309-0.676-0.519l-1.005,1.068
		v5.908c0.126,0,0.256,0.016,0.393,0.047c0.136,0.031,0.268,0.079,0.393,0.142c0.209,0.084,0.414,0.188,0.613,0.314
		c0.198,0.126,0.371,0.262,0.519,0.408l0.565-0.503l0.534,0.565l-3.143,3.08c-0.628-0.629-1.226-1.079-1.791-1.352
		c-0.565-0.271-1.09-0.408-1.571-0.408c-0.251,0-0.492,0.031-0.723,0.094c-0.23,0.063-0.45,0.157-0.66,0.283
		c0.021-0.44,0.184-0.855,0.487-1.244s0.623-0.688,0.959-0.897c0.062-0.042,0.12-0.073,0.173-0.095
		c0.052-0.021,0.099-0.042,0.141-0.062v-6.709c-0.104-0.231-0.267-0.436-0.486-0.614c-0.221-0.179-0.456-0.32-0.707-0.425
		c-0.105-0.042-0.21-0.079-0.314-0.11c-0.105-0.032-0.21-0.058-0.314-0.079c0.733-0.42,1.314-0.882,1.744-1.386
		c0.429-0.503,0.812-1.071,1.146-1.701c0.503,0.251,0.928,0.603,1.272,1.053c0.346,0.451,0.623,1.137,0.833,2.058
		c0.146-0.146,0.304-0.309,0.472-0.487c0.167-0.178,0.324-0.372,0.471-0.582c0.126-0.125,0.246-0.256,0.362-0.393
		c0.114-0.136,0.225-0.277,0.329-0.424c0.168-0.209,0.325-0.419,0.472-0.628s0.283-0.409,0.408-0.597
		C141.337,35.474,141.589,35.932,141.883,36.252z"/>
	<path fill="#555555" d="M147.365,29.959c1.016-0.786,2.257-1.178,3.724-1.178h0.157c0.816,0,1.592,0.052,2.325,0.157
		c0.732,0.105,1.435,0.22,2.105,0.346c0.439,0.084,0.88,0.168,1.319,0.251c0.44,0.084,0.869,0.147,1.288,0.188
		c0.23,0.042,0.466,0.068,0.707,0.079c0.241,0.011,0.487,0.016,0.738,0.016c0.021,0,0.048,0,0.079,0s0.058-0.01,0.078-0.031h0.032
		c0.021,0,0.047,0,0.078,0s0.058,0,0.078,0c0.021,0,0.042,0,0.063,0c0.021,0,0.042,0,0.062,0c0.021,0.021,0.042,0.031,0.062,0.031
		c0.021,0,0.042,0,0.063,0c0.293,0,0.639-0.036,1.037-0.11c0.397-0.073,0.806-0.246,1.226-0.519
		c-0.188,0.608-0.524,1.163-1.006,1.666c-0.482,0.503-1.006,0.87-1.571,1.1v12.318c0.209-0.146,0.403-0.309,0.581-0.487
		c0.178-0.178,0.351-0.371,0.519-0.581c0.126-0.146,0.246-0.299,0.361-0.456s0.236-0.318,0.361-0.486v0.062
		c0,2.116-0.838,3.817-2.514,5.106c-1.676,1.288-3.509,1.995-5.499,2.121c-0.104,0-0.199,0-0.282,0c-0.084,0-0.168,0-0.252,0
		c-2.095,0-3.917-0.729-5.468-2.185c-1.55-1.455-2.325-3.272-2.325-5.451c0-0.021,0-0.042,0-0.062c0-0.021,0.011-0.043,0.032-0.063
		c0-0.021,0-0.042,0-0.062s0-0.042,0-0.063c0-0.355,0.021-0.712,0.062-1.068c0.042-0.356,0.104-0.712,0.188-1.068
		c0.377-1.571,1.068-3.021,2.074-4.352c1.005-1.33,2.126-2.068,3.362-2.215c-0.713,0.796-1.31,1.649-1.791,2.561
		c-0.482,0.912-0.775,1.838-0.88,2.781c-0.021,0.146-0.037,0.293-0.048,0.44s-0.016,0.293-0.016,0.44
		c0,1.802,0.57,3.441,1.713,4.917c1.142,1.477,2.697,2.215,4.666,2.215c0.042,0,0.079,0,0.11,0s0.067-0.01,0.109-0.031
		c0.042,0,0.084,0,0.126,0s0.073,0,0.095,0c0.67,0,1.319-0.109,1.948-0.33c0.628-0.22,1.235-0.528,1.822-0.927V32.3
		c-0.126,0.063-0.257,0.11-0.393,0.142c-0.137,0.031-0.278,0.058-0.425,0.079c-0.23,0.042-0.455,0.068-0.676,0.078
		c-0.22,0.011-0.393,0.016-0.519,0.016c-0.021,0-0.036,0-0.047,0s-0.026,0-0.047,0h-0.031h-0.031
		c-0.021,0.021-0.043,0.031-0.063,0.031s-0.042,0-0.062,0c-0.754,0-1.477-0.047-2.168-0.142s-1.362-0.204-2.012-0.33
		c-0.649-0.126-1.283-0.236-1.9-0.33c-0.618-0.094-1.21-0.142-1.775-0.142c-0.21,0-0.44,0.005-0.691,0.016
		c-0.252,0.011-0.503,0.047-0.754,0.11c-0.336,0.063-0.666,0.184-0.99,0.361c-0.325,0.178-0.624,0.435-0.896,0.77
		C145.757,31.746,146.349,30.745,147.365,29.959z M156.493,33.243v8.453c-0.021,0.649-0.288,1.262-0.801,1.838
		c-0.514,0.576-1.074,0.989-1.682,1.241c-0.188,0.084-0.372,0.146-0.55,0.188s-0.351,0.062-0.519,0.062c-0.021,0-0.042,0-0.062,0
		c-0.021,0-0.031-0.01-0.031-0.031c-0.021,0-0.042,0-0.063,0c-0.021,0-0.042,0-0.062,0c0.062-0.083,0.11-0.157,0.142-0.22
		c0.031-0.063,0.067-0.115,0.109-0.157c0.021-0.063,0.048-0.126,0.079-0.188c0.031-0.063,0.058-0.126,0.078-0.188
		c0.021-0.042,0.037-0.079,0.048-0.11c0.01-0.031,0.016-0.067,0.016-0.11v-8.044l-0.943,0.472v-1.037l3.708-2.168H156.493z"/>
	<path fill="#555555" d="M168.12,36.527c0.314,0.241,0.617,0.361,0.911,0.361c0.126,0,0.251-0.016,0.377-0.047
		c0.126-0.031,0.251-0.068,0.377-0.11c0.062-0.042,0.126-0.079,0.188-0.11c0.063-0.032,0.126-0.058,0.188-0.079
		c0,0.084-0.005,0.173-0.016,0.267s-0.037,0.194-0.078,0.298c-0.084,0.377-0.268,0.733-0.55,1.068
		c-0.283,0.335-0.613,0.577-0.99,0.723v6.945c0.084,0.419,0.262,0.712,0.534,0.88s0.565,0.262,0.88,0.282c0.021,0,0.042,0,0.062,0
		s0.042,0,0.063,0c0.041,0,0.089,0,0.142,0c0.052,0,0.099,0,0.141,0c0.126-0.021,0.241-0.041,0.346-0.062
		c0.104-0.021,0.199-0.052,0.283-0.095l-2.702,2.734c-0.713-0.042-1.352-0.299-1.917-0.771c-0.565-0.471-0.87-1.062-0.911-1.775
		v-8.075c-0.168-0.063-0.32-0.157-0.456-0.283c-0.137-0.126-0.257-0.262-0.361-0.409l-0.472,0.346l-0.377-0.502
		c0.063-0.042,0.121-0.083,0.173-0.126c0.053-0.042,0.1-0.083,0.142-0.125c0.188-0.146,0.377-0.299,0.565-0.456
		c0.188-0.157,0.366-0.309,0.534-0.456c0.335-0.293,0.66-0.576,0.975-0.848c0.314-0.272,0.597-0.523,0.849-0.754
		C167.438,35.894,167.806,36.286,168.12,36.527z M164.962,32.897c0.157-0.104,0.309-0.199,0.456-0.283
		c0.062-0.042,0.12-0.079,0.173-0.11c0.052-0.031,0.109-0.067,0.172-0.11c0.21-0.146,0.425-0.303,0.645-0.471
		c0.22-0.167,0.466-0.356,0.738-0.565c0.335,0.439,0.639,0.744,0.911,0.911c0.272,0.168,0.523,0.251,0.755,0.251
		c0.104,0,0.209-0.016,0.313-0.047s0.21-0.068,0.314-0.11c0.021,0,0.047-0.005,0.079-0.016c0.031-0.01,0.057-0.026,0.078-0.047
		c0.021,0,0.047-0.01,0.078-0.031c0.032-0.021,0.058-0.032,0.079-0.032v0.22c0,0.482-0.194,0.901-0.581,1.257
		c-0.389,0.356-0.812,0.597-1.272,0.723c-0.084,0.021-0.179,0.037-0.283,0.047c-0.105,0.011-0.199,0.016-0.283,0.016
		c-0.021,0-0.031-0.01-0.031-0.031c-0.021,0-0.042,0-0.062,0c-0.084,0-0.168-0.005-0.252-0.016c-0.084-0.01-0.168-0.016-0.251-0.016
		c-0.294-0.042-0.571-0.141-0.833-0.298s-0.445-0.403-0.55-0.739l-0.565,0.346l-0.314-0.534
		C164.643,33.107,164.805,33.002,164.962,32.897z"/>
	<path fill="#555555" d="M175.157,34.971c0.607,0.188,1.116,0.577,1.524,1.163c0.408,0.587,0.676,1.215,0.801,1.885l3.928-3.079
		c0.545,0.272,1.021,0.665,1.431,1.178c0.408,0.514,0.664,1.074,0.77,1.681l3.487-2.671c0.44,0.524,0.822,0.917,1.147,1.178
		c0.324,0.262,0.645,0.414,0.958,0.456c0.021,0,0.048,0,0.079,0s0.058,0,0.078,0c0.188,0,0.403-0.042,0.645-0.125
		c0.24-0.083,0.487-0.199,0.738-0.346v0.125c0,0.126-0.011,0.267-0.031,0.424c-0.021,0.157-0.053,0.31-0.095,0.456
		c-0.084,0.231-0.188,0.451-0.313,0.66c-0.126,0.209-0.294,0.398-0.503,0.565v7.479c0.104,0.272,0.24,0.492,0.408,0.659
		c0.167,0.168,0.388,0.252,0.66,0.252c0.083,0,0.173-0.011,0.267-0.031c0.095-0.021,0.193-0.042,0.299-0.063
		c0.042-0.021,0.089-0.042,0.142-0.062c0.052-0.021,0.099-0.042,0.141-0.062l-3.048,3.205h-0.125
		c-0.524-0.021-0.975-0.241-1.352-0.66c-0.377-0.42-0.587-0.87-0.629-1.352v-8.704c-0.083-0.021-0.167-0.047-0.251-0.079
		c-0.084-0.032-0.168-0.068-0.251-0.11c-0.231-0.104-0.451-0.235-0.66-0.393c-0.21-0.157-0.388-0.319-0.534-0.487l-1.383,1.068
		v7.007c0.356,0.084,0.696,0.225,1.021,0.424c0.324,0.199,0.623,0.436,0.896,0.707l-2.545,2.577
		c-0.608-0.608-1.185-1.043-1.729-1.305c-0.545-0.262-1.026-0.393-1.445-0.393c-0.168,0-0.336,0.021-0.503,0.062
		c-0.168,0.042-0.304,0.104-0.408,0.188c0.062-0.46,0.256-0.868,0.581-1.225c0.324-0.356,0.676-0.66,1.053-0.912v-6.693
		c0-0.377-0.084-0.723-0.252-1.037c-0.168-0.314-0.429-0.576-0.785-0.786l-2.199,1.728v6.662c0.104,0.021,0.209,0.047,0.313,0.078
		s0.221,0.068,0.346,0.11c0.188,0.104,0.382,0.226,0.582,0.361c0.198,0.137,0.361,0.277,0.486,0.424l-2.671,2.734
		c-0.188-0.294-0.382-0.54-0.581-0.739s-0.403-0.361-0.612-0.486c-0.272-0.188-0.545-0.314-0.817-0.377
		c-0.272-0.063-0.523-0.095-0.754-0.095c-0.188,0-0.372,0.016-0.55,0.047c-0.179,0.031-0.341,0.089-0.487,0.173
		c0.104-0.439,0.304-0.832,0.597-1.178s0.649-0.613,1.068-0.802v-6.976c-0.084-0.44-0.309-0.765-0.675-0.974
		c-0.367-0.209-0.771-0.356-1.21-0.44L175.157,34.971z"/>
	<path fill="#555555" d="M194.263,36.836c0.042,0.01,0.083,0.015,0.126,0.015c0.041,0,0.078,0.005,0.109,0.016
		c0.031,0.011,0.068,0.016,0.11,0.016c0.042,0.021,0.094,0.031,0.157,0.031c0.062,0,0.114,0,0.157,0
		c0.628,0,1.293-0.104,1.995-0.313c0.701-0.209,1.419-0.502,2.152-0.878c0.23-0.125,0.466-0.261,0.707-0.408
		c0.24-0.146,0.477-0.292,0.707-0.439c0.083,0.292,0.188,0.59,0.314,0.893c0.125,0.303,0.262,0.601,0.408,0.893
		c0.23,0.481,0.481,0.956,0.754,1.426c0.272,0.471,0.545,0.915,0.817,1.332c0.042,0.083,0.089,0.162,0.142,0.235
		c0.052,0.073,0.109,0.151,0.173,0.235c-0.147,0.083-0.356,0.193-0.629,0.329c-0.272,0.136-0.556,0.299-0.849,0.486l-3.864,2.35
		v2.537c0.251,0.021,0.534,0.059,0.848,0.11c0.314,0.053,0.639,0.131,0.975,0.235c0.314,0.084,0.628,0.188,0.942,0.314
		s0.597,0.251,0.849,0.377l0.723-0.691l0.628,0.534l-2.765,3.111c-0.356-0.231-0.723-0.436-1.1-0.613s-0.766-0.33-1.163-0.455
		c-0.565-0.21-1.126-0.361-1.681-0.456c-0.556-0.094-1.095-0.142-1.618-0.142c-0.21,0-0.425,0.006-0.645,0.016
		c-0.22,0.012-0.435,0.037-0.645,0.079c0.188-0.355,0.403-0.679,0.645-0.972c0.24-0.293,0.55-0.554,0.927-0.783v-7.681
		c0-0.167-0.026-0.355-0.078-0.564c-0.053-0.209-0.121-0.417-0.204-0.627c-0.043-0.104-0.084-0.203-0.126-0.297
		s-0.084-0.183-0.126-0.267C194.179,36.821,194.221,36.826,194.263,36.836z M197.751,41.885l2.104-1.32
		c-0.146-0.209-0.288-0.435-0.424-0.676c-0.137-0.24-0.268-0.487-0.393-0.738c-0.188-0.335-0.352-0.665-0.487-0.99
		c-0.137-0.325-0.246-0.613-0.33-0.864l-0.471,0.188V41.885z"/>
	<path fill="#555555" d="M206.109,36.841c0.125,0.011,0.262,0.026,0.408,0.047c0.126,0.021,0.257,0.042,0.393,0.062
		c0.137,0.021,0.277,0.032,0.425,0.032c0.083,0.021,0.173,0.031,0.267,0.031c0.095,0,0.184,0,0.268,0
		c0.377,0,0.77-0.042,1.178-0.125c0.409-0.083,0.812-0.23,1.21-0.44c0.272-0.146,0.539-0.33,0.802-0.55
		c0.262-0.22,0.528-0.477,0.801-0.77c0.397,0.398,0.754,0.681,1.068,0.848c0.314,0.168,0.607,0.251,0.88,0.251
		c0.252,0,0.472-0.047,0.66-0.141s0.355-0.205,0.503-0.33c0.125-0.104,0.262-0.251,0.408-0.44h0.785
		c-0.293,0.901-0.733,1.775-1.319,2.624c-0.587,0.848-1.205,1.598-1.854,2.247c-0.083,0.105-0.172,0.199-0.267,0.283
		c-0.095,0.084-0.184,0.168-0.268,0.251h3.206c-0.021,0.021-0.037,0.053-0.048,0.095s-0.026,0.084-0.047,0.125
		c-0.021,0.043-0.042,0.09-0.062,0.142c-0.021,0.053-0.032,0.1-0.032,0.142c-0.042,0.105-0.073,0.21-0.094,0.314
		c-0.021,0.104-0.031,0.178-0.031,0.22v5.278c0,0.063,0.01,0.147,0.031,0.252c0.021,0.104,0.052,0.22,0.094,0.346
		c0.021,0.084,0.053,0.162,0.095,0.235c0.042,0.074,0.083,0.142,0.126,0.204c-0.168-0.041-0.341-0.073-0.519-0.094
		c-0.179-0.021-0.352-0.042-0.519-0.063c-0.168-0.021-0.341-0.036-0.519-0.047c-0.179-0.01-0.352-0.016-0.519-0.016
		c-0.21,0-0.414,0.011-0.612,0.031c-0.2,0.021-0.404,0.053-0.613,0.095c-0.482,0.104-0.964,0.277-1.445,0.519
		c-0.482,0.24-0.933,0.592-1.352,1.053c-0.23-0.252-0.445-0.478-0.644-0.676c-0.199-0.199-0.393-0.361-0.581-0.487
		c-0.21-0.126-0.414-0.215-0.613-0.267c-0.199-0.053-0.414-0.079-0.645-0.079c-0.439,0-0.848,0.121-1.225,0.361
		c-0.378,0.241-0.682,0.623-0.912,1.147l-0.69,0.031c0.188-0.88,0.513-1.707,0.974-2.482s0.953-1.466,1.477-2.074
		c0.168-0.209,0.341-0.408,0.519-0.597s0.351-0.356,0.519-0.503h-2.168c0.062-0.084,0.12-0.173,0.173-0.268
		c0.052-0.094,0.089-0.193,0.11-0.298c0.021-0.084,0.041-0.162,0.062-0.236c0.021-0.072,0.031-0.141,0.031-0.204v-5.31
		c0-0.063-0.011-0.136-0.031-0.22c-0.021-0.083-0.042-0.167-0.062-0.251c-0.021-0.063-0.043-0.126-0.063-0.189
		c-0.021-0.062-0.053-0.115-0.094-0.157C205.857,36.815,205.983,36.831,206.109,36.841z M209.314,43.754
		c-0.356,0.346-0.713,0.707-1.068,1.084c-0.188,0.188-0.367,0.383-0.534,0.581c-0.168,0.199-0.346,0.404-0.534,0.613
		c0.021-0.021,0.047-0.036,0.078-0.047s0.068-0.017,0.11-0.017c0.167-0.062,0.366-0.114,0.597-0.156s0.472-0.063,0.723-0.063
		c0.272,0,0.565,0.042,0.88,0.126s0.639,0.23,0.975,0.439c0.167,0.126,0.335,0.263,0.503,0.409c0.167,0.146,0.324,0.313,0.471,0.503
		c0.042-0.042,0.095-0.073,0.157-0.095c0.062-0.021,0.126-0.042,0.188-0.062c0.104-0.021,0.199-0.037,0.283-0.048
		c0.083-0.01,0.136-0.016,0.157-0.016v-4.147l-0.157-0.126h-1.76C210.026,43.068,209.67,43.408,209.314,43.754z M209.22,42.072
		h0.534c0.168-0.167,0.341-0.329,0.519-0.486s0.351-0.309,0.519-0.456c0.397-0.397,0.791-0.795,1.179-1.194
		c0.387-0.397,0.77-0.827,1.146-1.288c0.084-0.083,0.162-0.173,0.236-0.267c0.072-0.095,0.151-0.194,0.235-0.299
		c-0.21,0.105-0.445,0.204-0.707,0.299c-0.263,0.094-0.529,0.141-0.802,0.141c-0.293,0-0.612-0.079-0.958-0.236
		c-0.346-0.157-0.729-0.413-1.146-0.77c-0.043,0.021-0.095,0.047-0.157,0.079c-0.063,0.031-0.126,0.047-0.188,0.047
		c-0.084,0.042-0.168,0.068-0.252,0.079c-0.084,0.011-0.137,0.016-0.157,0.016V42.072z"/>
</g>
</svg>
