<?xml version="1.0" encoding="utf-8"?>
<!-- Generator: Adobe Illustrator 15.0.0, SVG Export Plug-In . SVG Version: 6.00 Build 0)  -->
<!DOCTYPE svg PUBLIC "-//W3C//DTD SVG 1.1//EN" "http://www.w3.org/Graphics/SVG/1.1/DTD/svg11.dtd">
<svg version="1.1" id="Layer_1" xmlns="http://www.w3.org/2000/svg" xmlns:xlink="http://www.w3.org/1999/xlink" x="0px" y="0px"
	 width="240px" height="80px" viewBox="0 0 240 80" enable-background="new 0 0 240 80" xml:space="preserve">
<g id="Layer_3">
</g>
<g id="Meat" display="none">
	<text transform="matrix(1 0 0 1 53.5811 110.042)" display="inline" font-family="'MEAT_BOLD'" font-size="58.4884">MEAT</text>
</g>
<g id="Layer_2" display="none">
	<g display="inline">
		<text transform="matrix(1 0 0 1 54.6523 106.7734)" font-family="'NouvelleVague-Black'" font-size="51.5229">Mont</text>
		<rect x="114.187" y="73.1" width="18.208" height="2.654"/>
	</g>
</g>
<g id="Layer_4" display="none">
	<text transform="matrix(1 0 0 1 76.6855 104.8115)" display="inline" font-family="'Laudanum'" font-size="45.5175">ORCHA</text>
	
		<rect x="61.512" y="64.223" display="inline" fill="none" stroke="#000000" stroke-miterlimit="10" width="123.277" height="49.312"/>
</g>
<g id="Layer_5" display="none">
	<g display="inline">
		<path d="M71.708,87.672c5.052,1.73,4.871,6.646,4.871,6.646c0,8.877-9.104,9.285-11.244,9.285H54.958
			c-0.272,0-0.454-0.185-0.454-0.365V72.105c0-0.182,0.182-0.363,0.454-0.363h10.377c0,0,10.787-0.227,10.787,9.104
			C76.122,84.578,74.121,86.672,71.708,87.672z M60.557,84.713h4.778c0,0,4.689,0,4.689-3.504c0-3.823-4.689-3.777-4.689-3.777
			h-4.778V84.713z M70.479,94.18c0-3.775-5.144-3.502-5.144-3.502h-4.778v7.1h4.778C67.339,97.777,70.479,97.23,70.479,94.18z"/>
		<path d="M79.265,103.604c-0.364,0-0.546-0.229-0.41-0.502L91.28,71.059c0.138-0.318,0.683-0.318,0.82,0l12.427,32.043
			c0.136,0.272-0.047,0.502-0.365,0.502H79.265L79.265,103.604z"/>
		<path d="M132.275,111.949c-0.137,0-0.364-0.094-0.41-0.184L116.268,90.63h-2.229v12.606c0,0.183-0.182,0.365-0.455,0.365h-5.19
			c-0.272,0-0.455-0.184-0.455-0.365V85.077c0-0.183,0.182-0.365,0.455-0.365h4.233c-1.548-2.412-3.141-4.96-4.688-7.372v-5.234
			c0-0.183,0.182-0.364,0.455-0.364h10.379c0,0,10.833,0,10.833,9.422c0,5.598-3.597,7.829-6.692,8.784l15.782,21.455
			c0.18,0.271,0,0.546-0.32,0.546L132.275,111.949L132.275,111.949z M119.365,84.668c1.729-0.045,4.141-0.773,4.141-3.503
			c0-3.506-3.687-3.506-4.732-3.506h-3.824L119.365,84.668z"/>
		<path d="M134.75,83.212c0-6.508,5.418-11.925,12.018-11.925c6.599,0,12.017,5.417,12.017,11.925
			c0,6.556-5.418,11.927-12.017,11.927C140.168,95.139,134.75,89.768,134.75,83.212z M157.371,103.238
			c0,0.182-0.182,0.365-0.455,0.365h-20.527c-0.271,0-0.455-0.185-0.455-0.365v-5.143c0-0.184,0.185-0.363,0.455-0.363h20.527
			c0.273,0,0.455,0.181,0.455,0.363V103.238L157.371,103.238z M140.805,83.212c0,3.415,2.686,6.054,5.963,6.054
			c3.32,0,5.961-2.639,5.961-6.054c0-3.366-2.641-6.052-5.961-6.052C143.488,77.16,140.805,79.846,140.805,83.212z"/>
		<path d="M191.646,103.238c0,0.182-0.183,0.365-0.457,0.365h-5.232c-0.091,0-0.318-0.045-0.364-0.138l-14.655-20.983v20.754
			c0,0.183-0.183,0.365-0.453,0.365h-5.236c-0.227,0-0.408-0.184-0.408-0.365V72.105c0-0.182,0.182-0.363,0.408-0.363h5.279
			c0.092,0,0.32,0.045,0.363,0.137l14.702,20.982V72.105c0-0.182,0.183-0.363,0.455-0.363h5.144c0.273,0,0.455,0.182,0.455,0.363
			V103.238L191.646,103.238z"/>
	</g>
</g>
<g id="Layer_6" display="none">
	<text transform="matrix(1 0 0 1 86.5029 104.2178)" display="inline" font-family="'BebasNeue'" font-size="37.5">MVMO</text>
	<g display="inline">
		<path d="M89.599,97.627c-1.715,2.673-5.189,5.768-7.873,4.373c-2.004-1.04,0.731-6.166,1.769-8.242
			c1.037-2.074,4.958-7.497,7.724-6.39c2.766,1.106-1.151,9.149-10.222,8.429c-0.312,0.258-0.004,0.688-0.004,0.688
			s6.518,0.931,10.309-3.812c3.792-4.743,0.922-6.123,0.182-6.521c-0.741-0.398-8.216-0.512-11.991,6.8
			c-2.228,4.319-0.593,8.953,1.871,9.718c1.847,0.576,5.342,0.557,8.732-4.719c0,0,0.149-0.295-0.071-0.445
			C89.803,97.357,89.599,97.627,89.599,97.627z"/>
		<path d="M100.238,90.837c-0.259,1.59-13.57,27.604-13.57,27.604c-0.113,0.229-0.297,0.279-0.548,0.172
			c-0.25-0.108-2.267-2.834-2.385-3.235c-0.118-0.397,0.025-0.672,0.07-0.755c0.047-0.086,12.711-25.703,12.903-26.223
			c0.38-1.017,0.28-1.967-0.237-2.89c0,0-0.092-0.403,0.315-0.399C97.191,85.116,100.728,87.839,100.238,90.837z"/>
		<path d="M95.714,98.512c0,0,8.086-11.375,11.897-12.41c3.66-0.994,3.931,1.955,3.982,2.418c0.051,0.447,0.553,3.187-1.809,7.571
			c-2.359,4.384-7.628,9.017-10.847,7.765c-2.993-1.16,0.84-5.016,2.596-6.408c1.478-1.178,4.351-2.249,6.994-2.744
			c4.05-0.762,9.465-2.208,12.269-3.969c2.104-1.317,3.056-4.045,1.959-4.387c-0.944-0.293-3.787,2.227-5.355,4.985
			c-2.589,4.553-3.482,7.763-2.086,7.841c1.395,0.081,7.911-5.015,8.404-5.771l0.204,0.668c0,0-6.54,5.718-8.783,6.179
			c-2.245,0.463-2.973-2.174-3.089-4.032c-0.116-1.859,1.39-5.968,3.767-8.183c2.957-2.757,5.924-3.001,6.966-2.675
			c2.308,0.72,0.93,4.277-1.523,5.781c-2.096,1.286-6.147,2.94-12.763,4.172c-2.171,0.403-4.94,1.308-6.624,2.645
			c-1.583,1.256-3.83,4.22-2.667,4.6c1.163,0.377,12.122-14.31,8.624-15.146c-3.206-0.768-12.671,13.328-12.671,13.328
			L95.714,98.512z"/>
		<path d="M92.275,78.829c0,0-1.406-1.079,0.396-1.747c0,0,12.592-4.242,29.665-3.762c17.071,0.481,20.244,3.959,31.352,3.593
			c11.107-0.365,16.356-2.013,18.799-2.868c0,0,1.013-0.309,0.459,0.146c0,0-7.778,4.127-19.32,4.637
			c-11.542,0.509-20.665-1.696-32.27-1.395c-11.604,0.299-19.548,2.781-23.783,4.485c0,0-1.049,0.481-1.604,0.125
			C95.313,81.624,92.275,78.829,92.275,78.829z"/>
		<path d="M138.445,61.068c0,0,3.521,3.14,3.213,5.769c-0.455,3.845-19.154,33.778-17.926,34.817
			c1.229,1.041,12.054-9.737,12.054-9.737l0.164,0.774c0,0-9.921,10.824-12.873,9.838c-2.953-0.981-0.464-7.535,1.039-10.612
			c1.499-3.077,14.04-26.585,14.249-27.994c0.212-1.422-0.094-2.136-0.234-2.481C137.992,61.094,138.301,60.959,138.445,61.068z"/>
		<path d="M155.335,61.434c0,0,3.522,3.139,3.213,5.769c-0.454,3.844-19.153,33.776-17.925,34.817
			c1.23,1.041,12.054-9.738,12.054-9.738l0.165,0.775c0,0-9.922,10.82-12.873,9.838c-2.951-0.981-0.462-7.537,1.037-10.613
			c1.502-3.077,14.042-26.586,14.252-27.994c0.21-1.422-0.095-2.137-0.234-2.482C154.883,61.459,155.191,61.324,155.335,61.434z"/>
		<path d="M138.295,79.288c-0.055-0.099-0.016-0.543,0.447-0.278c0.46,0.266,3.488,3.283,2.957,5.612
			c-0.529,2.33-1.793,3.226-2.383,3.043c-0.588-0.183-0.868-0.968-1.426-1.388c-0.559-0.418-1.521-0.627-1.731-1.199
			c-0.207-0.573,0.419-1.727,1.437-2.902C138.661,80.941,138.295,79.288,138.295,79.288z"/>
		<path d="M135.354,87.689c0,0,2.838,2.504,2.793,4.127c-0.041,1.449-1.404,3.209-2.528,4.617c-0.89,1.117-2.152,3.596-1.562,3.896
			c0.946,0.482,7.439-6.737,7.439-6.737l0.18,0.423c0,0-6.508,8.408-8.963,7.744c-1.811-0.486-1.986-2.164-1.964-3.898
			c0.026-1.736,3.946-6.799,4.21-7.922c0.264-1.121,0.13-1.804,0.064-1.914C134.959,87.917,135.023,87.615,135.354,87.689z"/>
		<path d="M155.988,80.605c0,0-0.402-1.217,0.678-0.621c1.077,0.598,3.209,3.636,3.209,5.404c0,1.771-0.818,3.5-1.703,3.486
			c-0.88-0.016-1.705-1.491-2.186-1.802c-0.48-0.312-2.103-0.845-2.153-1.56C153.689,83.584,156.525,82.422,155.988,80.605z"/>
		<path d="M152.439,88.068c0,0,5.272,2.388,4.146,5.227c-1.127,2.84-5.594,8.863-5.005,9.299c0.588,0.436,5.335-3.529,7.673-6.685
			l0.262,0.405c0,0-6.406,8.152-9.42,7.121c-3.012-1.035-1.754-4.59-0.988-6.164c0.897-1.859,3.379-5.06,3.42-7.041
			c0.018-0.638-0.447-1.623-0.447-1.623S151.676,88.158,152.439,88.068z"/>
		<path d="M170.402,91.598c0,0,0.361-3.412-2.207-3.529c-2.571-0.117-6.24,1.519-8.471,5.011c-2.231,3.491-3.115,8.637-0.209,9.879
			c2.905,1.241,7.516-3.365,8.729-5.015c1.21-1.648,2.175-4.393,0.967-5.19c-1.079-0.716-1.891,0.001-2.085,0.39
			c-0.194,0.387-0.476,1.549,0.485,1.939c1.074,0.438,2.225-0.288,4.496-1.823c2.219-1.499,2.875-2.431,3.521-2.077
			c0.455,0.252-5.232,9.883-5.175,10.616c0.101,1.205,1.575,4.017,2.06,3.79c0.481-0.223,5.43-9.438,5.864-10.458
			c0.438-1.019,0.435-4.612-1.345-5.266c-1.17-0.431-4.616,2.638-5.2,3.007c-0.583,0.369-2.849,2.163-3.688,1.771
			c-0.668-0.313-0.541-0.965-0.355-1.209c0.15-0.201,0.574-0.412,0.96-0.252c0.468,0.195,0.899,2.142-0.992,4.42
			c-1.891,2.279-5.141,4.949-6.502,3.98c-1.354-0.973,3.718-11.008,6.931-10.9c1.453,0.049,1.772,1.02,1.772,1.02
			S170.159,91.992,170.402,91.598z"/>
		<path d="M176.092,98.146c0,0,7.461-9.543,9.372-8.08c0.427,0.326,2.231,2.506,1.325,4.397c-0.727,1.517-6.943,10.122-5.727,11.07
			c1.217,0.944,5.83-0.991,9.916-7.616c0,0,0.701-0.785,0.602,0.293c0,0-6.643,9.949-11.455,8.42
			c-2.68-0.852-2.63-5.296-0.602-8.596c1.822-2.962,4.688-6.791,4.235-6.993c-0.45-0.199-6.667,6.401-7.519,7.655L176.092,98.146z"
			/>
		<path d="M82.152,80.33c6.613-0.93,7.895-4.54,7.903-6.869c0.012-2.902-2.57-4.6-5.678-5.404
			c-3.295-0.854-26.427-0.793-27.794-2.345c-1.196-1.354-0.621-2.53-0.621-2.53c0.183-0.449-0.276-0.199-0.276-0.199
			c-0.776,0.834-0.744,3.385,0.433,4.904c2.69,3.475,13.24,2.844,13.24,2.844c0.147,0.834-0.147,1.668-0.54,2.451
			c-0.392,0.785-12.771,24.59-12.771,24.59c-0.331,0.992-0.036,1.375-0.036,1.375s2.065,3.279,2.346,3.625
			c0.281,0.346,0.446-0.027,0.446-0.027l11.102-22.036c1.653,1.756,2.121,4.634,2.328,6.287C72.44,88.648,71.923,99.6,71.923,99.6
			s-0.188,7.938,5.424,10.021c4.77,1.771,9.253-4.554,9.253-4.554c0.307-1.14-0.876-0.623-0.876-0.623
			c-2.142,2.613-5.278,5.691-7.706,4.041c-2.428-1.652-1.033-16.271-1.499-21.264c-0.464-4.994-5.63-6.89-5.63-6.89
			S75.541,81.26,82.152,80.33z M70.389,79.508c0,0,2.011-3.917,2.522-5.438c0.511-1.521-0.298-3.487-0.298-3.487
			s7.387,0.194,10.085,0.49c2.696,0.294,6.178,0.882,5.787,4.124c-0.393,3.242-4.657,3.904-8.533,4.311
			C75.99,79.921,70.389,79.508,70.389,79.508z"/>
	</g>
</g>
<g id="Layer_8" display="none">
	<g id="Layer_6_1_" display="inline">
		<path d="M159.854,89.67c0,21.195-17.181,38.374-38.375,38.374S83.104,110.865,83.104,89.67c0-21.193,17.18-38.375,38.375-38.375
			S159.854,68.477,159.854,89.67z M121.479,57.052c-18.015,0-32.62,14.604-32.62,32.618c0,18.016,14.605,32.618,32.62,32.618
			s32.619-14.603,32.619-32.618C154.098,71.656,139.492,57.052,121.479,57.052z"/>
		<text transform="matrix(1 0 0 1 98.1191 105.8066)" font-family="'BebasNeue'" font-size="41.712">OST</text>
	</g>
</g>
<g id="Layer_9" display="none">
	<text transform="matrix(1 0 0 1 46.7617 98.9307)" display="inline" font-family="'Pompadour-Black'" font-size="54.9067">8350</text>
	<text transform="matrix(1 0 0 1 80 111)" display="inline" font-family="'SourceSansPro-Bold'" font-size="10" letter-spacing="5">CLOTHING</text>
</g>
<g id="Layer_10" display="none">
	<g display="inline">
		<path d="M70.059,82.216l15.205-7.213l0.103,30.165l-30.616,0.062V75.064L70.059,82.216z"/>
		<path d="M123.273,75.188c0,8.914,0,17.746,0,26.621l-3.504,3.381H96.572l-3.484-3.381c0-8.875,0-17.707,0-26.621
			c3.299,0,8.402,0,11.701,0l3.156,3.177c0,2.397,0,22.356,0,24.692h0.39V78.364l3.176-3.177
			C114.892,75.188,119.893,75.188,123.273,75.188z"/>
		<path d="M158.249,90.003h-3.196v15.206h-20.861V90.003h-3.094V75.229c8.873,0,18.258,0,27.151,0V90.003z"/>
		<path d="M191.096,85.044h-11.67c0,0.246,0,0.492,0,0.738h11.67v8.872h-11.67c0,0.246,0,0.492,0,0.738h11.67v9.815
			c-8.361,0-16.783,0-25.125,0V75.229c8.342,0,16.764,0,25.125,0V85.044z"/>
	</g>
</g>
<g id="Layer_11" display="none">
	<g display="inline">
		<g>
			<path d="M44.239,103.189c2.041,0,3.976-0.881,5.318-2.418l1.121-1.188c0,0,0.901,1.142,1.852,1.903
				c1.378,1.107,2.897,1.703,4.596,1.703c3.893,0,7.06-3.168,7.06-7.061c0-3.895-3.167-7.059-7.06-7.059
				c-2.061,0-4.008,0.895-5.352,2.457l-1.087,1.148l-1.208-1.277c-0.071-0.08-0.145-0.156-0.219-0.231l-0.45-0.417
				c-1.267-1.079-2.88-1.68-4.571-1.68c-3.892,0-7.059,3.164-7.059,7.059C37.18,100.021,40.347,103.189,44.239,103.189z
				 M44.196,93.585c0.652,0,1.27,0.243,1.742,0.688l1.755,1.857l-1.722,1.821c-0.479,0.467-1.107,0.722-1.775,0.722
				c-1.403,0-2.546-1.142-2.546-2.544C41.65,94.727,42.793,93.585,44.196,93.585z M55.429,94.273c0.473-0.445,1.09-0.688,1.74-0.688
				c1.404,0,2.547,1.142,2.547,2.546c0,1.402-1.143,2.544-2.547,2.544c-0.667,0-1.297-0.255-1.775-0.722l-1.72-1.82L55.429,94.273z"
				/>
		</g>
		<g>
			<path d="M73.371,73.625h7.108v23.018h13.286v6.602H73.371V73.625z"/>
			<path d="M103.797,73.625h7.108v29.619h-7.108V73.625z"/>
			<path d="M144.716,96.009c0-7.024,0.085-10.493,0.085-10.536h-0.085c-0.042,0.043-1.479,2.709-2.92,5.248l-2.877,5.203h-3.978
				l-2.877-5.119c-1.481-2.623-2.877-5.289-2.92-5.332h-0.127c0,0.043,0.084,3.512,0.084,10.536v7.235h-7.107V73.625h7.531
				l7.447,13.244h0.127l7.488-13.244h7.235v29.619h-7.108L144.716,96.009L144.716,96.009z"/>
			<path d="M162.916,73.625h7.109v29.619h-7.109V73.625z"/>
			<path d="M196.219,80.227v23.018h-7.109V80.227h-9.055v-6.602h25.219v6.602H196.219z"/>
		</g>
		<g>
			<path d="M40.276,79.212h-0.05c0,0.017,0.034,1.46,0.034,2.988v4.028h-2.82v-11.75h2.854l5.001,6.881h0.051
				c0-0.017-0.017-1.526-0.017-2.803v-4.078h2.82v11.75h-2.87L40.276,79.212z"/>
			<path d="M58.272,74.244c3.592,0,6.193,2.518,6.193,6.109s-2.602,6.109-6.193,6.109s-6.194-2.518-6.194-6.109
				C52.078,76.764,54.68,74.244,58.272,74.244z M58.272,83.794c1.947,0,3.357-1.343,3.357-3.44c0-2.115-1.41-3.459-3.357-3.459
				s-3.357,1.344-3.357,3.459C54.915,82.452,56.325,83.794,58.272,83.794z"/>
		</g>
	</g>
</g>
<g id="Layer_12" display="none">
	<g display="inline">
		<path fill="#333333" d="M63.236,110.527l-16.32-0.027V65.83l22.669,10.591l22.517-10.682l0.152,44.67l-16.19,0.032l-1.3-0.032
			l-4.673-4.638c0-3.549,0-19.973,0-23.433h-0.577v23.433l-4.703,4.771L63.236,110.527z"/>
		<path fill="#333333" d="M148.395,66.014c0,13.199,0,26.278,0,39.418l-5.188,5.01h-34.354l-5.159-5.01c0-13.14,0-26.219,0-39.418
			c4.886,0,12.442,0,17.329,0l4.672,4.701c0,3.553,0,31.283,0,34.743h0.578V70.715l4.703-4.701
			C135.98,66.014,143.387,66.014,148.395,66.014z"/>
		<g>
			<path fill="#333333" d="M158.262,110.964c0-4.885,0-12.241,0-17.128l4.702-4.673c3.55,0,26.531,0,29.991,0v-0.577h-29.991
				l-4.702-4.703c0-5.008,0-12.412,0-17.419c0,0-0.003,14.739-0.003-0.13h34.582l5.302,5.21v34.492l-5.302,4.995h-34.582"/>
		</g>
	</g>
</g>
<g id="Layer_7">
	<g>
		<path fill="#555555" d="M79.594,35.604c0,1.386-2.559,3.623-4.901,6.394c-1.812,2.132-3.092,3.94-3.624,5.008
			c-0.532,0.96-0.532,1.705-0.107,2.024c0.427,0.32,1.172,0.212,2.346-0.426c1.172-0.64,3.09-1.812,4.795-3.195
			c2.344-1.812,3.624-2.879,5.007-4.157c0.747-0.746,1.387-1.063,1.601-0.853c0.318,0.319-0.428,0.959-1.278,1.812
			c-1.28,1.172-3.41,3.09-6.074,5.114c-2.24,1.704-5.969,4.264-9.485,4.264c-2.237,0-3.409-1.174-3.303-2.772
			c0.106-2.344,2.77-5.326,5.114-7.564c2.558-2.45,6.606-5.328,6.927-6.072c0.426-1.174-1.599-0.854-4.262-0.854
			c-1.065,0-1.92,0-2.452-0.212c-0.852,0.958-2.345,2.45-4.05,4.047c-1.812,1.707-3.089,2.878-4.262,3.944
			c-0.959,0.853-1.386,1.064-1.6,0.853c-0.213-0.214,0.108-0.746,1.173-1.706c1.278-1.173,2.238-2.023,4.156-3.836
			c1.491-1.385,2.877-2.771,3.73-3.729c-0.959-0.64-1.066-2.133,0-3.41c0.852-1.065,2.344-1.812,4.049-1.812
			c0.854,0,1.812,0.425,1.918,1.063c-0.746,0.533-1.173,0.854-1.811,1.492c-1.386,1.492-1.067,2.237,0.319,2.346
			c2.983,0.105,6.074,0.213,6.074,2.132C79.594,35.499,79.594,35.604,79.594,35.604z"/>
		<path fill="#555555" d="M88.332,50.842c2.343,0,6.606-2.878,9.909-6.501c0.107-1.063,0.532-2.664,1.918-4.475
			c1.173-1.599,2.664-2.452,3.41-2.771c0.318-0.746,0.318-1.919,0.318-2.451c0-1.172-0.424-1.492-0.104-1.705
			c0.427-0.213,1.064,0.213,1.491,0.64c0.854,0.853,1.492,2.13,1.278,3.729c-0.319,2.559-2.77,5.647-6.074,8.629
			c0.427,0.213,1.6,0.107,2.025,0c0.96-0.209,2.132-0.744,3.624-1.81c1.384-0.959,2.237-1.705,3.409-2.771
			c0.96-0.854,1.492-1.387,1.812-1.066c0.318,0.32-0.319,0.959-1.386,1.919c-0.959,0.853-2.024,1.812-3.41,2.769
			c-1.705,1.172-2.983,1.707-4.049,1.92c-0.959,0.213-2.237,0.213-2.877-0.213c-2.771,2.131-7.779,5.221-12.148,5.221
			c-3.303,0-5.328-1.598-5.221-4.688c0.105-2.132,1.384-4.688,3.41-6.819l-0.107-0.106c-0.746,0.642-1.173,1.065-1.919,1.705
			c-0.745,0.642-1.172,0.854-1.384,0.642c-0.214-0.32,0.318-0.854,0.745-1.279c0.746-0.746,2.238-1.918,3.303-2.664
			c1.387-0.959,2.878-1.918,5.115-3.092c3.091-1.599,6.396-2.77,8.846-2.877c0.746,0,1.599,0,1.599,0.428"/>
		<path fill="#555555" d="M127.225,46.365c2.986-1.812,5.225-3.729,7.035-5.328c0.532-0.426,1.066-0.96,1.385-0.639
			c0.215,0.213-0.213,0.852-1.172,1.705c-1.063,0.959-3.09,2.664-5.434,4.262c-2.346,1.599-4.689,2.771-6.715,3.624
			c-1.919,0.853-5.753,1.915-8.951,1.915c-5.648,0-6.82-3.408-6.394-6.393c0.427-3.09,2.878-5.646,5.435-5.541
			c1.492,0.105,2.239,1.174,2.025,2.346c-0.213,1.064-0.959,1.916-2.346,2.662c-0.958,0.533-2.343,1.707-2.45,3.197
			c-0.106,1.706,1.173,2.665,3.091,2.665c2.133,0,4.797-1.705,7.139-5.756c1.919-3.09,3.837-9.483,5.011-10.868v-0.105
			c-1.067,1.064-3.305,2.77-5.116,4.048c-1.491,1.067-3.196,2.132-4.05,2.559c-0.427,0.214-0.851,0.427-1.064,0.105
			c-0.107-0.319,0-0.532,0.532-0.853c1.065-0.64,2.77-1.703,4.475-2.982c1.919-1.387,3.836-2.984,6.289-5.114
			c0.211-0.427,0.959-1.28,1.704-1.813c1.172-0.852,2.345-1.172,3.09-1.172c2.451,0,0.852,1.387-0.532,2.239
			c-0.958,0.638-2.024,1.065-2.558,1.599c-0.854,0.853-0.745,1.705-0.745,2.877c0.104,2.983,0.315,5.754-0.959,8.737
			c-0.642,1.49-2.134,3.517-3.411,4.368C123.71,48.284,125.521,47.434,127.225,46.365z"/>
		<path fill="#555555" d="M138.416,51.904c-3.943,0-5.861-1.598-5.646-4.473c0.213-2.133,1.385-4.369,3.09-6.396l-0.106-0.104
			c-0.319,0.317-1.174,1.063-1.812,1.596c-0.641,0.535-1.172,0.854-1.387,0.642c-0.212-0.319,0.215-0.746,0.641-1.173
			c1.385-1.278,2.345-2.023,3.943-3.196c1.172-0.853,3.303-2.237,5.114-3.196c3.623-1.918,7.034-3.306,9.804-2.877
			c2.45,0.426,3.305,2.023,2.879,4.049c-0.429,2.024-2.238,3.623-3.625,3.623c-1.811,0-1.811-1.49-0.853-3.09
			c1.172-2.024,1.599-3.305,0.319-3.517c-1.172-0.214-3.623,1.385-6.605,4.476c-2.878,2.877-5.648,6.926-5.968,9.482
			c-0.215,1.6,0.744,2.45,2.45,2.45c1.385,0,5.113-0.64,9.804-3.835c2.024-1.387,4.688-3.623,6.394-5.115
			c0.641-0.532,0.959-0.639,1.174-0.427c0.211,0.321-0.215,0.745-0.854,1.387c-1.385,1.278-4.369,3.835-6.288,5.114
			c-3.729,2.559-8.735,4.58-12.36,4.58H138.416z"/>
		<path fill="#555555" d="M157.385,41.996c-0.746,0.641-1.171,0.854-1.385,0.641c-0.214-0.32,0.318-0.854,0.745-1.279
			c0.746-0.744,2.237-1.918,3.303-2.662c1.386-0.961,2.878-1.92,5.116-3.092c3.09-1.6,6.395-2.771,8.845-2.877
			c0.746,0,1.599,0,1.599,0.426c0,0.214-14.707,17.689-13.532,17.689c2.344,0,6.604-2.878,9.907-6.501
			c0.109-1.063,0.535-2.664,1.92-4.475c1.172-1.599,2.664-2.452,3.41-2.771c0.318-0.746,0.318-1.919,0.318-2.451
			c0-1.172-0.425-1.492-0.105-1.705c0.428-0.213,1.065,0.213,1.492,0.64c0.854,0.853,1.49,2.13,1.278,3.729
			c-0.319,2.559-2.771,5.647-6.075,8.629c0.428,0.213,1.6,0.107,2.026,0c0.959-0.209,2.129-0.744,3.623-1.81
			c1.385-0.959,2.237-1.705,3.409-2.771c0.96-0.854,1.49-1.387,1.812-1.066c0.319,0.32-0.319,0.959-1.386,1.919
			c-0.959,0.853-2.023,1.812-3.409,2.769c-1.705,1.172-2.983,1.707-4.049,1.92c-0.96,0.213-2.238,0.213-2.879-0.213
			c-2.769,2.131-7.779,5.221-12.147,5.221c-3.306,0-5.328-1.598-5.221-4.688c0.105-2.132,1.385-4.688,3.41-6.819l-0.107-0.106
			C158.557,40.932,158.13,41.357,157.385,41.996z"/>
	</g>
</g>
</svg>
