<?xml version="1.0" encoding="utf-8"?>
<!-- Generator: Adobe Illustrator 15.0.0, SVG Export Plug-In . SVG Version: 6.00 Build 0)  -->
<!DOCTYPE svg PUBLIC "-//W3C//DTD SVG 1.1//EN" "http://www.w3.org/Graphics/SVG/1.1/DTD/svg11.dtd">
<svg version="1.1" id="Layer_1" xmlns="http://www.w3.org/2000/svg" xmlns:xlink="http://www.w3.org/1999/xlink" x="0px" y="0px"
	 width="240px" height="80px" viewBox="0 0 240 80" enable-background="new 0 0 240 80" xml:space="preserve">
<g id="guides" display="none">
</g>
<g enable-background="new    ">
	<path fill="#555555" d="M65.921,52.05l-1.967-6.457h-9.89l-1.967,6.457H45.9l9.574-27.238h7.032l9.611,27.238H65.921z
		 M62.581,40.77c-1.818-5.852-2.842-9.161-3.071-9.928c-0.229-0.767-0.393-1.373-0.492-1.818c-0.408,1.583-1.577,5.499-3.507,11.746
		H62.581z"/>
</g>
<g enable-background="new    ">
	<path fill="#555555" d="M101.954,52.05h-6.55L91.73,37.8c-0.136-0.507-0.368-1.556-0.696-3.145
		c-0.328-1.589-0.517-2.656-0.566-3.201c-0.074,0.668-0.26,1.741-0.557,3.219c-0.297,1.478-0.526,2.533-0.687,3.164L85.57,52.05
		h-6.531l-6.921-27.127h5.659l3.47,14.807c0.606,2.734,1.045,5.103,1.317,7.106c0.074-0.705,0.244-1.797,0.51-3.273
		c0.266-1.479,0.516-2.627,0.751-3.441l3.952-15.196h5.437l3.952,15.196c0.173,0.681,0.39,1.72,0.649,3.115
		c0.26,1.398,0.458,2.6,0.594,3.602c0.124-0.965,0.321-2.168,0.594-3.607c0.272-1.44,0.52-2.606,0.742-3.499l3.451-14.807h5.659
		L101.954,52.05z"/>
</g>
<g enable-background="new    ">
	<path fill="#555555" d="M128.876,52.05l-1.967-6.457h-9.89l-1.967,6.457h-6.197l9.574-27.238h7.032l9.611,27.238H128.876z
		 M125.536,40.77c-1.818-5.852-2.843-9.161-3.071-9.928c-0.229-0.767-0.393-1.373-0.49-1.818c-0.408,1.583-1.578,5.499-3.508,11.746
		H125.536z"/>
	<path fill="#555555" d="M144.238,41.641V52.05h-5.752V24.923h7.904c3.688,0,6.414,0.671,8.184,2.013
		c1.769,1.342,2.652,3.38,2.652,6.114c0,1.596-0.438,3.016-1.316,4.258c-0.879,1.244-2.121,2.218-3.729,2.923
		c4.082,6.099,6.739,10.039,7.979,11.819h-6.383L147.3,41.641H144.238z M144.238,36.965h1.854c1.818,0,3.16-0.303,4.026-0.909
		c0.863-0.605,1.299-1.559,1.299-2.857c0-1.286-0.441-2.202-1.326-2.746s-2.255-0.816-4.109-0.816h-1.744V36.965L144.238,36.965z"/>
	<path fill="#555555" d="M186.08,38.227c0,4.466-1.271,7.886-3.812,10.261c-2.543,2.375-6.213,3.562-11.013,3.562h-7.682V24.923
		h8.517c4.428,0,7.867,1.169,10.316,3.507C184.855,30.768,186.08,34.033,186.08,38.227z M180.105,38.375
		c0-5.826-2.573-8.739-7.719-8.739h-3.062V47.3h2.468C177.334,47.3,180.105,44.325,180.105,38.375z"/>
	<path fill="#555555" d="M207.715,44.518c0,2.448-0.881,4.379-2.645,5.789c-1.762,1.409-4.215,2.114-7.356,2.114
		c-2.896,0-5.455-0.544-7.682-1.633v-5.345c1.831,0.815,3.38,1.393,4.647,1.727c1.266,0.334,2.428,0.501,3.479,0.501
		c1.262,0,2.229-0.241,2.902-0.724c0.674-0.483,1.012-1.199,1.012-2.152c0-0.531-0.147-1.005-0.444-1.419
		c-0.297-0.415-0.731-0.813-1.31-1.196c-0.573-0.384-1.746-0.996-3.517-1.838c-1.657-0.779-2.899-1.527-3.729-2.245
		c-0.828-0.717-1.49-1.552-1.984-2.505c-0.495-0.952-0.74-2.065-0.74-3.34c0-2.399,0.812-4.286,2.438-5.659
		c1.627-1.373,3.875-2.06,6.744-2.06c1.41,0,2.756,0.167,4.035,0.501s2.619,0.804,4.019,1.41l-1.854,4.472
		c-1.447-0.594-2.645-1.008-3.592-1.243c-0.943-0.235-1.877-0.353-2.792-0.353c-1.089,0-1.924,0.254-2.505,0.761
		c-0.582,0.507-0.872,1.169-0.872,1.985c0,0.507,0.117,0.95,0.354,1.327c0.234,0.377,0.609,0.742,1.123,1.095
		c0.513,0.353,1.729,0.987,3.646,1.902c2.536,1.213,4.272,2.428,5.214,3.646C207.244,41.254,207.715,42.748,207.715,44.518z"/>
</g>
<g enable-background="new    ">
	<path fill="#555555" d="M35.112,30.067c0,0.645-0.232,1.152-0.696,1.523s-1.109,0.557-1.936,0.557c-0.762,0-1.436-0.144-2.021-0.43
		v-1.406c0.482,0.215,0.89,0.366,1.223,0.454c0.333,0.088,0.639,0.132,0.916,0.132c0.332,0,0.587-0.063,0.764-0.19
		c0.177-0.127,0.266-0.315,0.266-0.566c0-0.14-0.039-0.265-0.117-0.374c-0.078-0.108-0.193-0.214-0.344-0.314
		s-0.46-0.262-0.925-0.483c-0.436-0.205-0.763-0.402-0.981-0.591c-0.218-0.189-0.392-0.408-0.522-0.659
		c-0.13-0.251-0.195-0.544-0.195-0.879c0-0.632,0.214-1.128,0.642-1.489c0.428-0.361,1.02-0.542,1.775-0.542
		c0.371,0,0.725,0.044,1.062,0.132s0.689,0.212,1.057,0.371l-0.488,1.177c-0.381-0.156-0.696-0.266-0.945-0.327
		s-0.494-0.093-0.735-0.093c-0.287,0-0.506,0.066-0.659,0.2c-0.153,0.134-0.229,0.308-0.229,0.522c0,0.134,0.031,0.25,0.093,0.349
		c0.062,0.1,0.16,0.195,0.295,0.289c0.135,0.092,0.455,0.259,0.959,0.5c0.667,0.319,1.125,0.639,1.372,0.959
		C34.989,29.209,35.112,29.602,35.112,30.067z"/>
	<path fill="#555555" d="M36.406,32.05v-7.139h1.514v7.139H36.406z"/>
	<path fill="#555555" d="M42.471,32.05h-1.514v-5.879h-1.938v-1.26h5.391v1.26h-1.938L42.471,32.05L42.471,32.05z"/>
	<path fill="#555555" d="M49.619,32.05h-4.111v-7.139h4.111v1.24h-2.598v1.567h2.417v1.24h-2.417V30.8h2.598V32.05z"/>
</g>
</svg>
