<?xml version="1.0" encoding="utf-8"?>
<!-- Generator: Adobe Illustrator 15.0.0, SVG Export Plug-In . SVG Version: 6.00 Build 0)  -->
<!DOCTYPE svg PUBLIC "-//W3C//DTD SVG 1.1//EN" "http://www.w3.org/Graphics/SVG/1.1/DTD/svg11.dtd">
<svg version="1.1" xmlns="http://www.w3.org/2000/svg" xmlns:xlink="http://www.w3.org/1999/xlink" x="0px" y="0px" width="230px"
	 height="35px" viewBox="0 0 230 35" enable-background="new 0 0 230 35" xml:space="preserve">
<g id="Layer_1">
	<g display="none">
		<g display="inline">
			<g>
				<path fill="#888888" d="M124.891,25.689c-0.35,0-0.592-0.092-0.729-0.275s-0.197-0.423-0.179-0.717
					c0.018-0.295,0.086-0.61,0.205-0.95c0.119-0.341,0.258-0.671,0.414-0.992c0.155-0.321,0.308-0.606,0.455-0.854
					c0.146-0.248,0.248-0.416,0.303-0.51c0.258-0.367,0.515-0.716,0.771-1.047c0.258-0.33,0.523-0.66,0.799-0.992
					c-0.479,0.02-0.945,0.037-1.404,0.057c-0.461,0.019-0.92,0.046-1.379,0.082c-1.487,0.109-2.957,0.238-4.407,0.386
					c-1.452,0.147-2.912,0.312-4.382,0.496c-0.055,0.019-0.129,0.026-0.221,0.026l-4.271,5.182l-2.149,2.646
					c-0.184,0.221-0.376,0.32-0.579,0.303c-0.203-0.019-0.399-0.096-0.592-0.234c-0.193-0.138-0.372-0.294-0.537-0.468
					c-0.166-0.175-0.313-0.317-0.441-0.429c-0.57-0.478-1.153-0.94-1.75-1.392c-0.597-0.45-1.217-0.877-1.86-1.28
					c-0.588-0.367-1.217-0.729-1.888-1.088c-0.671-0.359-1.355-0.611-2.053-0.759c-0.166-0.037-0.345-0.069-0.538-0.097
					c-0.193-0.028-0.363-0.115-0.51-0.262c-0.165-0.185-0.225-0.403-0.179-0.662c0.045-0.256,0.179-0.44,0.399-0.551
					c0.202-0.109,0.441-0.175,0.716-0.192c0.275-0.019,0.533-0.046,0.771-0.083l2.921-0.44c1.965-0.294,3.922-0.573,5.87-0.841
					c1.947-0.266,3.903-0.527,5.869-0.785c0.386-0.479,0.771-0.945,1.157-1.405c0.386-0.459,0.781-0.928,1.186-1.405l4.133-4.822
					c0.625-0.698,1.244-1.396,1.859-2.094c0.615-0.698,1.264-1.359,1.943-1.984c0.146-0.147,0.316-0.308,0.51-0.482
					c0.193-0.174,0.398-0.271,0.619-0.289c0.184-0.018,0.34,0.023,0.469,0.124s0.221,0.22,0.275,0.358
					c0.056,0.138,0.063,0.29,0.027,0.455c-0.037,0.165-0.119,0.312-0.248,0.441c-0.754,0.606-1.466,1.258-2.136,1.956
					c-0.671,0.699-1.328,1.419-1.971,2.163c-0.644,0.744-1.276,1.502-1.9,2.273c-0.625,0.771-1.25,1.525-1.874,2.26l-1.818,2.177
					c0.754-0.092,1.498-0.176,2.231-0.248c0.734-0.073,1.488-0.156,2.261-0.248c1.192-0.11,2.393-0.216,3.596-0.316
					c1.203-0.102,2.41-0.134,3.623-0.097l1.322-1.433c0.828-0.882,1.657-1.736,2.493-2.563c0.837-0.827,1.695-1.653,2.576-2.48
					c0.058-0.055,0.181-0.179,0.373-0.372s0.418-0.399,0.676-0.62c0.257-0.22,0.523-0.436,0.8-0.647
					c0.274-0.211,0.53-0.358,0.771-0.441c0.237-0.083,0.438-0.087,0.604-0.014c0.166,0.074,0.258,0.285,0.275,0.634
					c0,0.147-0.037,0.285-0.109,0.413c-0.074,0.129-0.166,0.248-0.274,0.358c-0.111,0.11-0.229,0.211-0.359,0.303
					c-0.129,0.092-0.237,0.184-0.329,0.275c-0.718,0.625-1.425,1.277-2.121,1.957c-0.81,0.771-1.601,1.547-2.371,2.329
					c-0.771,0.78-1.543,1.584-2.314,2.411c0.422,0.037,0.859,0.124,1.309,0.262c0.451,0.138,0.769,0.408,0.951,0.812
					c0.111,0.275,0.111,0.511,0,0.703c-0.109,0.192-0.262,0.326-0.455,0.399c-0.191,0.072-0.391,0.078-0.592,0.014
					c-0.203-0.064-0.33-0.225-0.387-0.482c-0.201-0.146-0.514-0.238-0.936-0.274c-0.425-0.037-0.818-0.046-1.187-0.027
					c-0.533,0.604-1.058,1.229-1.57,1.873c-0.515,0.644-0.965,1.313-1.351,2.013c-0.11,0.184-0.221,0.385-0.331,0.605
					c-0.109,0.221-0.175,0.45-0.192,0.688c0,0.129,0,0.264,0,0.4s-0.014,0.266-0.041,0.387c-0.027,0.118-0.087,0.219-0.179,0.303
					C125.238,25.648,125.092,25.689,124.891,25.689z M107.972,26.682c0.827-1.011,1.648-2.017,2.466-3.018s1.64-1.998,2.466-2.989
					c-1.892,0.257-3.771,0.519-5.635,0.785c-1.865,0.267-3.734,0.537-5.608,0.812c1.158,0.569,2.25,1.25,3.279,2.039
					C105.969,25.102,106.979,25.893,107.972,26.682z"/>
				<path fill="#888888" d="M138.502,19.545c0.092,0.037,0.175,0.078,0.248,0.124s0.139,0.097,0.193,0.151
					c0.367-0.037,0.733,0.019,1.103,0.164c0.367,0.203,0.56,0.418,0.578,0.647s-0.046,0.474-0.192,0.729
					c0.403-0.055,0.812-0.146,1.227-0.274s0.822-0.274,1.227-0.44c0.403-0.166,0.805-0.33,1.198-0.496
					c0.396-0.166,0.776-0.303,1.144-0.414c0.203-0.055,0.418-0.109,0.647-0.164c0.229-0.057,0.444-0.01,0.647,0.138
					c0.166,0.129,0.267,0.267,0.304,0.413c0.036,0.146,0.026,0.29-0.027,0.428c-0.056,0.139-0.147,0.262-0.274,0.372
					c-0.129,0.109-0.276,0.175-0.441,0.192c-0.588,0.092-1.167,0.262-1.736,0.51c-0.568,0.248-1.129,0.464-1.681,0.646
					c-0.257,0.092-0.533,0.193-0.826,0.305c-0.294,0.109-0.598,0.201-0.909,0.275c-0.312,0.072-0.625,0.113-0.938,0.123
					s-0.605-0.031-0.883-0.123c-0.312-0.147-0.51-0.336-0.592-0.565s-0.078-0.474,0.015-0.729c-0.368,0.055-0.735,0.139-1.103,0.248
					c-0.479,0.146-0.951,0.312-1.42,0.495c-0.469,0.185-0.941,0.321-1.419,0.414c-0.312,0.056-0.634,0.056-0.965,0
					c-0.33-0.056-0.578-0.239-0.744-0.552c-0.202-0.387-0.216-0.748-0.041-1.088s0.44-0.635,0.8-0.883
					c0.358-0.248,0.748-0.449,1.17-0.605c0.424-0.156,0.772-0.252,1.049-0.289c0.459-0.056,0.908-0.061,1.35-0.014
					C137.648,19.329,138.08,19.416,138.502,19.545z M134.865,21.17c0.184-0.036,0.367-0.082,0.551-0.138s0.367-0.119,0.552-0.192
					C135.525,20.895,135.159,21.005,134.865,21.17z"/>
				<path fill="#888888" d="M146.107,19.572c0.146,0,0.289,0.023,0.428,0.068c0.138,0.047,0.252,0.123,0.345,0.233
					c0.165,0.202,0.243,0.392,0.233,0.565c-0.01,0.175-0.061,0.344-0.151,0.51c0.478-0.092,0.955-0.202,1.433-0.331
					c0.479-0.128,0.955-0.257,1.435-0.386c0.22-0.056,0.459-0.119,0.716-0.192c0.258-0.073,0.52-0.129,0.786-0.166
					c0.267-0.036,0.532-0.05,0.799-0.041c0.267,0.01,0.511,0.067,0.729,0.179c0.312,0.147,0.496,0.322,0.552,0.523
					c0.055,0.203,0.036,0.414-0.056,0.634c0.258-0.071,0.515-0.142,0.771-0.206c0.258-0.064,0.515-0.143,0.772-0.234
					c0.494-0.146,0.996-0.299,1.5-0.455c0.506-0.154,1.017-0.307,1.529-0.453c0.239-0.073,0.521-0.151,0.842-0.234
					c0.32-0.083,0.602-0.041,0.84,0.124c0.146,0.11,0.238,0.244,0.275,0.399c0.036,0.156,0.031,0.312-0.014,0.469
					c-0.046,0.156-0.135,0.285-0.262,0.386c-0.129,0.101-0.276,0.151-0.441,0.151c-0.697,0.055-1.404,0.221-2.122,0.496
					c-0.716,0.275-1.405,0.515-2.065,0.717c-0.203,0.055-0.438,0.128-0.703,0.22c-0.266,0.093-0.537,0.175-0.812,0.248
					s-0.551,0.119-0.826,0.138c-0.275,0.02-0.522-0.019-0.744-0.109c-0.258-0.109-0.437-0.299-0.537-0.564
					c-0.102-0.266-0.114-0.537-0.041-0.812c-0.404,0.036-0.799,0.101-1.186,0.192c-0.386,0.09-0.771,0.184-1.156,0.274
					c-0.259,0.074-0.529,0.155-0.812,0.248c-0.285,0.093-0.57,0.185-0.854,0.274c-0.285,0.092-0.57,0.166-0.854,0.222
					c-0.285,0.056-0.563,0.073-0.841,0.056c-0.165-0.02-0.33-0.074-0.495-0.166c-0.222-0.146-0.349-0.303-0.386-0.468
					c-0.037-0.166-0.023-0.331,0.041-0.496c0.063-0.166,0.156-0.331,0.274-0.496c0.12-0.165,0.234-0.321,0.345-0.469
					c-0.072-0.238-0.051-0.474,0.068-0.702C145.58,19.688,145.796,19.572,146.107,19.572z"/>
				<path fill="#888888" d="M172.919,12.132c-0.846,0.698-1.681,1.41-2.508,2.135c-0.826,0.727-1.636,1.475-2.425,2.246
					c-0.387,0.367-0.785,0.744-1.198,1.13c-0.414,0.386-0.817,0.785-1.213,1.198s-0.767,0.847-1.116,1.295
					c-0.35,0.451-0.634,0.914-0.854,1.392c0.643-0.127,1.271-0.34,1.888-0.633c0.614-0.293,1.233-0.552,1.858-0.771
					c0.367-0.128,0.739-0.243,1.116-0.344c0.376-0.103,0.759-0.17,1.144-0.207c0.166-0.02,0.332,0,0.496,0.055
					c0.166,0.057,0.304,0.139,0.414,0.248c0.109,0.109,0.179,0.244,0.207,0.398c0.026,0.156-0.023,0.328-0.151,0.511
					c-0.147,0.202-0.368,0.313-0.662,0.331c-0.294,0.019-0.552,0.055-0.771,0.109c-0.496,0.092-0.979,0.229-1.446,0.414
					c-0.468,0.184-0.941,0.377-1.419,0.578c-0.496,0.201-1.021,0.413-1.571,0.635c-0.551,0.219-1.103,0.32-1.653,0.303
					c-0.588-0.037-0.945-0.202-1.074-0.496s-0.119-0.651,0.027-1.074c-0.605,0.257-1.24,0.5-1.9,0.729
					c-0.662,0.229-1.313,0.363-1.957,0.4c-0.201,0-0.385-0.02-0.551-0.056c-0.166-0.037-0.32-0.13-0.469-0.275
					c-0.238-0.237-0.331-0.481-0.275-0.729s0.18-0.486,0.373-0.717c0.191-0.229,0.418-0.437,0.674-0.619
					c0.258-0.184,0.479-0.321,0.662-0.414c0.66-0.33,1.367-0.532,2.121-0.605c0.754-0.072,1.487-0.02,2.205,0.165
					c0.019,0.019,0.045,0.027,0.082,0.027c0.073-0.036,0.143-0.06,0.206-0.068c0.064-0.01,0.124-0.022,0.181-0.042
					c0.256-0.33,0.519-0.643,0.785-0.938c0.266-0.293,0.514-0.563,0.744-0.812c0.229-0.248,0.432-0.459,0.605-0.634
					c0.174-0.175,0.298-0.299,0.371-0.372c0.734-0.734,1.482-1.451,2.246-2.149c0.762-0.698,1.537-1.387,2.328-2.067
					c0.238-0.22,0.52-0.5,0.84-0.84c0.322-0.34,0.647-0.556,0.979-0.647c0.185-0.055,0.345-0.05,0.482,0.014
					s0.243,0.166,0.315,0.303c0.073,0.137,0.102,0.289,0.084,0.455C173.121,11.856,173.047,12.004,172.919,12.132z"/>
				<path fill="#888888" d="M178.76,12.959c-0.845,0.588-1.652,1.217-2.425,1.887c-0.771,0.672-1.517,1.374-2.231,2.108
					c-0.386,0.404-0.763,0.813-1.129,1.228c-0.369,0.412-0.728,0.84-1.076,1.28c-0.072,0.093-0.178,0.216-0.315,0.372
					s-0.285,0.331-0.44,0.523c-0.156,0.192-0.3,0.391-0.428,0.593c-0.129,0.202-0.229,0.396-0.303,0.577
					c0.312-0.072,0.619-0.168,0.923-0.288c0.304-0.119,0.61-0.243,0.923-0.372c0.514-0.202,1.033-0.403,1.557-0.606
					c0.523-0.2,1.053-0.366,1.586-0.495c0.238-0.056,0.541-0.119,0.908-0.192s0.67-0.027,0.909,0.138
					c0.185,0.129,0.294,0.268,0.331,0.413c0.036,0.147,0.021,0.285-0.042,0.413c-0.063,0.129-0.165,0.248-0.303,0.357
					c-0.138,0.11-0.289,0.186-0.455,0.222c-0.312,0.073-0.629,0.138-0.95,0.192c-0.32,0.056-0.639,0.139-0.951,0.248
					c-0.733,0.258-1.455,0.543-2.162,0.854c-0.707,0.312-1.446,0.542-2.219,0.689c-0.258,0.035-0.52,0.03-0.785-0.015
					c-0.267-0.047-0.481-0.188-0.646-0.428c-0.258-0.367-0.312-0.794-0.166-1.281c0.146-0.485,0.382-0.969,0.703-1.446
					c0.32-0.477,0.675-0.924,1.061-1.337c0.387-0.413,0.689-0.739,0.909-0.978c0.754-0.827,1.528-1.621,2.329-2.384
					c0.799-0.762,1.63-1.493,2.492-2.191c0.259-0.202,0.548-0.455,0.869-0.758c0.32-0.303,0.639-0.491,0.951-0.565
					c0.183-0.055,0.344-0.041,0.48,0.042c0.139,0.083,0.238,0.193,0.304,0.331c0.065,0.138,0.082,0.29,0.056,0.455
					C178.994,12.711,178.907,12.849,178.76,12.959z"/>
				<path fill="#888888" d="M189.589,21.088c-0.423,0.037-0.841,0.105-1.254,0.206c-0.413,0.103-0.831,0.198-1.254,0.29
					c-1.103,0.257-2.194,0.5-3.279,0.729c-1.084,0.229-2.186,0.4-3.307,0.511c-0.294,0.036-0.603,0.063-0.923,0.083
					c-0.321,0.019-0.645,0.009-0.965-0.027c-0.321-0.037-0.629-0.105-0.924-0.207c-0.293-0.102-0.561-0.253-0.799-0.454
					c-0.201-0.166-0.361-0.358-0.482-0.579c-0.118-0.221-0.191-0.449-0.221-0.688c-0.027-0.239-0.004-0.473,0.069-0.703
					c0.073-0.229,0.211-0.436,0.413-0.62c0.129-0.128,0.335-0.233,0.62-0.315c0.284-0.084,0.603-0.144,0.95-0.181
					c0.35-0.036,0.697-0.045,1.048-0.026c0.349,0.019,0.651,0.082,0.909,0.192c0.257,0.11,0.437,0.263,0.537,0.454
					c0.101,0.193,0.086,0.438-0.041,0.73c-0.11,0.221-0.275,0.377-0.496,0.469s-0.469,0.15-0.744,0.179s-0.562,0.027-0.854,0
					c-0.293-0.026-0.551-0.06-0.771-0.097c0.072,0.074,0.221,0.134,0.441,0.18c0.219,0.046,0.453,0.078,0.701,0.098
					c0.248,0.019,0.479,0.026,0.689,0.026s0.344,0,0.398,0c0.899-0.073,1.795-0.202,2.688-0.386
					c0.891-0.184,1.777-0.377,2.658-0.579c0.644-0.146,1.281-0.298,1.916-0.454c0.633-0.156,1.271-0.271,1.914-0.345
					c0.275-0.019,0.506,0.046,0.688,0.192c0.185,0.146,0.304,0.316,0.358,0.51c0.056,0.192,0.031,0.371-0.068,0.537
					S189.9,21.068,189.589,21.088z"/>
				<path fill="#888888" d="M189.562,19.572c0.367,0.019,0.604,0.129,0.715,0.33c0.111,0.203,0.147,0.44,0.111,0.717
					c0.478-0.403,0.871-0.863,1.185-1.378c0.073-0.11,0.143-0.229,0.206-0.358c0.064-0.128,0.139-0.247,0.222-0.357
					c0.082-0.109,0.179-0.196,0.289-0.262c0.11-0.064,0.248-0.087,0.413-0.068c0.275,0.037,0.449,0.156,0.523,0.357
					c0.072,0.202,0.109,0.413,0.109,0.635c0.092,0.184,0.331,0.308,0.717,0.371c0.387,0.064,0.812,0.102,1.281,0.11
					s0.914,0,1.337-0.028c0.422-0.026,0.716-0.041,0.881-0.041c0.166,0,0.354-0.014,0.565-0.041
					c0.211-0.026,0.427-0.051,0.646-0.068c0.221-0.018,0.432-0.014,0.635,0.014c0.201,0.028,0.375,0.098,0.522,0.207
					c0.146,0.109,0.243,0.244,0.289,0.398c0.046,0.156,0.042,0.309-0.015,0.455c-0.055,0.146-0.143,0.271-0.262,0.373
					c-0.119,0.101-0.271,0.15-0.453,0.15c-0.295,0.073-0.611,0.098-0.951,0.068c-0.34-0.027-0.657-0.031-0.95-0.014
					c-0.496,0-0.992,0-1.488,0c-0.495,0-0.991-0.019-1.487-0.056c-0.35-0.037-0.717-0.101-1.103-0.192
					c-0.386-0.093-0.728-0.238-1.021-0.44c-0.203,0.239-0.414,0.473-0.633,0.702c-0.222,0.229-0.441,0.445-0.662,0.646
					c-0.221,0.203-0.451,0.409-0.688,0.62c-0.239,0.211-0.515,0.354-0.826,0.429c-0.387,0.109-0.717,0.026-0.992-0.248
					c-0.129-0.147-0.202-0.299-0.221-0.455c-0.019-0.155-0.004-0.316,0.041-0.482c0.046-0.165,0.103-0.33,0.166-0.496
					c0.063-0.165,0.124-0.32,0.179-0.468c-0.092-0.238-0.072-0.486,0.055-0.744C189.027,19.701,189.249,19.572,189.562,19.572z"/>
			</g>
			<g>
				<path fill="#888888" d="M18.696,29.872c-1.278,0-2.551-0.062-3.819-0.188c-1.269-0.125-2.521-0.356-3.757-0.691
					c-0.419-0.104-0.88-0.241-1.383-0.408c-0.503-0.168-0.98-0.383-1.43-0.645c-0.451-0.263-0.833-0.577-1.147-0.943
					c-0.314-0.367-0.503-0.802-0.566-1.305c-0.063-0.587,0.058-1.09,0.361-1.509s0.723-0.774,1.258-1.068
					c0.534-0.293,1.136-0.534,1.807-0.723c0.67-0.189,1.346-0.341,2.028-0.456c0.681-0.115,1.314-0.204,1.901-0.268
					c0.586-0.062,1.069-0.114,1.446-0.157c2.745-0.335,5.479-0.561,8.204-0.676c2.724-0.114,5.47-0.193,8.236-0.235
					c0.67,0,1.341-0.005,2.012-0.016c0.67-0.011,1.341-0.016,2.012-0.016c0.503-0.566,0.99-1.137,1.462-1.714
					c0.471-0.576,0.948-1.157,1.43-1.744c0.922-1.173,1.828-2.336,2.719-3.489c0.89-1.152,1.839-2.273,2.845-3.363
					c-2.746-0.293-5.548-0.409-8.409-0.346c-2.861,0.063-5.643,0.398-8.346,1.006c-0.482,0.105-0.97,0.23-1.462,0.377
					c-0.493,0.147-0.97,0.335-1.43,0.566c-0.168,0.084-0.351,0.194-0.55,0.33s-0.403,0.251-0.613,0.346s-0.419,0.137-0.629,0.125
					c-0.209-0.01-0.388-0.13-0.534-0.361c-0.209-0.293-0.247-0.571-0.11-0.833c0.136-0.262,0.377-0.503,0.723-0.723
					c0.346-0.22,0.76-0.424,1.242-0.613s0.954-0.356,1.415-0.503c0.461-0.146,0.885-0.262,1.273-0.346
					c0.387-0.083,0.654-0.146,0.801-0.188c2.641-0.545,5.333-0.849,8.079-0.912c2.745-0.063,5.459,0.021,8.142,0.251
					c0.209,0.021,0.466,0.037,0.77,0.047c0.304,0.011,0.602,0.042,0.896,0.094c0.293,0.053,0.566,0.142,0.817,0.268
					c0.251,0.125,0.419,0.314,0.503,0.565c0.104,0.335,0.042,0.624-0.189,0.865c-0.23,0.241-0.451,0.477-0.66,0.707
					c-0.293,0.314-0.587,0.64-0.88,0.975c-0.294,0.335-0.587,0.671-0.88,1.006c-1.069,1.257-2.085,2.525-3.049,3.804
					c-0.964,1.278-1.98,2.546-3.049,3.804c1.089,0,2.174,0,3.253,0c1.079,0,2.164,0.011,3.253,0.031
					c0.377,0,0.754,0.005,1.132,0.016c0.377,0.011,0.765,0.016,1.163,0.016c0.397,0,0.849-0.021,1.352-0.062s0.953,0,1.352,0.125
					c0.167,0.063,0.299,0.157,0.393,0.283s0.152,0.268,0.173,0.425c0.021,0.157,0.005,0.314-0.047,0.471
					c-0.052,0.157-0.152,0.289-0.298,0.394c-0.147,0.104-0.325,0.173-0.535,0.204s-0.435,0.042-0.676,0.031
					c-0.241-0.01-0.471-0.031-0.691-0.062s-0.414-0.047-0.582-0.047l-5.375-0.063h-4.935c-0.356,0-0.608,0.084-0.754,0.252
					c-0.147,0.168-0.335,0.366-0.566,0.597c-0.733,0.734-1.488,1.415-2.263,2.044c-0.775,0.628-1.603,1.215-2.483,1.76
					c-0.923,0.565-1.886,1.037-2.892,1.415c-1.006,0.377-2.033,0.676-3.081,0.896c-1.048,0.22-2.106,0.372-3.175,0.456
					C20.833,29.83,19.765,29.872,18.696,29.872z M34.13,22.328c-3.102,0.042-6.188,0.115-9.257,0.221
					c-3.07,0.104-6.145,0.346-9.226,0.723c-1.09,0.126-2.206,0.278-3.348,0.456c-1.143,0.178-2.206,0.519-3.191,1.021
					c-0.503,0.23-0.739,0.487-0.707,0.77c0.031,0.283,0.309,0.571,0.833,0.865c0.796,0.481,1.676,0.843,2.64,1.084
					c0.964,0.24,1.949,0.414,2.955,0.519s2.012,0.152,3.018,0.142s1.959-0.037,2.86-0.078c2.264-0.126,4.495-0.524,6.696-1.195
					c0.963-0.293,1.833-0.681,2.609-1.163c0.775-0.482,1.451-0.958,2.027-1.43c0.576-0.472,1.042-0.896,1.399-1.273
					C33.794,22.611,34.025,22.392,34.13,22.328z"/>
				<path fill="#888888" d="M53.682,20.726c0.105,0.042,0.199,0.089,0.283,0.141c0.083,0.053,0.157,0.11,0.22,0.173
					c0.419-0.041,0.838,0.021,1.257,0.189c0.419,0.23,0.639,0.477,0.66,0.738c0.021,0.263-0.052,0.54-0.22,0.833
					c0.46-0.062,0.927-0.167,1.398-0.314c0.472-0.146,0.938-0.314,1.399-0.503s0.917-0.377,1.368-0.565
					c0.45-0.188,0.885-0.346,1.304-0.472c0.23-0.062,0.477-0.126,0.739-0.188c0.262-0.063,0.508-0.011,0.739,0.157
					c0.188,0.146,0.304,0.304,0.346,0.472s0.032,0.33-0.031,0.486c-0.063,0.157-0.168,0.299-0.314,0.425
					c-0.147,0.126-0.314,0.199-0.503,0.22c-0.671,0.105-1.331,0.299-1.98,0.582c-0.65,0.283-1.289,0.529-1.917,0.738
					c-0.293,0.105-0.608,0.221-0.943,0.346c-0.335,0.126-0.681,0.23-1.038,0.314s-0.712,0.131-1.068,0.142
					c-0.357,0.011-0.692-0.037-1.006-0.142c-0.357-0.168-0.582-0.383-0.676-0.645c-0.094-0.262-0.089-0.539,0.016-0.833
					c-0.419,0.063-0.838,0.157-1.257,0.283c-0.545,0.168-1.084,0.356-1.619,0.565c-0.534,0.21-1.074,0.367-1.619,0.472
					c-0.356,0.063-0.723,0.063-1.1,0c-0.377-0.062-0.66-0.272-0.849-0.629c-0.23-0.439-0.246-0.854-0.047-1.241
					s0.503-0.723,0.912-1.006s0.854-0.514,1.336-0.691s0.88-0.288,1.194-0.33c0.523-0.062,1.038-0.068,1.541-0.016
					S53.199,20.579,53.682,20.726z M49.533,22.58c0.209-0.042,0.419-0.095,0.628-0.157c0.209-0.063,0.419-0.137,0.629-0.221
					C50.287,22.266,49.868,22.392,49.533,22.58z"/>
				<path fill="#888888" d="M61.886,22.234c-0.251-0.252-0.377-0.492-0.377-0.724c0-0.23,0.073-0.413,0.22-0.55
					c0.147-0.136,0.325-0.22,0.535-0.252c0.209-0.031,0.409,0.027,0.597,0.174c0.272,0.23,0.649,0.377,1.131,0.439
					c0.482,0.063,0.964,0.121,1.446,0.173c0.481,0.053,0.917,0.137,1.304,0.252s0.634,0.341,0.739,0.676
					c0.775-0.23,1.561-0.435,2.357-0.613c0.796-0.178,1.52-0.34,2.169-0.487c0.293-0.062,0.639-0.142,1.037-0.235
					c0.398-0.095,0.807-0.184,1.226-0.268c0.419-0.083,0.828-0.131,1.226-0.142c0.398-0.01,0.754,0.026,1.069,0.11
					c0.167,0.062,0.299,0.157,0.393,0.283c0.094,0.125,0.157,0.267,0.188,0.424c0.032,0.157,0.021,0.31-0.031,0.456
					c-0.053,0.146-0.152,0.272-0.299,0.377c-0.209,0.168-0.477,0.241-0.801,0.221c-0.325-0.021-0.613-0.011-0.865,0.031
					c-1.383,0.168-2.761,0.408-4.133,0.723c-1.373,0.314-2.719,0.691-4.04,1.132c-0.188,0.062-0.435,0.173-0.739,0.33
					s-0.608,0.288-0.912,0.393s-0.592,0.152-0.864,0.142c-0.272-0.011-0.482-0.142-0.629-0.393c-0.105-0.21-0.141-0.409-0.11-0.598
					c0.032-0.188,0.115-0.361,0.251-0.519s0.299-0.293,0.487-0.408s0.388-0.205,0.597-0.268c-0.231-0.042-0.493-0.079-0.786-0.11
					c-0.294-0.031-0.587-0.073-0.88-0.126c-0.293-0.052-0.577-0.125-0.849-0.22C62.274,22.564,62.054,22.423,61.886,22.234z"/>
				<path fill="#888888" d="M86.152,22.485c-1.068,0.021-2.159,0.047-3.269,0.079c-1.111,0.031-2.2-0.091-3.269-0.367
					c-0.084,0-0.168-0.021-0.251-0.063c-0.126,0.36-0.31,0.703-0.55,1.027c-0.241,0.325-0.508,0.603-0.801,0.833
					c-0.294,0.23-0.613,0.398-0.959,0.503s-0.686,0.115-1.021,0.031c-0.314-0.084-0.55-0.241-0.708-0.471
					c-0.157-0.23-0.246-0.492-0.267-0.786c-0.021-0.293,0.016-0.589,0.11-0.885c0.094-0.297,0.225-0.562,0.393-0.798
					c0.273-0.341,0.619-0.596,1.038-0.766s0.838-0.191,1.257-0.066c0.042-0.293,0.209-0.523,0.503-0.691
					c0.293-0.168,0.607-0.146,0.943,0.062c0.314,0.188,0.655,0.33,1.021,0.425c0.367,0.094,0.749,0.151,1.147,0.173
					c0.398,0.021,0.791,0.026,1.179,0.016s0.759-0.016,1.116-0.016c0.419,0,0.869-0.026,1.352-0.079
					c0.482-0.052,0.922-0.015,1.32,0.11c0.23,0.086,0.393,0.225,0.487,0.417c0.094,0.191,0.125,0.384,0.094,0.576
					c-0.032,0.191-0.121,0.362-0.267,0.512C86.603,22.411,86.404,22.485,86.152,22.485z M76.754,22.895
					c0.062-0.063,0.188-0.095,0.377-0.095v-0.283c-0.042,0.043-0.105,0.09-0.188,0.142C76.858,22.711,76.795,22.789,76.754,22.895z"
					/>
				<path fill="#888888" d="M86.215,20.757c0.167,0,0.33,0.026,0.487,0.078c0.157,0.053,0.288,0.142,0.393,0.268
					c0.189,0.23,0.278,0.445,0.268,0.645c-0.011,0.199-0.068,0.393-0.173,0.581c0.545-0.104,1.09-0.23,1.635-0.377
					s1.089-0.293,1.635-0.44c0.251-0.062,0.523-0.136,0.817-0.22s0.592-0.146,0.896-0.188s0.607-0.058,0.912-0.047
					c0.304,0.011,0.582,0.078,0.833,0.204c0.356,0.168,0.566,0.366,0.629,0.597c0.062,0.231,0.042,0.472-0.063,0.724
					c0.293-0.084,0.586-0.162,0.88-0.236c0.293-0.073,0.587-0.162,0.88-0.267c0.566-0.168,1.137-0.341,1.713-0.519
					c0.576-0.178,1.157-0.352,1.745-0.52c0.272-0.083,0.592-0.173,0.958-0.267c0.366-0.095,0.686-0.047,0.959,0.142
					c0.167,0.125,0.272,0.277,0.314,0.455c0.042,0.179,0.037,0.357-0.016,0.535c-0.053,0.178-0.152,0.325-0.298,0.439
					c-0.147,0.115-0.314,0.173-0.503,0.173c-0.796,0.063-1.603,0.252-2.42,0.566c-0.817,0.314-1.603,0.587-2.357,0.817
					c-0.231,0.062-0.498,0.146-0.801,0.251c-0.304,0.104-0.613,0.199-0.928,0.283c-0.314,0.083-0.628,0.136-0.943,0.157
					c-0.314,0.021-0.597-0.021-0.849-0.126c-0.294-0.126-0.498-0.341-0.613-0.645c-0.116-0.304-0.131-0.613-0.047-0.927
					c-0.461,0.042-0.912,0.115-1.352,0.22c-0.44,0.105-0.88,0.21-1.32,0.314c-0.294,0.084-0.603,0.178-0.927,0.282
					c-0.325,0.105-0.65,0.21-0.975,0.314c-0.325,0.105-0.65,0.189-0.975,0.252s-0.644,0.083-0.958,0.062
					c-0.188-0.021-0.377-0.084-0.566-0.188c-0.251-0.168-0.398-0.346-0.44-0.534s-0.026-0.377,0.047-0.565
					c0.074-0.189,0.179-0.378,0.314-0.566c0.137-0.188,0.267-0.366,0.393-0.534c-0.083-0.272-0.058-0.539,0.079-0.802
					C85.613,20.888,85.859,20.757,86.215,20.757z"/>
			</g>
		</g>
		<path display="inline" fill="#888888" d="M206.395,20.752c-0.254,0.502-1.254,0.914-2.229,0.914c-0.979,0-1.562-0.412-1.312-0.914
			c0.254-0.506,1.254-0.918,2.23-0.918S206.646,20.246,206.395,20.752z"/>
	</g>
	<g display="none">
		<path display="inline" fill="#888888" d="M19.047,29.266c-0.451,0-0.723-0.164-0.815-0.492s-0.092-0.702,0-1.122
			c0.092-0.421,0.225-0.836,0.4-1.246c0.174-0.41,0.312-0.707,0.415-0.892l0.185-0.399c-0.984,0.04-1.963,0.046-2.937,0.015
			c-0.974-0.03-1.953-0.107-2.937-0.23c-0.165-0.021-0.451-0.057-0.861-0.107c-0.41-0.052-0.79-0.144-1.138-0.276
			c-0.349-0.134-0.595-0.308-0.738-0.523c-0.144-0.215-0.042-0.497,0.308-0.846c0.185-0.164,0.379-0.24,0.584-0.23
			c0.205,0.011,0.42,0.036,0.646,0.077c0.41,0.103,0.825,0.18,1.246,0.23c0.42,0.052,0.846,0.098,1.276,0.139
			c1.845,0.226,3.711,0.256,5.597,0.092c0.349-0.512,0.708-1.015,1.077-1.507s0.758-0.974,1.168-1.445
			c0.103-0.123,0.354-0.415,0.753-0.877c0.4-0.461,0.872-0.979,1.415-1.553c0.543-0.574,1.123-1.158,1.737-1.753
			c0.615-0.595,1.205-1.097,1.769-1.507c0.563-0.41,1.061-0.676,1.492-0.799s0.728,0,0.892,0.369
			c0.103,0.226,0.087,0.452-0.046,0.677c-0.134,0.226-0.318,0.436-0.554,0.63c-0.236,0.195-0.487,0.375-0.753,0.539
			c-0.267,0.164-0.472,0.307-0.615,0.43c-0.779,0.677-1.522,1.384-2.229,2.122s-1.399,1.497-2.076,2.276
			c-0.307,0.349-0.605,0.707-0.892,1.076c-0.288,0.369-0.574,0.738-0.861,1.107c1.292-0.185,2.583-0.431,3.875-0.738
			c2.05-0.472,4.064-1.112,6.043-1.923c1.979-0.81,3.798-1.86,5.459-3.151c0.328-0.246,0.677-0.533,1.045-0.861
			c0.369-0.328,0.708-0.687,1.015-1.077c0.308-0.389,0.558-0.8,0.753-1.23c0.195-0.431,0.271-0.881,0.23-1.354v0.031
			c-0.062-0.738-0.343-1.358-0.846-1.86s-1.092-0.923-1.768-1.261c-0.677-0.338-1.395-0.6-2.153-0.784
			c-0.759-0.185-1.425-0.328-1.999-0.431c-1.928-0.328-3.88-0.461-5.859-0.4c-1.979,0.062-3.932,0.267-5.859,0.615
			c-1.62,0.288-3.245,0.703-4.875,1.246c-1.63,0.543-3.132,1.307-4.505,2.291c-0.534,0.39-1.021,0.826-1.461,1.307
			c-0.441,0.482-0.795,1.03-1.061,1.646c-0.123,0.267-0.297,0.457-0.523,0.569c-0.226,0.113-0.446,0.149-0.661,0.108
			s-0.384-0.154-0.507-0.338s-0.123-0.431,0-0.738c0.246-0.656,0.574-1.261,0.984-1.814s0.876-1.061,1.399-1.522
			c0.523-0.461,1.086-0.871,1.691-1.23c0.604-0.358,1.215-0.682,1.83-0.969c1.579-0.758,3.219-1.343,4.921-1.753
			c1.701-0.41,3.424-0.708,5.167-0.892c1.845-0.205,3.706-0.287,5.582-0.246c1.876,0.042,3.716,0.288,5.521,0.738
			c0.697,0.164,1.425,0.395,2.184,0.692c0.758,0.297,1.461,0.667,2.106,1.107c0.646,0.441,1.189,0.974,1.63,1.599
			s0.692,1.348,0.754,2.168c0.062,1.128-0.21,2.158-0.815,3.091c-0.605,0.934-1.379,1.773-2.322,2.522
			c-0.943,0.748-1.948,1.398-3.014,1.952c-1.066,0.554-2.03,1.016-2.891,1.384c-3.917,1.743-8.017,2.83-12.302,3.261
			c-0.123,0.163-0.236,0.343-0.338,0.538c-0.103,0.194-0.205,0.384-0.308,0.568c-0.164,0.287-0.308,0.579-0.431,0.877
			c-0.123,0.297-0.215,0.6-0.277,0.907c-0.041,0.144-0.072,0.297-0.092,0.461c-0.021,0.164-0.057,0.312-0.108,0.446
			c-0.051,0.133-0.133,0.246-0.246,0.338C19.411,29.22,19.252,29.266,19.047,29.266z"/>
		<path display="inline" fill="#888888" d="M46.326,20.531c0.103,0.042,0.195,0.088,0.277,0.139
			c0.082,0.052,0.154,0.107,0.215,0.169c0.41-0.041,0.82,0.021,1.23,0.185c0.41,0.226,0.625,0.467,0.646,0.723
			c0.02,0.257-0.051,0.528-0.215,0.815c0.451-0.062,0.907-0.164,1.369-0.308s0.917-0.308,1.369-0.492
			c0.451-0.185,0.896-0.369,1.338-0.554c0.44-0.185,0.866-0.338,1.276-0.461c0.226-0.062,0.466-0.123,0.723-0.185
			c0.256-0.062,0.497-0.011,0.723,0.153c0.185,0.144,0.297,0.298,0.338,0.462c0.041,0.164,0.031,0.322-0.031,0.477
			c-0.062,0.153-0.165,0.292-0.308,0.415c-0.144,0.123-0.308,0.195-0.492,0.215c-0.656,0.104-1.302,0.293-1.938,0.569
			c-0.636,0.276-1.261,0.518-1.876,0.723c-0.288,0.103-0.595,0.215-0.923,0.338c-0.328,0.123-0.667,0.226-1.015,0.308
			c-0.349,0.082-0.697,0.128-1.046,0.139c-0.349,0.01-0.676-0.036-0.984-0.139c-0.349-0.164-0.569-0.374-0.662-0.63
			c-0.092-0.256-0.087-0.528,0.016-0.815c-0.41,0.062-0.82,0.154-1.23,0.277c-0.534,0.164-1.061,0.349-1.584,0.554
			c-0.523,0.204-1.051,0.358-1.584,0.461c-0.348,0.062-0.708,0.062-1.076,0c-0.369-0.062-0.646-0.267-0.831-0.615
			c-0.226-0.431-0.241-0.835-0.046-1.215c0.195-0.379,0.492-0.707,0.892-0.984c0.4-0.276,0.836-0.502,1.307-0.677
			c0.471-0.174,0.861-0.281,1.168-0.322c0.513-0.062,1.015-0.066,1.507-0.016C45.373,20.291,45.854,20.389,46.326,20.531z
			 M42.267,22.346c0.205-0.041,0.41-0.092,0.615-0.153c0.205-0.062,0.41-0.133,0.615-0.216
			C43.005,22.038,42.594,22.161,42.267,22.346z"/>
		<path display="inline" fill="#888888" d="M54.845,20.562c0.389,0,0.687,0.144,0.892,0.431c0.205,0.287,0.25,0.543,0.138,0.769
			c-0.113,0.226-0.261,0.451-0.446,0.677c0.369,0,0.748-0.051,1.138-0.154c0.389-0.102,0.774-0.23,1.153-0.384
			c0.379-0.154,0.748-0.312,1.107-0.477c0.358-0.164,0.702-0.298,1.03-0.4c0.246-0.082,0.507-0.133,0.784-0.153
			s0.533,0.011,0.769,0.092c0.236,0.082,0.431,0.205,0.584,0.369s0.251,0.39,0.292,0.677c1.538-0.574,3.086-0.994,4.644-1.261
			c0.143-0.021,0.323-0.051,0.538-0.093c0.215-0.041,0.436-0.077,0.662-0.107c0.225-0.03,0.44-0.035,0.646-0.016
			c0.205,0.021,0.379,0.072,0.523,0.154c0.185,0.123,0.302,0.276,0.354,0.461s0.051,0.364,0,0.538
			c-0.051,0.175-0.154,0.318-0.308,0.431c-0.153,0.113-0.333,0.169-0.538,0.169c-1.107-0.04-2.209,0.052-3.306,0.277
			s-2.168,0.522-3.214,0.892c-0.103,0.369-0.292,0.732-0.569,1.092c-0.277,0.358-0.58,0.697-0.907,1.015
			c-0.328,0.318-0.661,0.61-1,0.877c-0.338,0.266-0.63,0.502-0.876,0.707c-0.246,0.185-0.584,0.44-1.015,0.769
			c-0.43,0.328-0.881,0.626-1.353,0.893c-0.472,0.266-0.949,0.456-1.43,0.568c-0.481,0.113-0.896,0.047-1.246-0.199
			c-0.471-0.328-0.661-0.708-0.569-1.139c0.092-0.43,0.354-0.866,0.784-1.307c0.431-0.441,0.974-0.882,1.63-1.322
			c0.656-0.441,1.307-0.846,1.953-1.215s1.23-0.677,1.753-0.923c0.523-0.246,0.866-0.41,1.03-0.492l0.215-0.092
			c-0.041-0.103-0.292-0.072-0.753,0.092c-0.461,0.165-1.005,0.354-1.63,0.569c-0.626,0.215-1.271,0.404-1.938,0.568
			c-0.667,0.164-1.236,0.205-1.707,0.123c-0.431-0.062-0.738-0.18-0.923-0.354c-0.184-0.174-0.281-0.379-0.292-0.615
			c-0.01-0.235,0.042-0.486,0.154-0.753c0.113-0.267,0.251-0.523,0.415-0.769c-0.041-0.226,0.011-0.441,0.154-0.646
			C54.312,20.696,54.538,20.583,54.845,20.562z M58.167,25.575c0.103-0.103,0.287-0.251,0.554-0.446
			c0.266-0.194,0.492-0.374,0.677-0.538c-0.185,0.103-0.416,0.235-0.692,0.4c-0.277,0.163-0.498,0.297-0.662,0.399
			c-0.123,0.062-0.323,0.174-0.6,0.339c-0.277,0.163-0.574,0.354-0.892,0.568c-0.318,0.216-0.621,0.446-0.907,0.692
			c-0.288,0.246-0.492,0.471-0.615,0.677c0.574-0.165,1.132-0.467,1.676-0.907C57.249,26.318,57.736,25.924,58.167,25.575z"/>
		<path display="inline" fill="#888888" d="M68.961,20.562c0.164,0,0.323,0.025,0.477,0.076c0.154,0.052,0.282,0.139,0.385,0.262
			c0.184,0.226,0.271,0.436,0.261,0.631c-0.011,0.195-0.067,0.384-0.169,0.568c0.533-0.102,1.065-0.225,1.599-0.369
			c0.533-0.143,1.066-0.286,1.599-0.43c0.246-0.062,0.512-0.134,0.8-0.216c0.287-0.082,0.579-0.144,0.876-0.185
			c0.297-0.041,0.594-0.056,0.892-0.046c0.297,0.011,0.569,0.077,0.815,0.2c0.349,0.164,0.554,0.358,0.615,0.584
			s0.041,0.461-0.062,0.707c0.287-0.081,0.574-0.158,0.861-0.23c0.287-0.071,0.574-0.158,0.861-0.262
			c0.554-0.163,1.112-0.333,1.676-0.507c0.563-0.174,1.133-0.344,1.707-0.508c0.266-0.081,0.579-0.169,0.938-0.262
			c0.358-0.092,0.671-0.046,0.938,0.139c0.164,0.123,0.266,0.272,0.308,0.446c0.041,0.174,0.035,0.349-0.016,0.522
			c-0.051,0.175-0.149,0.318-0.292,0.431c-0.144,0.113-0.308,0.169-0.492,0.169c-0.779,0.062-1.568,0.246-2.368,0.554
			s-1.568,0.574-2.307,0.8c-0.226,0.062-0.487,0.144-0.784,0.246c-0.297,0.103-0.6,0.194-0.907,0.276s-0.615,0.134-0.923,0.154
			c-0.307,0.021-0.584-0.021-0.83-0.123c-0.288-0.123-0.487-0.334-0.6-0.631c-0.113-0.297-0.128-0.6-0.046-0.907
			c-0.451,0.042-0.892,0.113-1.322,0.216s-0.861,0.205-1.292,0.308c-0.287,0.082-0.589,0.174-0.907,0.276s-0.636,0.205-0.953,0.308
			c-0.318,0.103-0.636,0.185-0.954,0.246s-0.63,0.082-0.938,0.062c-0.185-0.021-0.369-0.082-0.553-0.185
			c-0.246-0.164-0.39-0.338-0.431-0.522s-0.025-0.369,0.046-0.554c0.072-0.185,0.174-0.369,0.308-0.554
			c0.134-0.185,0.261-0.358,0.384-0.523c-0.082-0.266-0.056-0.527,0.077-0.784C68.372,20.69,68.612,20.562,68.961,20.562z"/>
		<path display="inline" fill="#888888" d="M98.024,22.254c-0.472,0.041-0.938,0.118-1.399,0.23
			c-0.461,0.113-0.928,0.221-1.399,0.323c-1.23,0.287-2.45,0.559-3.66,0.814c-1.21,0.257-2.44,0.446-3.69,0.569
			c-0.328,0.041-0.672,0.071-1.03,0.092c-0.359,0.021-0.718,0.011-1.077-0.03s-0.702-0.118-1.03-0.23
			c-0.328-0.113-0.625-0.282-0.892-0.508c-0.226-0.185-0.405-0.399-0.538-0.646s-0.215-0.503-0.246-0.77
			c-0.031-0.266-0.005-0.527,0.077-0.784c0.082-0.256,0.236-0.486,0.461-0.691c0.143-0.144,0.374-0.262,0.692-0.354
			c0.318-0.093,0.671-0.159,1.061-0.2c0.389-0.041,0.779-0.051,1.169-0.031c0.389,0.021,0.728,0.093,1.015,0.216
			s0.487,0.292,0.6,0.507c0.113,0.216,0.097,0.487-0.046,0.815c-0.123,0.246-0.308,0.421-0.554,0.522
			c-0.246,0.104-0.523,0.17-0.831,0.2c-0.307,0.031-0.625,0.031-0.953,0c-0.328-0.03-0.615-0.066-0.861-0.107
			c0.082,0.082,0.246,0.148,0.492,0.2c0.246,0.051,0.507,0.087,0.784,0.107s0.533,0.03,0.769,0.03c0.235,0,0.384,0,0.446,0
			c1.004-0.081,2.004-0.226,2.999-0.431c0.994-0.204,1.984-0.42,2.968-0.646c0.718-0.164,1.43-0.333,2.138-0.508
			c0.707-0.174,1.419-0.302,2.137-0.384c0.308-0.021,0.564,0.051,0.769,0.215c0.205,0.164,0.338,0.354,0.4,0.569
			c0.062,0.215,0.036,0.415-0.077,0.6S98.373,22.233,98.024,22.254z"/>
		<path display="inline" fill="#888888" d="M139.111,28.266c-0.984,0.402-2.045,0.634-3.183,0.695
			c-1.139,0.06-2.24,0.101-3.307,0.12c-1.948,0.041-3.891,0.011-5.828-0.09c-1.938-0.102-3.88-0.232-5.828-0.394
			c-1.968-0.161-3.921-0.348-5.858-0.559c-1.938-0.212-3.88-0.438-5.828-0.68c-0.226-0.042-0.446-0.083-0.662-0.123
			c-0.215-0.042-0.374-0.175-0.477-0.4c-0.144-0.267-0.149-0.528-0.015-0.784c0.133-0.257,0.343-0.405,0.63-0.445
			c1.968-0.369,3.854-0.923,5.659-1.661c1.046-0.431,2.065-0.923,3.06-1.477c0.994-0.554,1.933-1.188,2.814-1.906
			c0.594-0.492,1.204-1.066,1.829-1.723c0.626-0.656,1.174-1.363,1.646-2.122c0.472-0.758,0.81-1.553,1.016-2.383
			c0.204-0.831,0.185-1.666-0.062-2.506c-0.227-0.718-0.59-1.281-1.092-1.691c-0.503-0.41-1.092-0.718-1.769-0.923
			c-0.677-0.205-1.405-0.312-2.184-0.323c-0.779-0.01-1.554,0.026-2.322,0.107c-0.769,0.082-1.502,0.2-2.199,0.354
			c-0.697,0.154-1.302,0.292-1.814,0.416c-0.062,0-0.113,0.01-0.154,0.031h0.031c-1.743,0.492-3.409,1.153-4.998,1.983
			c-1.589,0.831-3.02,1.892-4.291,3.183c-0.861,0.882-1.615,1.841-2.26,2.876c-0.646,1.035-1.113,2.158-1.399,3.367
			c-0.042,0.185-0.067,0.461-0.077,0.83s-0.046,0.729-0.107,1.077s-0.174,0.635-0.338,0.86s-0.431,0.287-0.8,0.185
			c-0.349-0.103-0.564-0.349-0.646-0.737c-0.082-0.39-0.092-0.815-0.031-1.276c0.062-0.462,0.159-0.918,0.292-1.369
			c0.133-0.45,0.241-0.789,0.323-1.015c0.533-1.6,1.307-3.045,2.322-4.336c1.015-1.292,2.178-2.43,3.491-3.414
			c1.312-0.984,2.732-1.819,4.259-2.507c1.527-0.687,3.07-1.225,4.628-1.614c0.758-0.185,1.615-0.338,2.568-0.461
			c0.953-0.123,1.911-0.174,2.875-0.154c0.964,0.021,1.907,0.133,2.83,0.338s1.737,0.538,2.444,1
			c0.708,0.461,1.271,1.066,1.692,1.814c0.42,0.749,0.619,1.676,0.6,2.783c-0.021,0.964-0.211,1.881-0.569,2.752
			c-0.359,0.872-0.825,1.697-1.399,2.476s-1.22,1.502-1.938,2.168s-1.445,1.256-2.184,1.769c-1.128,0.82-2.307,1.532-3.537,2.138
			c-1.229,0.604-2.501,1.132-3.813,1.583c2.583,0.308,5.151,0.569,7.704,0.784c2.553,0.216,5.121,0.374,7.704,0.478
			c1.518,0.04,3.065,0.07,4.645,0.091c1.578,0.02,3.105-0.164,4.582-0.553c0.103-0.041,0.215-0.082,0.338-0.123
			s0.235-0.072,0.339-0.092c0.246-0.042,0.471,0,0.677,0.123c0.204,0.123,0.348,0.271,0.431,0.444
			c0.081,0.173,0.092,0.355,0.03,0.547S139.378,28.145,139.111,28.266z M104.667,29.266c-0.431,0-0.688-0.139-0.769-0.415
			c-0.082-0.276-0.057-0.626,0.077-1.046c0.133-0.42,0.343-0.882,0.63-1.384c0.287-0.503,0.579-0.979,0.876-1.43
			c0.297-0.451,0.574-0.841,0.83-1.169s0.425-0.543,0.508-0.646c1.988-2.357,4.192-4.501,6.612-6.428
			c0.205-0.164,0.44-0.354,0.707-0.569c0.266-0.215,0.543-0.271,0.831-0.169c0.164,0.062,0.297,0.154,0.4,0.277
			c0.102,0.123,0.164,0.261,0.185,0.415c0.021,0.154,0.005,0.308-0.046,0.462c-0.052,0.153-0.149,0.282-0.292,0.384
			c-0.82,0.596-1.615,1.241-2.384,1.938c-0.769,0.697-1.512,1.404-2.229,2.122c-0.697,0.696-1.369,1.409-2.015,2.137
			c-0.646,0.728-1.246,1.492-1.799,2.291c-0.205,0.287-0.395,0.574-0.569,0.861c-0.175,0.287-0.333,0.585-0.477,0.893
			c-0.062,0.143-0.107,0.297-0.138,0.461s-0.082,0.323-0.154,0.477c-0.072,0.154-0.169,0.281-0.292,0.385
			C105.036,29.215,104.871,29.266,104.667,29.266z"/>
		<path display="inline" fill="#888888" d="M132.16,24.253c-0.287,0-0.528-0.103-0.723-0.308c-0.195-0.205-0.312-0.426-0.354-0.661
			s-0.006-0.451,0.107-0.646c0.112-0.195,0.343-0.293,0.692-0.293c0.286,0,0.527,0.098,0.723,0.293
			c0.194,0.194,0.312,0.415,0.354,0.661s0,0.466-0.123,0.661C132.714,24.155,132.488,24.253,132.16,24.253z"/>
	</g>
	<text transform="matrix(1 0 0 1 20.5 16.6665)" display="none" font-family="'AutografPERSONALUSEONLY'" font-size="12">Maddy Anderson</text>
</g>
<g id="Layer_2">
	<text transform="matrix(1 0 0 1 23.1665 -71.0005)" font-family="'SignericaFat'" font-size="12">Payne</text>
	<path fill="none" stroke="#888888" stroke-width="1.5" stroke-miterlimit="10" d="M0,6.315c0,0,33.095-9.669,39.757,1.505
		S13.539,23.938,0,18.136"/>
	<path fill="none" stroke="#888888" stroke-width="1.5" stroke-miterlimit="10" d="M25.891,10.89c0,0-15.36,8.749-18.369,22.503"/>
	<path fill="none" stroke="#888888" stroke-width="1.5" stroke-miterlimit="10" d="M45.459,19.705c0,0-8.404-1.904-7.611,2.883
		c0.792,4.787,6.636-3.163,9.645-3.379c3.009-0.215-3.009,3.869,0,3.439s7.588-6.104,10.241-3.59
		c2.653,2.514-6.019,6.342,3.152,1.527c9.171-4.815,8.193-0.637,5.889,2.002c-2.305,2.639-22.291,15.318-8.752,6.293
		c13.539-9.027,17.971-9.922,17.971-9.922s1.799,0.896,0.081,3.045S75,23.723,80.588,20.498c5.587-3.223,7.721-2.494,6.332,0.365
		c-1.389,2.859,0.331,4.578,4.844,0.281c4.513-4.298,2.793-6.019,0.429-3.869c-2.363,2.149-5.587,9.455,2.364,6.232"/>
	<path fill="none" stroke="#888888" stroke-width="1.5" stroke-miterlimit="10" d="M97.668,8.157c0,0,21.92-8.22,27.4-0.322
		c5.479,7.898-8.221,14.829-19.664,10.96c0,0-2.095-0.322-1.612,1.451c0.484,1.773,12.411,12.895,32.879,0.967"/>
	<path fill="none" stroke="#888888" stroke-width="1.5" stroke-miterlimit="10" d="M107.5,12.348c0,0-6.608,8.221-6.77,10.799"/>
</g>
</svg>
