<?xml version="1.0" encoding="utf-8"?>
<!-- Generator: Adobe Illustrator 15.0.0, SVG Export Plug-In . SVG Version: 6.00 Build 0)  -->
<!DOCTYPE svg PUBLIC "-//W3C//DTD SVG 1.1//EN" "http://www.w3.org/Graphics/SVG/1.1/DTD/svg11.dtd">
<svg version="1.1" id="Layer_1" xmlns="http://www.w3.org/2000/svg" xmlns:xlink="http://www.w3.org/1999/xlink" x="0px" y="0px"
	 width="230px" height="35px" viewBox="0 0 230 35" enable-background="new 0 0 230 35" xml:space="preserve">
<g id="Layer_3">
	<g>
		<path fill="none" stroke="#888888" stroke-width="1.5" stroke-miterlimit="10" d="M25.422,3.877c0,0,23.549-1.611,21.247,2.239
			c-2.302,3.85-32.365,32.901-42.898,24.825c-6.766-5.188-0.046-12.465,12.833-11.082c12.878,1.383,23.117,3.772,30.74,2.127
			c7.623-1.646,9.878-5.479,3.338-4.354c-6.541,1.127-4.06,7.217,4.736,4.512s4.962-3.607,4.962-3.607s5.412,2.256,2.029,4.285
			c-3.383,2.029,4.51-3.836,6.766-3.609c2.256,0.227,5.696,3.166,1.382,3.613s-1.157-4.062,5.609-4.289s3.431,1.957,3.431,1.957
			s3.335-3.084,6.492-1.957c3.158,1.127,3.157,3.455,3.157,3.455"/>
		<path fill="none" stroke="#888888" stroke-width="1.5" stroke-miterlimit="10" d="M98.493,1.397c0,0-9.504,24.803-13.493,26.353
			c-1.54,0.6-2.313-0.625-2.313-0.625S84.5,17.75,122.5,13.5"/>
	</g>
	<line fill="none" stroke="#888888" stroke-width="1.5" stroke-miterlimit="10" x1="105" y1="9.458" x2="98.625" y2="24.209"/>
	
		<ellipse fill="none" stroke="#888888" stroke-width="1.5" stroke-miterlimit="10" cx="102.375" cy="24.963" rx="0.451" ry="0.283"/>
</g>
</svg>
