<?xml version="1.0" encoding="utf-8"?>
<!-- Generator: Adobe Illustrator 15.0.0, SVG Export Plug-In . SVG Version: 6.00 Build 0)  -->
<!DOCTYPE svg PUBLIC "-//W3C//DTD SVG 1.1//EN" "http://www.w3.org/Graphics/SVG/1.1/DTD/svg11.dtd">
<svg version="1.1" id="Layer_1" xmlns="http://www.w3.org/2000/svg" xmlns:xlink="http://www.w3.org/1999/xlink" x="0px" y="0px"
	 width="230px" height="35px" viewBox="0 0 230 35" enable-background="new 0 0 230 35" xml:space="preserve">
<g id="Layer_1_1_">
	<path fill="none" stroke="#888888" stroke-width="1.5" stroke-miterlimit="10" d="M1,29.753c0,0,29.941-30.308,33.594-26.291
		c3.651,4.017-17.528,28.481-8.033,19.72c9.494-8.765,26.29-24.467,23.369-16.066c-2.921,8.397-23.735,25.925-8.764,19.718
		c14.971-6.208,19.718-8.216,21.179-6.024c1.461,2.19-4.747,5.11-5.295,3.104c-0.548-2.008,4.808-4.018,6.269-3.771
		c1.46,0.242-0.974,4.504,1.217,3.164s5.939-1.541,7.886-1.785"/>
	<path fill="none" stroke="#888888" stroke-width="1.5" stroke-miterlimit="10" d="M72.325,22.391"/>
	<path fill="none" stroke="#888888" stroke-width="1.5" stroke-miterlimit="10" d="M84.984,21.598l6.276-0.031
		c0,0,0.914,0.184,0.365,0.914c-0.547,0.729-2.868,3.494,0.091,2.373c4.45-1.687,5.154-4.381,3.875-3.013
		c-1.278,1.369-12.118,10.89-9.292,10.651c123.335-10.254,19.197-12.654,13.875-9.86"/>
	<path fill="none" stroke="#888888" stroke-width="1.5" stroke-miterlimit="10" d="M76.403,21.376c0,0-2.011-0.123-4.025,0.138
		c-2.69,0.344-5.387,1.202-3.314,2.301c3.626,1.922,7.033-1.973,8.738-3.434c1.705-1.46,8.885-10.711,8.885-10.711"/>
	<path fill="none" stroke="#888888" stroke-width="1.5" stroke-miterlimit="10" d="M85.349,21.376c0,0-2.011-0.123-4.026,0.138
		c-2.69,0.344-5.387,1.202-3.313,2.301c3.626,1.922,7.034-1.973,8.738-3.434c1.704-1.46,8.885-10.711,8.885-10.711"/>
	<path fill="none" stroke="#888888" stroke-width="1.5" stroke-miterlimit="10" d="M72.386,24.117c0,0,5.173-2.034,8.034-2.399"/>
	<path fill="none" stroke="#888888" stroke-width="1.5" stroke-miterlimit="10" d="M133.883,16.75"/>
	<path fill="none" stroke="#888888" stroke-width="1.5" stroke-miterlimit="10" d="M100.962,26.467c0,0,24.054-31.038,25.759-20.327
		c1.703,10.712-0.488,23.125-0.488,23.125"/>
	
		<ellipse fill="none" stroke="#888888" stroke-width="1.5" stroke-miterlimit="10" cx="135.834" cy="19.386" rx="0.286" ry="0.114"/>
</g>
</svg>
