<?xml version="1.0" encoding="utf-8"?>
<!-- Generator: Adobe Illustrator 15.0.0, SVG Export Plug-In . SVG Version: 6.00 Build 0)  -->
<!DOCTYPE svg PUBLIC "-//W3C//DTD SVG 1.1//EN" "http://www.w3.org/Graphics/SVG/1.1/DTD/svg11.dtd">
<svg version="1.1" id="Layer_1" xmlns="http://www.w3.org/2000/svg" xmlns:xlink="http://www.w3.org/1999/xlink" x="0px" y="0px"
	 width="230px" height="35px" viewBox="0 0 230 35" enable-background="new 0 0 230 35" xml:space="preserve">
<g id="Layer_2">
	<path fill="none" stroke="#888888" stroke-width="1.5" stroke-miterlimit="10" d="M0,6.315c0,0,33.095-9.669,39.757,1.505
		C46.419,18.994,13.539,23.938,0,18.136"/>
	<path fill="none" stroke="#888888" stroke-width="1.5" stroke-miterlimit="10" d="M25.891,10.89c0,0-15.36,8.749-18.369,22.502"/>
	<path fill="none" stroke="#888888" stroke-width="1.5" stroke-miterlimit="10" d="M45.459,19.705c0,0-8.404-1.904-7.611,2.883
		c0.792,4.787,6.636-3.163,9.645-3.379c3.009-0.215-3.009,3.869,0,3.439c3.009-0.431,7.588-6.104,10.241-3.59
		c2.653,2.514-6.019,6.342,3.152,1.526c9.171-4.815,8.193-0.637,5.889,2.002c-2.305,2.64-22.291,15.317-8.752,6.293
		c13.539-9.026,17.971-9.922,17.971-9.922s1.799,0.896,0.081,3.045c-1.718,2.149-1.075,1.72,4.513-1.505
		c5.587-3.223,7.721-2.494,6.332,0.365s0.331,4.578,4.844,0.281c4.513-4.298,2.793-6.02,0.429-3.87
		c-2.363,2.149-5.587,9.456,2.364,6.232"/>
	<path fill="none" stroke="#888888" stroke-width="1.5" stroke-miterlimit="10" d="M97.668,8.157c0,0,21.92-8.22,27.4-0.322
		c5.479,7.898-8.221,14.829-19.665,10.96c0,0-2.095-0.322-1.612,1.451c0.484,1.773,2.708,4.004,23.458,6.004"/>
	<path fill="none" stroke="#888888" stroke-width="1.5" stroke-miterlimit="10" d="M107.5,12.348c0,0-6.608,8.22-6.77,10.798"/>
	<ellipse fill="none" stroke="#888888" stroke-width="1.5" stroke-miterlimit="10" cx="126.25" cy="21.459" rx="0.436" ry="0.209"/>
</g>
</svg>
