<?xml version="1.0" encoding="utf-8"?>
<!-- Generator: Adobe Illustrator 15.0.0, SVG Export Plug-In . SVG Version: 6.00 Build 0)  -->
<!DOCTYPE svg PUBLIC "-//W3C//DTD SVG 1.1//EN" "http://www.w3.org/Graphics/SVG/1.1/DTD/svg11.dtd">
<svg version="1.1" id="Layer_1" xmlns="http://www.w3.org/2000/svg" xmlns:xlink="http://www.w3.org/1999/xlink" x="0px" y="0px"
	 width="240px" height="80px" viewBox="0 0 240 80" enable-background="new 0 0 240 80" xml:space="preserve">
<g id="guides" display="none">
</g>
<path fill="#555555" d="M59.611,57.678l-4.281-0.011c-1.931,0-3.496-1.565-3.496-3.496V28.163c0-1.931,1.565-3.496,3.496-3.496
	h26.008c1.931,0,3.496,1.565,3.496,3.496v26.008c0,1.931-1.565,3.496-3.496,3.496l-3.395,0.011c0.047-0.052,0.094-0.134,0.141-0.187
	c1.547-1.767,2.554-4.112,3.017-7.037h-5.883c-0.277,1.929-0.975,3.426-2.092,4.49c-1.118,1.067-2.538,1.601-4.257,1.601
	c-1.275,0-2.359-0.265-3.253-0.8c-0.895-0.534-1.626-1.229-2.193-2.09c-0.567-0.859-0.981-1.84-1.239-2.942
	c-0.258-1.101-0.386-2.201-0.386-3.304c0-2.029,0.239-3.672,0.722-4.93c0.481-1.256,1.084-2.237,1.807-2.942
	c0.722-0.704,1.514-1.188,2.375-1.445c0.859-0.258,1.668-0.387,2.426-0.387c1.651,0,3.018,0.422,4.102,1.265
	c1.086,0.845,1.748,2.09,1.989,3.743h5.883c-0.137-1.653-0.55-3.08-1.239-4.285c-0.689-1.203-1.573-2.201-2.657-2.992
	c-1.084-0.793-2.323-1.387-3.718-1.781c-1.392-0.396-2.865-0.595-4.413-0.595c-2.203,0-4.121,0.37-5.755,1.11
	c-1.636,0.74-3.003,1.754-4.104,3.046c-1.103,1.29-1.928,2.812-2.479,4.566c-0.55,1.756-0.825,3.631-0.825,5.627
	c0,1.961,0.284,3.786,0.853,5.471c0.567,1.687,1.401,3.143,2.504,4.362L59.611,57.678z"/>
<g>
	<path fill="#555555" d="M95.295,29.131c1.184-1.21,2.69-1.815,4.519-1.815c2.447,0,4.236,0.812,5.368,2.434
		c0.625,0.911,0.96,1.825,1.006,2.743h-3.072c-0.195-0.705-0.447-1.236-0.752-1.596c-0.547-0.638-1.358-0.958-2.433-0.958
		c-1.095,0-1.958,0.45-2.589,1.352c-0.632,0.901-0.948,2.176-0.948,3.825s0.334,2.884,1,3.706c0.667,0.821,1.514,1.232,2.542,1.232
		c1.053,0,1.857-0.353,2.409-1.058c0.306-0.379,0.56-0.947,0.762-1.706h3.051c-0.263,1.603-0.936,2.906-2.018,3.909
		c-1.082,1.005-2.468,1.507-4.159,1.507c-2.092,0-3.736-0.679-4.933-2.035c-1.198-1.363-1.796-3.231-1.796-5.605
		C93.252,32.499,93.933,30.521,95.295,29.131z"/>
	<path fill="#555555" d="M122.003,40.989c-1.109,1.144-2.715,1.716-4.816,1.716c-2.101,0-3.707-0.572-4.817-1.716
		c-1.489-1.403-2.234-3.424-2.234-6.063c0-2.693,0.745-4.714,2.234-6.064c1.11-1.144,2.717-1.715,4.817-1.715
		c2.102,0,3.707,0.572,4.816,1.715c1.482,1.35,2.225,3.371,2.225,6.064C124.228,37.565,123.485,39.586,122.003,40.989z
		 M120.084,38.755c0.714-0.897,1.072-2.174,1.072-3.829c0-1.649-0.357-2.924-1.072-3.825c-0.715-0.901-1.681-1.352-2.898-1.352
		c-1.216,0-2.187,0.449-2.912,1.347c-0.725,0.897-1.087,2.174-1.087,3.83c0,1.655,0.363,2.932,1.087,3.829
		c0.725,0.898,1.696,1.347,2.912,1.347C118.404,40.102,119.37,39.653,120.084,38.755z"/>
	<path fill="#555555" d="M137.229,27.914c1.031,0.339,1.867,0.961,2.505,1.865c0.513,0.731,0.862,1.522,1.049,2.373
		c0.187,0.852,0.28,1.663,0.28,2.434c0,1.955-0.395,3.61-1.179,4.967c-1.064,1.829-2.709,2.743-4.932,2.743h-6.339V27.595h6.339
		C135.864,27.608,136.623,27.714,137.229,27.914z M131.597,30.148v9.594h2.837c1.451,0,2.463-0.714,3.037-2.144
		c0.312-0.784,0.469-1.719,0.469-2.803c0-1.496-0.234-2.645-0.705-3.446c-0.468-0.801-1.402-1.201-2.801-1.201H131.597z"/>
	<path fill="#555555" d="M156.28,30.198h-7.779v3.122h7.141v2.554h-7.141v3.78h8.138v2.643h-11.141V27.595h10.782V30.198z"/>
	<path fill="#555555" d="M170.496,27.974c0.542,0.232,1,0.575,1.376,1.027c0.311,0.373,0.559,0.785,0.738,1.237
		c0.183,0.452,0.274,0.967,0.274,1.546c0,0.698-0.179,1.385-0.53,2.06c-0.353,0.675-0.935,1.152-1.745,1.431
		c0.679,0.273,1.159,0.66,1.44,1.162c0.284,0.502,0.425,1.269,0.425,2.299v0.988c0,0.671,0.027,1.127,0.082,1.366
		c0.08,0.38,0.27,0.659,0.566,0.838v0.369h-3.392c-0.092-0.326-0.158-0.588-0.198-0.788c-0.08-0.411-0.124-0.834-0.13-1.267
		l-0.021-1.366c-0.012-0.938-0.174-1.562-0.485-1.875c-0.312-0.312-0.895-0.469-1.751-0.469h-2.999v5.765h-3.003V27.595h7.032
		C169.182,27.615,169.955,27.741,170.496,27.974z M164.147,30.148v3.949h3.305c0.656,0,1.148-0.08,1.479-0.239
		c0.581-0.279,0.871-0.831,0.871-1.656c0-0.891-0.28-1.489-0.843-1.795c-0.316-0.173-0.79-0.259-1.421-0.259H164.147z"/>
	<path fill="#555555" d="M180.083,37.758c0.095,0.672,0.28,1.174,0.559,1.506c0.51,0.605,1.383,0.908,2.619,0.908
		c0.738,0,1.341-0.08,1.801-0.239c0.876-0.306,1.314-0.875,1.314-1.705c0-0.486-0.214-0.861-0.645-1.127
		c-0.428-0.259-1.108-0.489-2.041-0.688l-1.591-0.349c-1.564-0.346-2.639-0.721-3.225-1.127c-0.99-0.678-1.484-1.739-1.484-3.182
		c0-1.316,0.483-2.411,1.452-3.281c0.971-0.872,2.393-1.307,4.271-1.307c1.569,0,2.905,0.411,4.014,1.231
		c1.106,0.821,1.687,2.013,1.741,3.576h-2.951c-0.057-0.884-0.45-1.512-1.187-1.885c-0.49-0.246-1.101-0.369-1.831-0.369
		c-0.811,0-1.459,0.159-1.942,0.479c-0.484,0.319-0.727,0.765-0.727,1.336c0,0.525,0.24,0.918,0.716,1.177
		c0.307,0.173,0.959,0.375,1.953,0.608l2.581,0.609c1.131,0.266,1.977,0.622,2.543,1.067c0.876,0.692,1.314,1.692,1.314,3.002
		c0,1.343-0.521,2.459-1.559,3.347c-1.038,0.887-2.505,1.331-4.399,1.331c-1.938,0-3.458-0.437-4.568-1.312
		c-1.108-0.874-1.662-2.076-1.662-3.605H180.083z"/>
</g>
<g>
	<path fill="#555555" d="M94.137,46.897h1.709l2.532,7.445l2.514-7.445h1.697v8.806h-1.139v-5.197c0-0.18,0.004-0.478,0.012-0.893
		c0.008-0.416,0.012-0.861,0.012-1.337l-2.514,7.427h-1.182l-2.538-7.427v0.27c0,0.216,0.006,0.545,0.018,0.986
		c0.012,0.441,0.018,0.767,0.018,0.974v5.197h-1.139V46.897z"/>
	<path fill="#555555" d="M111.626,46.897h1.347l3.196,8.806h-1.307l-0.919-2.638h-3.455l-0.955,2.638h-1.223L111.626,46.897z
		 M113.604,52.095l-1.355-3.891l-1.409,3.891H113.604z"/>
	<path fill="#555555" d="M127.771,47.149c0.862,0.46,1.391,1.265,1.584,2.416h-1.182c-0.141-0.644-0.433-1.112-0.875-1.406
		c-0.441-0.293-0.999-0.44-1.672-0.44c-0.799,0-1.471,0.306-2.017,0.917s-0.819,1.522-0.819,2.733c0,1.047,0.226,1.899,0.676,2.557
		s1.185,0.986,2.203,0.986c0.779,0,1.424-0.231,1.936-0.692c0.511-0.462,0.772-1.208,0.784-2.239h-2.757v-0.989h3.866v4.712h-0.768
		l-0.287-1.133c-0.398,0.443-0.75,0.751-1.056,0.923c-0.516,0.296-1.17,0.443-1.964,0.443c-1.026,0-1.908-0.337-2.647-1.013
		c-0.806-0.848-1.209-2.01-1.209-3.488c0-1.475,0.394-2.647,1.183-3.519c0.748-0.831,1.717-1.247,2.905-1.247
		C126.472,46.67,127.177,46.83,127.771,47.149z"/>
	<path fill="#555555" d="M138.692,46.897h1.347l3.196,8.806h-1.307l-0.919-2.638h-3.455l-0.955,2.638h-1.223L138.692,46.897z
		 M140.671,52.095l-1.355-3.891l-1.409,3.891H140.671z"/>
	<path fill="#555555" d="M148.323,54.714l5.415-6.768h-5.02v-1.049h6.558v1.025l-5.446,6.731h5.446v1.049h-6.953V54.714z"/>
	<path fill="#555555" d="M161.409,46.897h1.205v8.806h-1.205V46.897z"/>
	<path fill="#555555" d="M169.216,46.897h1.405l4.391,7.114v-7.114h1.139v8.806h-1.339l-4.457-7.106v7.106h-1.139V46.897z"/>
	<path fill="#555555" d="M182.859,46.897h6.39v1.079h-5.227v2.674h4.831v1.019h-4.831v2.985h5.316v1.049h-6.479V46.897z"/>
</g>
</svg>
