<?xml version="1.0" encoding="utf-8"?>
<!-- Generator: Adobe Illustrator 15.0.0, SVG Export Plug-In . SVG Version: 6.00 Build 0)  -->
<!DOCTYPE svg PUBLIC "-//W3C//DTD SVG 1.1//EN" "http://www.w3.org/Graphics/SVG/1.1/DTD/svg11.dtd">
<svg version="1.1" id="Layer_1" xmlns="http://www.w3.org/2000/svg" xmlns:xlink="http://www.w3.org/1999/xlink" x="0px" y="0px"
	 width="240px" height="80px" viewBox="0 0 240 80" enable-background="new 0 0 240 80" xml:space="preserve">
<g id="guides" display="none">
</g>
<g>
	<g>
		<path fill="#555555" d="M91.279,38.186h-3.713V23.764h-4.755v-3.09h13.224v3.09H91.28L91.279,38.186L91.279,38.186z"/>
		<path fill="#555555" d="M108.815,38.186H98.73V20.674h10.085v3.042h-6.373v3.846h5.929v3.042h-5.929v4.516h6.373V38.186z"/>
		<path fill="#555555" d="M119.905,23.513c-1.396,0-2.479,0.525-3.245,1.575c-0.768,1.05-1.15,2.514-1.15,4.39
			c0,3.905,1.465,5.857,4.396,5.857c1.229,0,2.721-0.308,4.469-0.923v3.113c-1.438,0.601-3.042,0.898-4.814,0.898
			c-2.548,0-4.497-0.771-5.846-2.316c-1.351-1.545-2.024-3.764-2.024-6.654c0-1.82,0.332-3.415,0.994-4.785
			c0.664-1.369,1.615-2.419,2.857-3.149c1.242-0.731,2.696-1.097,4.366-1.097c1.701,0,3.408,0.412,5.127,1.234l-1.198,3.019
			c-0.653-0.312-1.313-0.583-1.978-0.815S120.546,23.513,119.905,23.513z"/>
		<path fill="#555555" d="M142.449,38.186h-3.701v-7.559h-6.938v7.559h-3.713V20.674h3.713v6.863h6.938v-6.863h3.701V38.186z"/>
		<path fill="#555555" d="M152.318,27.885l3.652-7.211h4.002l-5.812,10.696v6.815h-3.688V31.49l-5.81-10.816h4.024L152.318,27.885z"
			/>
	</g>
</g>
<g>
	<g>
		<path fill="#555555" d="M94.016,57.811l-1.27-4.168h-6.384l-1.27,4.168h-4l6.181-17.583h4.54l6.205,17.583H94.016z M91.86,50.527
			c-1.174-3.776-1.834-5.912-1.982-6.407c-0.147-0.495-0.253-0.888-0.317-1.175c-0.263,1.021-1.018,3.55-2.264,7.582H91.86z"/>
		<path fill="#555555" d="M117.277,57.811h-4.229l-2.372-9.199c-0.088-0.325-0.238-1.004-0.449-2.028s-0.332-1.715-0.365-2.065
			c-0.047,0.433-0.166,1.125-0.358,2.078c-0.19,0.954-0.339,1.637-0.442,2.043l-2.36,9.176h-4.216L98.016,40.3h3.653l2.24,9.56
			c0.391,1.766,0.675,3.293,0.851,4.586c0.048-0.453,0.158-1.157,0.33-2.111c0.171-0.954,0.333-1.693,0.485-2.225l2.551-9.81h3.51
			l2.552,9.81c0.111,0.439,0.25,1.111,0.418,2.015s0.295,1.677,0.383,2.321c0.08-0.62,0.209-1.397,0.384-2.327
			c0.176-0.933,0.335-1.685,0.479-2.259l2.227-9.56h3.653L117.277,57.811z"/>
		<path fill="#555555" d="M134.657,57.811l-1.271-4.168h-6.385l-1.271,4.168h-4l6.183-17.583h4.54l6.204,17.583H134.657z
			 M132.501,50.527c-1.174-3.776-1.834-5.912-1.981-6.407c-0.146-0.495-0.252-0.888-0.315-1.175
			c-0.265,1.021-1.019,3.55-2.265,7.582H132.501z"/>
		<path fill="#555555" d="M144.575,51.091v6.72h-3.714V40.299h5.104c2.381,0,4.141,0.434,5.282,1.301
			c1.144,0.865,1.713,2.183,1.713,3.945c0,1.03-0.283,1.946-0.853,2.749c-0.566,0.804-1.369,1.433-2.405,1.888
			c2.635,3.938,4.353,6.479,5.149,7.629h-4.121l-4.181-6.72H144.575z M144.575,48.072h1.196c1.174,0,2.041-0.195,2.601-0.588
			c0.56-0.392,0.839-1.006,0.839-1.844c0-0.83-0.286-1.423-0.855-1.772c-0.57-0.353-1.455-0.527-2.652-0.527h-1.126L144.575,48.072
			L144.575,48.072z"/>
		<path fill="#555555" d="M171.586,48.887c0,2.883-0.82,5.092-2.462,6.624c-1.642,1.533-4.011,2.3-7.106,2.3h-4.959V40.299h5.496
			c2.858,0,5.079,0.756,6.659,2.264C170.796,44.07,171.586,46.18,171.586,48.887z M167.729,48.982c0-3.762-1.662-5.644-4.982-5.644
			h-1.979v11.403h1.594C165.939,54.744,167.729,52.824,167.729,48.982z"/>
		<path fill="#555555" d="M185.552,52.947c0,1.58-0.567,2.826-1.706,3.736c-1.138,0.909-2.722,1.364-4.748,1.364
			c-1.869,0-3.521-0.351-4.959-1.054v-3.45c1.182,0.526,2.182,0.897,3,1.114c0.817,0.216,1.565,0.322,2.245,0.322
			c0.814,0,1.439-0.154,1.875-0.467c0.437-0.312,0.652-0.773,0.652-1.391c0-0.344-0.097-0.648-0.287-0.916s-0.476-0.525-0.847-0.771
			c-0.37-0.248-1.127-0.644-2.271-1.188c-1.069-0.503-1.873-0.984-2.407-1.449c-0.535-0.463-0.961-1.002-1.281-1.615
			c-0.317-0.615-0.479-1.334-0.479-2.156c0-1.551,0.523-2.769,1.575-3.652c1.05-0.887,2.501-1.33,4.354-1.33
			c0.91,0,1.777,0.108,2.604,0.323c0.827,0.216,1.689,0.521,2.593,0.909l-1.196,2.889c-0.935-0.384-1.707-0.65-2.317-0.803
			s-1.211-0.229-1.804-0.229c-0.701,0-1.24,0.163-1.615,0.491c-0.377,0.327-0.562,0.754-0.562,1.281
			c0,0.326,0.075,0.613,0.229,0.854c0.15,0.244,0.393,0.479,0.725,0.707c0.33,0.229,1.115,0.638,2.354,1.229
			c1.639,0.781,2.761,1.566,3.365,2.354C185.249,50.842,185.552,51.807,185.552,52.947z"/>
	</g>
</g>
<path fill="#555555" d="M76.167,58h-23V20.5h23l0.003,2.253l-17.42,2.5v1.648h17.42v1.918l-17.42,2.5v1.648h17.42v2.024l-17.42,2.5
	v1.647h17.42v1.918l-17.42,2.5v1.646h17.42L76.167,58z"/>
</svg>
