<?xml version="1.0" encoding="utf-8"?>
<!-- Generator: Adobe Illustrator 15.0.0, SVG Export Plug-In . SVG Version: 6.00 Build 0)  -->
<!DOCTYPE svg PUBLIC "-//W3C//DTD SVG 1.1//EN" "http://www.w3.org/Graphics/SVG/1.1/DTD/svg11.dtd">
<svg version="1.1" id="Layer_1" xmlns="http://www.w3.org/2000/svg" xmlns:xlink="http://www.w3.org/1999/xlink" x="0px" y="0px"
	 width="240px" height="80px" viewBox="0 0 240 80" enable-background="new 0 0 240 80" xml:space="preserve">
<g id="guides" display="none">
</g>
<g display="none">
	<path display="inline" d="M102.209,18.24l-3.997-3.997l10.352-10.417l6.291,6.29l6.289-6.29l6.224,6.29l6.287-6.29l10.419,10.417
		l-3.996,3.997v24.438l-13.104,13.035l-6.29-6.223l-6.224,6.223l-12.251-12.316V18.24z M102.865,13.916l5.371-5.373V5.529
		l-8.123,8.124h2.752V13.916z M105.288,42.151V17.453l-2.161,0.983V42.48l1.965-0.787L105.288,42.151z M113.346,14.243l-4.781-4.718
		l-4.651,4.718l2.292,2.293V41.76l8.254,8.254l3.997-3.996l-7.469-7.468V16.536L113.346,14.243z M109.155,8.739l4.848,4.849h0.261
		v-2.685l-5.109-5.176V8.739z M112.233,38.483l4.914,4.848l-2.228-5.306l-0.525-0.458L112.233,38.483z M115.248,13.587h0.524
		l4.978-5.044v-2.95l-5.502,5.504V13.587z M115.64,37.5l2.163,4.98V17.518l-2.163,1.114V37.5z M120.685,43.791l6.29,6.223
		l4.063-3.996l-7.536-7.468V16.536l2.358-2.293l-4.716-4.718l-4.719,4.718l2.294,2.293v29.22L120.685,43.791z M121.667,5.66v2.883
		h-0.131l5.045,5.109h0.327v-2.685L121.667,5.66z M124.746,38.417l4.718,4.782l-1.966-5.043l-0.59-0.589L124.746,38.417z
		 M133.067,8.805V5.726l-5.242,5.241v2.62l0.328,0.065L133.067,8.805z M128.153,37.304l2.162,5.374V18.042l-2.162,0.59V37.304z
		 M136.016,41.039V16.536l2.359-2.293l-4.72-4.718l-4.716,4.718l2.293,2.293v29.22L136.016,41.039z M133.984,5.462v3.015
		l5.109,5.175h3.08L133.984,5.462z"/>
</g>
<text transform="matrix(1 0 0 1 69.7842 76.6943)" display="none" font-family="'BebasNeue'" font-size="24.1639">Wicked</text>
<text transform="matrix(1 0 0 1 127.7188 76.6943)" display="none" font-family="'BebasNeue'" font-size="24.1639">WEAR</text>
<g>
	<g>
		<path fill="#555555" d="M117.598,34.649l-2.886-2.886l7.477-7.524l4.543,4.543l4.542-4.543l4.495,4.543l4.541-4.543l7.524,7.524
			l-2.886,2.886v17.65l-9.464,9.415l-4.543-4.495l-4.495,4.495l-8.848-8.896V34.649z M118.072,31.526l3.879-3.88v-2.177
			l-5.867,5.867h1.987V31.526z M119.822,51.919V34.081l-1.561,0.71v17.365l1.419-0.568L119.822,51.919z M125.642,31.763
			l-3.453-3.408l-3.359,3.408l1.656,1.656v18.217l5.961,5.962l2.887-2.887l-5.395-5.394V33.418L125.642,31.763z M122.614,27.787
			l3.502,3.502h0.188V29.35l-3.69-3.738V27.787z M124.838,49.27l3.549,3.501l-1.608-3.832l-0.379-0.331L124.838,49.27z
			 M127.015,31.289h0.379l3.596-3.643v-2.13l-3.975,3.975V31.289z M127.298,48.56l1.562,3.597V34.127l-1.562,0.805V48.56z
			 M130.941,53.103l4.543,4.495l2.935-2.887l-5.442-5.394V33.418l1.703-1.656l-3.406-3.408l-3.407,3.408l1.656,1.656v21.104
			L130.941,53.103z M131.651,25.563v2.083h-0.095l3.644,3.69h0.236v-1.939L131.651,25.563z M133.875,49.222l3.407,3.454l-1.42-3.643
			l-0.426-0.426L133.875,49.222z M139.885,27.835v-2.224l-3.786,3.785v1.893l0.237,0.047L139.885,27.835z M136.336,48.418
			l1.562,3.881V34.506l-1.562,0.426V48.418z M142.015,51.115V33.418l1.703-1.656l-3.408-3.408l-3.406,3.408l1.656,1.656v21.104
			L142.015,51.115z M140.547,25.421v2.177l3.69,3.738h2.225L140.547,25.421z"/>
	</g>
	<text transform="matrix(1 0 0 1 22.1172 56.5332)" fill="#555555" font-family="'BebasNeue'" font-size="38.0936">Wicked</text>
	<text transform="matrix(1 0 0 1 150.7842 56.5332)" fill="#555555" font-family="'BebasNeue'" font-size="38.0936">WEAR</text>
</g>
</svg>
